<svg id="ei5gf0rref21" xmlns="http://www.w3.org/2000/svg" xmlns:xlink="http://www.w3.org/1999/xlink" viewBox="0 0 230 120" shape-rendering="geometricPrecision" text-rendering="geometricPrecision"><style><![CDATA[#ei5gf0rref24_to {animation: ei5gf0rref24_to__to 3000ms linear 1 normal forwards}@keyframes ei5gf0rref24_to__to { 0% {transform: translate(98.449997px,58.199999px)} 33.333333% {transform: translate(159.049997px,58.199999px)} 100% {transform: translate(159.049997px,58.199999px)} }#ei5gf0rref233_to {animation: ei5gf0rref233_to__to 3000ms linear 1 normal forwards}@keyframes ei5gf0rref233_to__to { 0% {offset-distance: 0%;animation-timing-function: cubic-bezier(0.420000,0,1,1)} 50% {offset-distance: 100%} 100% {offset-distance: 100%} }]]></style><defs><path id="ei5gf0rref22" d="M97.600000,85.200000C99.300000,87.900000,121.900000,109.600000,121.900000,109.600000C121.900000,109.600000,93.400000,138.300000,91.700000,138.300000C90,138.300000,35.500000,128.600000,34.900000,128.600000C34.300000,128.600000,-27.100000,108.400000,-27.100000,108.400000L-27.100000,57.400000C-27.100000,57.400000,3.300000,-11.200000,7,-13.700000C10.700000,-16.200000,83.400000,-30.300000,93.400000,-28.900000C103.400000,-27.500000,109.200000,-20.800000,109.200000,-20.800000L119.800000,5.200000C119.800000,5.200000,123.100000,33.800000,121.900000,34.500000C120.700000,35.200000,103.900000,36.900000,91.700000,37.300000C79.500000,37.600000,72.200000,38.900000,72.200000,43.700000C72.200000,48.500000,97.600000,85.200000,97.600000,85.200000Z"/><path id="ei5gf0rref23" d="M115.100000,33.300000C115.100000,33.300000,117.600000,31.200000,119.300000,30C119.600000,29.800000,131.600000,20.800000,131.300000,19.600000C131,18.400000,119.800000,-4.200000,113.500000,-5C107.300000,-5.800000,55.100000,-6.900000,54.300000,-6.600000C53.500000,-6.400000,20.800000,-2.400000,20,-1.200000C19.200000,0,1.300000,12.300000,0.700000,14C0.100000,15.600000,-1.800000,113.200000,-1.700000,113.400000C-1.600000,113.600000,28.900000,125.400000,29.100000,125.400000C29.300000,125.400000,117.400000,127.300000,117.500000,126.500000C117.600000,125.700000,120.800000,117.900000,123.400000,113.400000C126,108.900000,125.800000,88,125.800000,88L108.200000,84.600000L115.100000,33.300000Z"/><linearGradient id="ei5gf0rref25-fill" x1="90.600000" y1="58.250000" x2="107.860200" y2="58.250000" spreadMethod="pad" gradientUnits="userSpaceOnUse"><stop id="ei5gf0rref25-fill-0" offset="0%" stop-color="rgb(0,255,185)"/><stop id="ei5gf0rref25-fill-1" offset="21.980000%" stop-color="rgba(1,252,183,0.8901)"/><stop id="ei5gf0rref25-fill-2" offset="37.350000%" stop-color="rgba(6,243,178,0.8133)"/><stop id="ei5gf0rref25-fill-3" offset="50.710000%" stop-color="rgba(13,228,169,0.7465)"/><stop id="ei5gf0rref25-fill-4" offset="62.910000%" stop-color="rgba(23,206,155,0.6854)"/><stop id="ei5gf0rref25-fill-5" offset="74.340000%" stop-color="rgba(36,177,139,0.6283)"/><stop id="ei5gf0rref25-fill-6" offset="85.180000%" stop-color="rgba(52,142,118,0.5741)"/><stop id="ei5gf0rref25-fill-7" offset="95.370000%" stop-color="rgba(71,102,94,0.5231)"/><stop id="ei5gf0rref25-fill-8" offset="100%" stop-color="rgba(81,81,81,0.5)"/></linearGradient><linearGradient id="ei5gf0rref26-fill" x1="109.200000" y1="58.200000" x2="119.775200" y2="58.200000" spreadMethod="pad" gradientUnits="userSpaceOnUse"><stop id="ei5gf0rref26-fill-0" offset="0%" stop-color="rgb(0,255,185)"/><stop id="ei5gf0rref26-fill-1" offset="21.980000%" stop-color="rgba(1,252,183,0.8901)"/><stop id="ei5gf0rref26-fill-2" offset="37.350000%" stop-color="rgba(6,243,178,0.8133)"/><stop id="ei5gf0rref26-fill-3" offset="50.710000%" stop-color="rgba(13,228,169,0.7465)"/><stop id="ei5gf0rref26-fill-4" offset="62.910000%" stop-color="rgba(23,206,155,0.6854)"/><stop id="ei5gf0rref26-fill-5" offset="74.340000%" stop-color="rgba(36,177,139,0.6283)"/><stop id="ei5gf0rref26-fill-6" offset="85.180000%" stop-color="rgba(52,142,118,0.5741)"/><stop id="ei5gf0rref26-fill-7" offset="95.370000%" stop-color="rgba(71,102,94,0.5231)"/><stop id="ei5gf0rref26-fill-8" offset="100%" stop-color="rgba(81,81,81,0.5)"/></linearGradient><linearGradient id="ei5gf0rref27-fill" x1="122.667100" y1="58.250000" x2="132.682700" y2="58.250000" spreadMethod="pad" gradientUnits="userSpaceOnUse"><stop id="ei5gf0rref27-fill-0" offset="0%" stop-color="rgb(0,255,185)"/><stop id="ei5gf0rref27-fill-1" offset="21.980000%" stop-color="rgba(1,252,183,0.8901)"/><stop id="ei5gf0rref27-fill-2" offset="37.350000%" stop-color="rgba(6,243,178,0.8133)"/><stop id="ei5gf0rref27-fill-3" offset="50.710000%" stop-color="rgba(13,228,169,0.7465)"/><stop id="ei5gf0rref27-fill-4" offset="62.910000%" stop-color="rgba(23,206,155,0.6854)"/><stop id="ei5gf0rref27-fill-5" offset="74.340000%" stop-color="rgba(36,177,139,0.6283)"/><stop id="ei5gf0rref27-fill-6" offset="85.180000%" stop-color="rgba(52,142,118,0.5741)"/><stop id="ei5gf0rref27-fill-7" offset="95.370000%" stop-color="rgba(71,102,94,0.5231)"/><stop id="ei5gf0rref27-fill-8" offset="100%" stop-color="rgba(81,81,81,0.5)"/></linearGradient><linearGradient id="ei5gf0rref28-fill" x1="135.173400" y1="58.250000" x2="142.850400" y2="58.250000" spreadMethod="pad" gradientUnits="userSpaceOnUse"><stop id="ei5gf0rref28-fill-0" offset="0%" stop-color="rgb(0,255,185)"/><stop id="ei5gf0rref28-fill-1" offset="21.980000%" stop-color="rgba(1,252,183,0.8901)"/><stop id="ei5gf0rref28-fill-2" offset="37.350000%" stop-color="rgba(6,243,178,0.8133)"/><stop id="ei5gf0rref28-fill-3" offset="50.710000%" stop-color="rgba(13,228,169,0.7465)"/><stop id="ei5gf0rref28-fill-4" offset="62.910000%" stop-color="rgba(23,206,155,0.6854)"/><stop id="ei5gf0rref28-fill-5" offset="74.340000%" stop-color="rgba(36,177,139,0.6283)"/><stop id="ei5gf0rref28-fill-6" offset="85.180000%" stop-color="rgba(52,142,118,0.5741)"/><stop id="ei5gf0rref28-fill-7" offset="95.370000%" stop-color="rgba(71,102,94,0.5231)"/><stop id="ei5gf0rref28-fill-8" offset="100%" stop-color="rgba(81,81,81,0.5)"/></linearGradient><linearGradient id="ei5gf0rref29-fill" x1="144.800000" y1="58.300000" x2="154.535400" y2="58.300000" spreadMethod="pad" gradientUnits="userSpaceOnUse"><stop id="ei5gf0rref29-fill-0" offset="0%" stop-color="rgb(0,255,185)"/><stop id="ei5gf0rref29-fill-1" offset="21.980000%" stop-color="rgba(1,252,183,0.8901)"/><stop id="ei5gf0rref29-fill-2" offset="37.350000%" stop-color="rgba(6,243,178,0.8133)"/><stop id="ei5gf0rref29-fill-3" offset="50.710000%" stop-color="rgba(13,228,169,0.7465)"/><stop id="ei5gf0rref29-fill-4" offset="62.910000%" stop-color="rgba(23,206,155,0.6854)"/><stop id="ei5gf0rref29-fill-5" offset="74.340000%" stop-color="rgba(36,177,139,0.6283)"/><stop id="ei5gf0rref29-fill-6" offset="85.180000%" stop-color="rgba(52,142,118,0.5741)"/><stop id="ei5gf0rref29-fill-7" offset="95.370000%" stop-color="rgba(71,102,94,0.5231)"/><stop id="ei5gf0rref29-fill-8" offset="100%" stop-color="rgba(81,81,81,0.5)"/></linearGradient><linearGradient id="ei5gf0rref210-fill" x1="161.024000" y1="58.250000" x2="170.835900" y2="58.250000" spreadMethod="pad" gradientUnits="userSpaceOnUse"><stop id="ei5gf0rref210-fill-0" offset="0%" stop-color="rgb(0,255,185)"/><stop id="ei5gf0rref210-fill-1" offset="21.980000%" stop-color="rgba(1,252,183,0.8901)"/><stop id="ei5gf0rref210-fill-2" offset="37.350000%" stop-color="rgba(6,243,178,0.8133)"/><stop id="ei5gf0rref210-fill-3" offset="50.710000%" stop-color="rgba(13,228,169,0.7465)"/><stop id="ei5gf0rref210-fill-4" offset="62.910000%" stop-color="rgba(23,206,155,0.6854)"/><stop id="ei5gf0rref210-fill-5" offset="74.340000%" stop-color="rgba(36,177,139,0.6283)"/><stop id="ei5gf0rref210-fill-6" offset="85.180000%" stop-color="rgba(52,142,118,0.5741)"/><stop id="ei5gf0rref210-fill-7" offset="95.370000%" stop-color="rgba(71,102,94,0.5231)"/><stop id="ei5gf0rref210-fill-8" offset="100%" stop-color="rgba(81,81,81,0.5)"/></linearGradient><linearGradient id="ei5gf0rref211-fill" x1="172.818800" y1="58.250000" x2="182.834400" y2="58.250000" spreadMethod="pad" gradientUnits="userSpaceOnUse"><stop id="ei5gf0rref211-fill-0" offset="0%" stop-color="rgb(0,255,185)"/><stop id="ei5gf0rref211-fill-1" offset="21.980000%" stop-color="rgba(1,252,183,0.8901)"/><stop id="ei5gf0rref211-fill-2" offset="37.350000%" stop-color="rgba(6,243,178,0.8133)"/><stop id="ei5gf0rref211-fill-3" offset="50.710000%" stop-color="rgba(13,228,169,0.7465)"/><stop id="ei5gf0rref211-fill-4" offset="62.910000%" stop-color="rgba(23,206,155,0.6854)"/><stop id="ei5gf0rref211-fill-5" offset="74.340000%" stop-color="rgba(36,177,139,0.6283)"/><stop id="ei5gf0rref211-fill-6" offset="85.180000%" stop-color="rgba(52,142,118,0.5741)"/><stop id="ei5gf0rref211-fill-7" offset="95.370000%" stop-color="rgba(71,102,94,0.5231)"/><stop id="ei5gf0rref211-fill-8" offset="100%" stop-color="rgba(81,81,81,0.5)"/></linearGradient><linearGradient id="ei5gf0rref212-fill" x1="184.053900" y1="58.250000" x2="195.925200" y2="58.250000" spreadMethod="pad" gradientUnits="userSpaceOnUse"><stop id="ei5gf0rref212-fill-0" offset="0%" stop-color="rgb(0,255,185)"/><stop id="ei5gf0rref212-fill-1" offset="21.980000%" stop-color="rgba(1,252,183,0.8901)"/><stop id="ei5gf0rref212-fill-2" offset="37.350000%" stop-color="rgba(6,243,178,0.8133)"/><stop id="ei5gf0rref212-fill-3" offset="50.710000%" stop-color="rgba(13,228,169,0.7465)"/><stop id="ei5gf0rref212-fill-4" offset="62.910000%" stop-color="rgba(23,206,155,0.6854)"/><stop id="ei5gf0rref212-fill-5" offset="74.340000%" stop-color="rgba(36,177,139,0.6283)"/><stop id="ei5gf0rref212-fill-6" offset="85.180000%" stop-color="rgba(52,142,118,0.5741)"/><stop id="ei5gf0rref212-fill-7" offset="95.370000%" stop-color="rgba(71,102,94,0.5231)"/><stop id="ei5gf0rref212-fill-8" offset="100%" stop-color="rgba(81,81,81,0.5)"/></linearGradient><linearGradient id="ei5gf0rref213-fill" x1="195.671800" y1="58.250000" x2="207.060000" y2="58.250000" spreadMethod="pad" gradientUnits="userSpaceOnUse"><stop id="ei5gf0rref213-fill-0" offset="0%" stop-color="rgb(0,255,185)"/><stop id="ei5gf0rref213-fill-1" offset="21.980000%" stop-color="rgba(1,252,183,0.8901)"/><stop id="ei5gf0rref213-fill-2" offset="37.350000%" stop-color="rgba(6,243,178,0.8133)"/><stop id="ei5gf0rref213-fill-3" offset="50.710000%" stop-color="rgba(13,228,169,0.7465)"/><stop id="ei5gf0rref213-fill-4" offset="62.910000%" stop-color="rgba(23,206,155,0.6854)"/><stop id="ei5gf0rref213-fill-5" offset="74.340000%" stop-color="rgba(36,177,139,0.6283)"/><stop id="ei5gf0rref213-fill-6" offset="85.180000%" stop-color="rgba(52,142,118,0.5741)"/><stop id="ei5gf0rref213-fill-7" offset="95.370000%" stop-color="rgba(71,102,94,0.5231)"/><stop id="ei5gf0rref213-fill-8" offset="100%" stop-color="rgba(81,81,81,0.5)"/></linearGradient><linearGradient id="ei5gf0rref214-fill" x1="208.915700" y1="58.250000" x2="217.253600" y2="58.250000" spreadMethod="pad" gradientUnits="userSpaceOnUse"><stop id="ei5gf0rref214-fill-0" offset="0%" stop-color="rgb(0,255,185)"/><stop id="ei5gf0rref214-fill-1" offset="21.980000%" stop-color="rgba(1,252,183,0.8901)"/><stop id="ei5gf0rref214-fill-2" offset="37.350000%" stop-color="rgba(6,243,178,0.8133)"/><stop id="ei5gf0rref214-fill-3" offset="50.710000%" stop-color="rgba(13,228,169,0.7465)"/><stop id="ei5gf0rref214-fill-4" offset="62.910000%" stop-color="rgba(23,206,155,0.6854)"/><stop id="ei5gf0rref214-fill-5" offset="74.340000%" stop-color="rgba(36,177,139,0.6283)"/><stop id="ei5gf0rref214-fill-6" offset="85.180000%" stop-color="rgba(52,142,118,0.5741)"/><stop id="ei5gf0rref214-fill-7" offset="95.370000%" stop-color="rgba(71,102,94,0.5231)"/><stop id="ei5gf0rref214-fill-8" offset="100%" stop-color="rgba(81,81,81,0.5)"/></linearGradient><linearGradient id="ei5gf0rref215-fill" x1="219.800000" y1="58.250000" x2="227.500000" y2="58.250000" spreadMethod="pad" gradientUnits="userSpaceOnUse"><stop id="ei5gf0rref215-fill-0" offset="0%" stop-color="rgb(0,255,185)"/><stop id="ei5gf0rref215-fill-1" offset="21.980000%" stop-color="rgb(1,252,183)"/><stop id="ei5gf0rref215-fill-2" offset="37.350000%" stop-color="rgb(6,243,178)"/><stop id="ei5gf0rref215-fill-3" offset="50.710000%" stop-color="rgb(13,228,169)"/><stop id="ei5gf0rref215-fill-4" offset="62.910000%" stop-color="rgb(23,206,155)"/><stop id="ei5gf0rref215-fill-5" offset="74.340000%" stop-color="rgb(36,177,139)"/><stop id="ei5gf0rref215-fill-6" offset="85.180000%" stop-color="rgb(52,142,118)"/><stop id="ei5gf0rref215-fill-7" offset="100%" stop-color="rgb(71,102,94)"/><stop id="ei5gf0rref215-fill-8" offset="100%" stop-color="rgb(64,116,102)"/><stop id="ei5gf0rref215-fill-9" offset="100%" stop-color="rgb(81,81,81)"/></linearGradient><linearGradient id="ei5gf0rref223-stroke" x1="9.500000" y1="61.200000" x2="125.900000" y2="61.200000" spreadMethod="pad" gradientUnits="userSpaceOnUse"><stop id="ei5gf0rref223-stroke-0" offset="0%" stop-color="rgb(0,255,185)"/><stop id="ei5gf0rref223-stroke-1" offset="21.980000%" stop-color="rgb(1,252,183)"/><stop id="ei5gf0rref223-stroke-2" offset="37.350000%" stop-color="rgb(6,243,178)"/><stop id="ei5gf0rref223-stroke-3" offset="50.710000%" stop-color="rgb(13,228,169)"/><stop id="ei5gf0rref223-stroke-4" offset="62.910000%" stop-color="rgb(23,206,155)"/><stop id="ei5gf0rref223-stroke-5" offset="74.340000%" stop-color="rgb(36,177,139)"/><stop id="ei5gf0rref223-stroke-6" offset="85.180000%" stop-color="rgb(52,142,118)"/><stop id="ei5gf0rref223-stroke-7" offset="95.370000%" stop-color="rgb(71,102,94)"/><stop id="ei5gf0rref223-stroke-8" offset="100%" stop-color="rgb(81,81,81)"/></linearGradient><linearGradient id="ei5gf0rref229-fill" x1="42.500000" y1="3.903000" x2="61.200000" y2="3.903000" spreadMethod="pad" gradientUnits="userSpaceOnUse"><stop id="ei5gf0rref229-fill-0" offset="0%" stop-color="rgb(0,255,185)"/><stop id="ei5gf0rref229-fill-1" offset="21.980000%" stop-color="rgb(1,252,183)"/><stop id="ei5gf0rref229-fill-2" offset="37.350000%" stop-color="rgb(6,243,178)"/><stop id="ei5gf0rref229-fill-3" offset="50.710000%" stop-color="rgb(13,228,169)"/><stop id="ei5gf0rref229-fill-4" offset="62.910000%" stop-color="rgb(23,206,155)"/><stop id="ei5gf0rref229-fill-5" offset="74.340000%" stop-color="rgb(36,177,139)"/><stop id="ei5gf0rref229-fill-6" offset="85.180000%" stop-color="rgb(52,142,118)"/><stop id="ei5gf0rref229-fill-7" offset="95.370000%" stop-color="rgb(71,102,94)"/><stop id="ei5gf0rref229-fill-8" offset="100%" stop-color="rgb(81,81,81)"/></linearGradient><linearGradient id="ei5gf0rref230-fill" x1="6.253200" y1="66.500000" x2="36.936700" y2="66.500000" spreadMethod="pad" gradientUnits="userSpaceOnUse"><stop id="ei5gf0rref230-fill-0" offset="0%" stop-color="rgb(0,255,185)"/><stop id="ei5gf0rref230-fill-1" offset="21.980000%" stop-color="rgb(1,252,183)"/><stop id="ei5gf0rref230-fill-2" offset="37.350000%" stop-color="rgb(6,243,178)"/><stop id="ei5gf0rref230-fill-3" offset="50.710000%" stop-color="rgb(13,228,169)"/><stop id="ei5gf0rref230-fill-4" offset="62.910000%" stop-color="rgb(23,206,155)"/><stop id="ei5gf0rref230-fill-5" offset="74.340000%" stop-color="rgb(36,177,139)"/><stop id="ei5gf0rref230-fill-6" offset="85.180000%" stop-color="rgb(52,142,118)"/><stop id="ei5gf0rref230-fill-7" offset="95.370000%" stop-color="rgb(71,102,94)"/><stop id="ei5gf0rref230-fill-8" offset="100%" stop-color="rgb(81,81,81)"/></linearGradient><linearGradient id="ei5gf0rref231-fill" x1="91.700000" y1="17.716800" x2="119.057600" y2="17.716800" spreadMethod="pad" gradientUnits="userSpaceOnUse"><stop id="ei5gf0rref231-fill-0" offset="0%" stop-color="rgb(0,255,185)"/><stop id="ei5gf0rref231-fill-1" offset="21.980000%" stop-color="rgb(1,252,183)"/><stop id="ei5gf0rref231-fill-2" offset="37.350000%" stop-color="rgb(6,243,178)"/><stop id="ei5gf0rref231-fill-3" offset="50.710000%" stop-color="rgb(13,228,169)"/><stop id="ei5gf0rref231-fill-4" offset="62.910000%" stop-color="rgb(23,206,155)"/><stop id="ei5gf0rref231-fill-5" offset="74.340000%" stop-color="rgb(36,177,139)"/><stop id="ei5gf0rref231-fill-6" offset="85.180000%" stop-color="rgb(52,142,118)"/><stop id="ei5gf0rref231-fill-7" offset="95.370000%" stop-color="rgb(71,102,94)"/><stop id="ei5gf0rref231-fill-8" offset="100%" stop-color="rgb(81,81,81)"/></linearGradient><linearGradient id="ei5gf0rref232-fill" x1="109.300000" y1="93.243700" x2="123.738300" y2="93.243700" spreadMethod="pad" gradientUnits="userSpaceOnUse"><stop id="ei5gf0rref232-fill-0" offset="0%" stop-color="rgb(0,255,185)"/><stop id="ei5gf0rref232-fill-1" offset="21.980000%" stop-color="rgb(1,252,183)"/><stop id="ei5gf0rref232-fill-2" offset="37.350000%" stop-color="rgb(6,243,178)"/><stop id="ei5gf0rref232-fill-3" offset="50.710000%" stop-color="rgb(13,228,169)"/><stop id="ei5gf0rref232-fill-4" offset="62.910000%" stop-color="rgb(23,206,155)"/><stop id="ei5gf0rref232-fill-5" offset="74.340000%" stop-color="rgb(36,177,139)"/><stop id="ei5gf0rref232-fill-6" offset="85.180000%" stop-color="rgb(52,142,118)"/><stop id="ei5gf0rref232-fill-7" offset="95.370000%" stop-color="rgb(71,102,94)"/><stop id="ei5gf0rref232-fill-8" offset="100%" stop-color="rgb(81,81,81)"/></linearGradient><linearGradient id="ei5gf0rref234-fill" x1="21.635725" y1="104.591994" x2="48.297736" y2="105.772622" spreadMethod="pad" gradientUnits="userSpaceOnUse"><stop id="ei5gf0rref234-fill-0" offset="0%" stop-color="rgb(0,255,185)"/><stop id="ei5gf0rref234-fill-1" offset="21.980000%" stop-color="rgb(1,252,183)"/><stop id="ei5gf0rref234-fill-2" offset="37.350000%" stop-color="rgb(6,243,178)"/><stop id="ei5gf0rref234-fill-3" offset="50.710000%" stop-color="rgb(13,228,169)"/><stop id="ei5gf0rref234-fill-4" offset="62.910000%" stop-color="rgb(23,206,155)"/><stop id="ei5gf0rref234-fill-5" offset="74.340000%" stop-color="rgb(36,177,139)"/><stop id="ei5gf0rref234-fill-6" offset="85.180000%" stop-color="rgb(52,142,118)"/><stop id="ei5gf0rref234-fill-7" offset="95.370000%" stop-color="rgb(71,102,94)"/><stop id="ei5gf0rref234-fill-8" offset="100%" stop-color="rgb(81,81,81)"/></linearGradient><linearGradient id="ei5gf0rref235-fill" x1="21.630576" y1="104.708277" x2="48.292587" y2="105.888905" spreadMethod="pad" gradientUnits="userSpaceOnUse"><stop id="ei5gf0rref235-fill-0" offset="0%" stop-color="rgb(0,255,185)"/><stop id="ei5gf0rref235-fill-1" offset="21.980000%" stop-color="rgb(1,252,183)"/><stop id="ei5gf0rref235-fill-2" offset="37.350000%" stop-color="rgb(6,243,178)"/><stop id="ei5gf0rref235-fill-3" offset="50.710000%" stop-color="rgb(13,228,169)"/><stop id="ei5gf0rref235-fill-4" offset="62.910000%" stop-color="rgb(23,206,155)"/><stop id="ei5gf0rref235-fill-5" offset="74.340000%" stop-color="rgb(36,177,139)"/><stop id="ei5gf0rref235-fill-6" offset="85.180000%" stop-color="rgb(52,142,118)"/><stop id="ei5gf0rref235-fill-7" offset="95.370000%" stop-color="rgb(71,102,94)"/><stop id="ei5gf0rref235-fill-8" offset="100%" stop-color="rgb(81,81,81)"/></linearGradient><linearGradient id="ei5gf0rref236-fill" x1="22.142742" y1="104.844466" x2="47.960198" y2="105.987696" spreadMethod="pad" gradientUnits="userSpaceOnUse"><stop id="ei5gf0rref236-fill-0" offset="0%" stop-color="rgb(0,255,185)"/><stop id="ei5gf0rref236-fill-1" offset="21.980000%" stop-color="rgb(1,252,183)"/><stop id="ei5gf0rref236-fill-2" offset="37.350000%" stop-color="rgb(6,243,178)"/><stop id="ei5gf0rref236-fill-3" offset="50.710000%" stop-color="rgb(13,228,169)"/><stop id="ei5gf0rref236-fill-4" offset="62.910000%" stop-color="rgb(23,206,155)"/><stop id="ei5gf0rref236-fill-5" offset="74.340000%" stop-color="rgb(36,177,139)"/><stop id="ei5gf0rref236-fill-6" offset="85.180000%" stop-color="rgb(52,142,118)"/><stop id="ei5gf0rref236-fill-7" offset="95.370000%" stop-color="rgb(71,102,94)"/><stop id="ei5gf0rref236-fill-8" offset="100%" stop-color="rgb(81,81,81)"/></linearGradient></defs><g id="ei5gf0rref24_to" transform="translate(98.449997,58.199999)"><g id="ei5gf0rref24" transform="translate(-159.049995,-58.199999)"><path id="ei5gf0rref25" d="M101.700000,67L99.300000,53.400000L99.200000,53.400000L96.700000,67L93.600000,67L90.600000,49.500000L93,49.500000L95.200000,63.900000L95.400000,63.900000L97.900000,49.500000L100.600000,49.500000L103.200000,63.900000L103.300000,63.900000L105.400000,49.500000L107.800000,49.500000L104.800000,67L101.700000,67Z" fill="url(#ei5gf0rref25-fill)" stroke="none" stroke-width="1"/><path id="ei5gf0rref26" d="M110.900000,66.500000C110.200000,66,109.700000,65.200000,109.500000,64C109.300000,62.800000,109.200000,60.900000,109.200000,58.200000C109.200000,55.500000,109.300000,53.600000,109.500000,52.400000C109.700000,51.200000,110.200000,50.400000,110.900000,49.900000C111.600000,49.400000,112.800000,49.200000,114.500000,49.200000C116.200000,49.200000,117.400000,49.400000,118.100000,49.900000C118.800000,50.400000,119.300000,51.200000,119.500000,52.400000C119.700000,53.600000,119.800000,55.500000,119.800000,58.200000C119.800000,60.900000,119.700000,62.800000,119.500000,64C119.300000,65.200000,118.800000,66,118.100000,66.500000C117.400000,67,116.200000,67.200000,114.500000,67.200000C112.800000,67.200000,111.600000,66.900000,110.900000,66.500000ZM116.500000,64.700000C116.900000,64.500000,117.100000,63.900000,117.200000,63C117.300000,62.100000,117.400000,60.500000,117.400000,58.200000C117.400000,55.900000,117.300000,54.300000,117.200000,53.400000C117.100000,52.500000,116.800000,51.900000,116.500000,51.700000C116.100000,51.500000,115.500000,51.300000,114.500000,51.300000C113.500000,51.300000,112.900000,51.400000,112.500000,51.700000C112.100000,51.900000,111.900000,52.500000,111.800000,53.400000C111.700000,54.300000,111.600000,55.900000,111.600000,58.200000C111.600000,60.500000,111.700000,62.100000,111.800000,63C111.900000,63.900000,112.200000,64.400000,112.500000,64.700000C112.900000,64.900000,113.500000,65.100000,114.500000,65.100000C115.500000,65.100000,116.100000,65,116.500000,64.700000Z" fill="url(#ei5gf0rref26-fill)" stroke="none" stroke-width="1"/><path id="ei5gf0rref27" d="M130.200000,67L128.200000,60.200000L128,60.200000L125.100000,60.200000L125.100000,67L122.700000,67L122.700000,49.500000L128.200000,49.500000C129.400000,49.500000,130.300000,49.700000,130.900000,50.100000C131.500000,50.500000,131.900000,51.100000,132.100000,51.900000C132.300000,52.600000,132.400000,53.600000,132.400000,54.800000C132.400000,56.100000,132.300000,57.100000,132,57.900000C131.700000,58.700000,131.200000,59.300000,130.400000,59.700000L132.700000,66.900000L130.200000,66.900000L130.200000,67ZM129.100000,57.800000C129.400000,57.600000,129.700000,57.200000,129.800000,56.800000C129.900000,56.400000,130,55.700000,130,54.800000C130,53.900000,130,53.300000,129.900000,52.800000C129.800000,52.400000,129.600000,52,129.300000,51.800000C129,51.600000,128.400000,51.500000,127.700000,51.500000L125.200000,51.500000L125.200000,58.100000L127.700000,58.100000C128.300000,58.200000,128.800000,58,129.100000,57.800000Z" fill="url(#ei5gf0rref27-fill)" stroke="none" stroke-width="1"/><path id="ei5gf0rref28" d="M135.200000,67L135.200000,49.500000L137.600000,49.500000L137.600000,64.900000L142.900000,64.900000L142.900000,67L135.200000,67Z" fill="url(#ei5gf0rref28-fill)" stroke="none" stroke-width="1"/><path id="ei5gf0rref29" d="M144.800000,49.500000L149.100000,49.500000C150.800000,49.500000,152.100000,49.700000,152.800000,50.200000C153.500000,50.700000,154,51.400000,154.200000,52.600000C154.400000,53.700000,154.500000,55.600000,154.500000,58.300000C154.500000,61,154.400000,62.900000,154.200000,64C154,65.100000,153.500000,65.900000,152.800000,66.400000C152.100000,66.900000,150.800000,67.100000,149.100000,67.100000L144.800000,67.100000L144.800000,49.500000ZM149.100000,64.900000C150.100000,64.900000,150.800000,64.800000,151.200000,64.600000C151.600000,64.400000,151.800000,63.800000,152,63C152.100000,62.100000,152.200000,60.600000,152.200000,58.300000C152.200000,56,152.100000,54.500000,152,53.600000C151.900000,52.700000,151.600000,52.200000,151.200000,52C150.800000,51.800000,150.100000,51.700000,149.100000,51.700000L147.200000,51.700000L147.200000,65L149.100000,64.900000L149.100000,64.900000Z" fill="url(#ei5gf0rref29-fill)" stroke="none" stroke-width="1"/><path id="ei5gf0rref210" d="M164.700000,67L164.700000,51.600000L161,51.600000L161,49.500000L170.800000,49.500000L170.800000,51.600000L167.100000,51.600000L167.100000,67L164.700000,67Z" fill="url(#ei5gf0rref210-fill)" stroke="none" stroke-width="1"/><path id="ei5gf0rref211" d="M180.300000,67L178.300000,60.200000L178.100000,60.200000L175.200000,60.200000L175.200000,67L172.800000,67L172.800000,49.500000L178.300000,49.500000C179.500000,49.500000,180.400000,49.700000,181,50.100000C181.600000,50.500000,182,51.100000,182.200000,51.900000C182.400000,52.600000,182.500000,53.600000,182.500000,54.800000C182.500000,56.100000,182.400000,57.100000,182.100000,57.900000C181.800000,58.700000,181.300000,59.300000,180.500000,59.700000L182.800000,66.900000L180.300000,66.900000L180.300000,67ZM179.300000,57.800000C179.600000,57.600000,179.900000,57.200000,180,56.800000C180.100000,56.400000,180.200000,55.700000,180.200000,54.800000C180.200000,53.900000,180.200000,53.300000,180.100000,52.800000C180,52.400000,179.800000,52,179.500000,51.800000C179.200000,51.600000,178.600000,51.500000,177.900000,51.500000L175.400000,51.500000L175.400000,58.100000L177.900000,58.100000C178.400000,58.200000,179,58,179.300000,57.800000Z" fill="url(#ei5gf0rref211-fill)" stroke="none" stroke-width="1"/><path id="ei5gf0rref212" d="M193.500000,67L192.400000,62.500000L187.500000,62.500000L186.500000,67L184.100000,67L188.400000,49.500000L191.700000,49.500000L196,67L193.500000,67ZM190,52.100000L189.800000,52.100000L187.900000,60.500000L191.900000,60.500000L190,52.100000Z" fill="url(#ei5gf0rref212-fill)" stroke="none" stroke-width="1"/><path id="ei5gf0rref213" d="M199.700000,67L195.600000,49.500000L198.100000,49.500000L201.300000,64.100000L201.500000,64.100000L204.700000,49.500000L207.100000,49.500000L203,67L199.700000,67Z" fill="url(#ei5gf0rref213-fill)" stroke="none" stroke-width="1"/><path id="ei5gf0rref214" d="M208.900000,67L208.900000,49.500000L217.200000,49.500000L217.200000,51.600000L211.300000,51.600000L211.300000,57.100000L216.500000,57.100000L216.500000,59.200000L211.300000,59.200000L211.300000,64.900000L217.200000,64.900000L217.200000,67L208.900000,67Z" fill="url(#ei5gf0rref214-fill)" stroke="none" stroke-width="1"/><path id="ei5gf0rref215" d="M219.800000,67L219.800000,49.500000L222.200000,49.500000L222.200000,64.900000L227.500000,64.900000L227.500000,67L219.800000,67Z" fill="url(#ei5gf0rref215-fill)" stroke="none" stroke-width="1"/></g></g><path id="ei5gf0rref216" d="M119.900000,91.700000C119.900000,93.200000,118.700000,94.400000,117.200000,94.400000C115.700000,94.400000,114.500000,93.200000,114.500000,91.700000C114.500000,90.200000,115.700000,89,117.200000,89C118.700000,89,119.900000,90.200000,119.900000,91.700000Z" fill="none" stroke="none" stroke-width="1"/><path id="ei5gf0rref217" d="M119.900000,91.700000C119.900000,93.200000,118.700000,94.400000,117.200000,94.400000C115.700000,94.400000,114.500000,93.200000,114.500000,91.700000C114.500000,90.200000,115.700000,89,117.200000,89C118.700000,89,119.900000,90.200000,119.900000,91.700000Z" fill="none" stroke="none" stroke-width="1"/><g id="ei5gf0rref218"><g id="ei5gf0rref219" clip-path="url(#ei5gf0rref226)"><g id="ei5gf0rref220"><g id="ei5gf0rref221"><g id="ei5gf0rref222" clip-path="url(#ei5gf0rref224)"><path id="ei5gf0rref223" d="M114.900000,93.400000C112.400000,92.100000,111.400000,96.300000,112.500000,93.900000C113.100000,92.600000,112,91.200000,112.800000,90C113.200000,89.400000,116,81.700000,116.300000,81.100000C116.500000,80.800000,114.300000,86.200000,114.500000,85.900000C114.400000,86.300000,116.700000,80.400000,116.900000,79.900000C117.900000,77.300000,120.200000,75.800000,123.100000,76.400000C123.200000,76.400000,123.300000,76.500000,123.400000,76.500000C124.700000,71.600000,125.400000,66.500000,125.400000,61.300000C125.400000,29.400000,99.600000,3.600000,67.700000,3.600000C35.800000,3.600000,10,29.300000,10,61.200000C10,93.100000,35.800000,118.900000,67.700000,118.900000C87.500000,118.900000,105,108.900000,115.400000,93.700000C115.200000,93.600000,115,93.500000,114.900000,93.400000Z" fill="none" stroke="url(#ei5gf0rref223-stroke)" stroke-width="1" stroke-miterlimit="10"/><clipPath id="ei5gf0rref224"><use id="ei5gf0rref225" width="133.009323" height="133.347137" xlink:href="#ei5gf0rref23" fill="rgb(0,0,0)" stroke="none" stroke-width="1"/></clipPath></g></g></g><clipPath id="ei5gf0rref226"><use id="ei5gf0rref227" width="149.262726" height="167.297501" xlink:href="#ei5gf0rref22" fill="rgb(0,0,0)" stroke="none" stroke-width="1"/></clipPath></g></g><g id="ei5gf0rref228"><path id="ei5gf0rref229" d="M49.700000,6.900000C47.100000,5.500000,44.700000,4,42.500000,2.900000C47.700000,-0.400000,55.700000,0.600000,61.200000,4.400000C56.900000,4.900000,53,5.700000,49.700000,6.900000Z" fill="url(#ei5gf0rref229-fill)" stroke="none" stroke-width="1"/><path id="ei5gf0rref230" d="M14.200000,23.400000C15.400000,26.700000,14.500000,30.600000,19.500000,30.200000C11.400000,44,8.700000,58.300000,12,73.500000C15.400000,88.800000,24,100.600000,36.900000,109.600000C24.700000,105,10.700000,88.600000,7.500000,72.300000C4.200000,55.400000,7.800000,39.800000,14.200000,23.400000Z" fill="url(#ei5gf0rref230-fill)" stroke="none" stroke-width="1"/><path id="ei5gf0rref231" d="M91.700000,8.600000C95.400000,4.800000,99.400000,3.200000,104,5.200000C108.800000,7.300000,110.100000,11.500000,109.700000,16.400000C113.300000,17.300000,115.800000,18.900000,115.700000,23C115.700000,23.600000,116.700000,24.200000,117.300000,24.800000C119.400000,26.700000,119.800000,28.500000,117.500000,31.100000C110.900000,21.200000,102.500000,13.600000,91.700000,8.600000Z" fill="url(#ei5gf0rref231-fill)" stroke="none" stroke-width="1"/><path id="ei5gf0rref232" d="M123.600000,90.500000C123,87.200000,119.900000,85,116.500000,85.200000C112.900000,85.400000,110.400000,88.100000,110.100000,91.800000C109.800000,95,109.600000,98.200000,109.300000,101.300000C112.400000,100.300000,115.500000,99.400000,118.600000,98.500000C122.300000,97.400000,124.300000,94.200000,123.600000,90.500000ZM117.200000,94.300000C115.700000,94.300000,114.500000,93.100000,114.500000,91.600000C114.500000,90.100000,115.700000,88.900000,117.200000,88.900000C118.700000,88.900000,119.900000,90.100000,119.900000,91.600000C119.900000,93.100000,118.700000,94.300000,117.200000,94.300000Z" fill="url(#ei5gf0rref232-fill)" stroke="none" stroke-width="1"/></g><g id="ei5gf0rref233_to" style="offset-path:path('M36.900000,12.330316C12.504710,25.092017,-10.148054,73.950544,36.868109,107.343794');offset-rotate:auto"><g id="ei5gf0rref233" transform="rotate(-37.994666) translate(-34.660656,-105.266666)"><path id="ei5gf0rref234" d="M28.400000,94.500000C26.100000,97.700000,23.900000,101,21.600000,104.200000C21.900000,104.400000,22.200000,104.500000,22.400000,104.800000C22.700000,105.100000,23,105.100000,23.400000,104.900000C24.200000,104.600000,24.900000,104.400000,25.700000,104.200000C25.900000,104.100000,26.200000,104.200000,26.400000,104.300000C27.800000,105.300000,29.200000,106.200000,30.600000,107.200000C31.300000,107.700000,32.100000,108.200000,32.900000,108.800000C30,110.900000,27.200000,113,24.400000,115C25.200000,116,26.300000,116.300000,27.300000,115.900000C28.500000,115.500000,29.200000,115.900000,30,116.500000L30.100000,116.600000C31.200000,117.300000,31.400000,117.300000,32.200000,116.300000C32.400000,116.100000,32.500000,115.800000,32.700000,115.500000C32.900000,115,32.800000,114.700000,32.300000,114.400000C32.200000,114.300000,32,114.200000,31.900000,114.100000C32.400000,113.700000,32.800000,113.700000,33.200000,114.100000C33.600000,114.400000,34,114.700000,34.400000,115C35.500000,115.900000,35.900000,115.500000,36.600000,114.500000C36.700000,114.300000,36.800000,114.100000,36.900000,113.800000C37.100000,113.400000,37,113,36.600000,112.800000C36.300000,112.700000,36.100000,112.500000,35.800000,112.400000C36,112.200000,36.100000,112.100000,36.200000,112C36.700000,111.700000,37.100000,111.700000,37.600000,112.100000C38.800000,113,40,113.800000,41.200000,114.600000C42.400000,115.400000,43.700000,116,45.200000,115.900000C47,115.800000,48.100000,114.300000,47.500000,112.600000C47,111.100000,46,110,44.800000,109.200000C43.500000,108.300000,42.300000,107.400000,41,106.600000C40.900000,106.500000,40.700000,106.300000,40.700000,106.200000C40.700000,105.900000,40.700000,105.500000,40.800000,105.200000L40.900000,105.100000C41.100000,105.300000,41.300000,105.500000,41.500000,105.600000C41.900000,106,42.400000,105.900000,42.700000,105.500000C43.100000,105.100000,43.400000,104.600000,43.600000,104.100000C43.800000,103.700000,43.700000,103.300000,43.300000,103.100000C42.700000,102.700000,42.200000,102.300000,41.600000,101.900000C41.100000,101.600000,41,101.200000,41.200000,100.700000C41.300000,100.800000,41.400000,100.800000,41.500000,100.900000C42.100000,101.400000,42.500000,101.200000,42.900000,100.800000C43.200000,100.400000,43.500000,100,43.700000,99.500000C43.900000,99.100000,43.800000,98.700000,43.400000,98.500000C42.800000,98.100000,42.300000,97.700000,41.700000,97.300000C41.500000,97.200000,41.400000,96.900000,41.400000,96.700000C41.300000,96.200000,41.300000,95.700000,41.200000,95.200000C40.900000,94.300000,40.400000,93.600000,39.400000,93.300000C38.400000,96.700000,37.500000,100,36.500000,103.500000C36.300000,103.300000,36.200000,103.100000,36.100000,103C34.400000,101.800000,32.700000,100.600000,31,99.500000C30.100000,98.900000,29.500000,98.300000,29.700000,97.200000C29.700000,97.100000,29.700000,96.900000,29.700000,96.800000C29.800000,95.400000,29.800000,95.400000,28.400000,94.500000L28.400000,94.500000Z" fill="url(#ei5gf0rref234-fill)" stroke="none" stroke-width="1"/><path id="ei5gf0rref235" d="M28.400000,94.500000L28.400000,94.500000C29.700000,95.300000,29.700000,95.300000,29.800000,96.900000C29.800000,97,29.800000,97.200000,29.800000,97.300000C29.700000,98.400000,30.300000,99,31.100000,99.600000C32.800000,100.700000,34.500000,102,36.200000,103.100000C36.300000,103.200000,36.400000,103.400000,36.600000,103.600000C37.600000,100.100000,38.600000,96.700000,39.500000,93.400000C40.500000,93.700000,41,94.400000,41.300000,95.300000C41.400000,95.800000,41.400000,96.300000,41.500000,96.800000C41.500000,97,41.700000,97.300000,41.800000,97.400000C42.300000,97.800000,42.900000,98.200000,43.500000,98.600000C43.900000,98.900000,44,99.200000,43.800000,99.600000C43.600000,100.100000,43.300000,100.500000,43,100.900000C42.600000,101.300000,42.200000,101.500000,41.600000,101C41.500000,100.900000,41.400000,100.900000,41.300000,100.800000C41.100000,101.300000,41.200000,101.700000,41.700000,102C42.300000,102.400000,42.800000,102.800000,43.400000,103.200000C43.800000,103.500000,43.900000,103.800000,43.700000,104.200000C43.400000,104.700000,43.100000,105.200000,42.800000,105.600000C42.500000,106,42,106,41.600000,105.700000C41.400000,105.500000,41.200000,105.300000,41,105.200000L40.900000,105.300000C40.900000,105.600000,40.800000,106,40.800000,106.300000C40.800000,106.500000,41,106.600000,41.100000,106.700000C42.400000,107.600000,43.600000,108.400000,44.900000,109.300000C46.100000,110.200000,47.100000,111.200000,47.600000,112.700000C48.100000,114.400000,47,115.900000,45.300000,116C43.800000,116.100000,42.500000,115.500000,41.300000,114.700000C40.100000,113.900000,38.900000,113.100000,37.700000,112.200000C37.200000,111.800000,36.800000,111.800000,36.300000,112.100000C36.200000,112.200000,36.100000,112.200000,35.900000,112.500000C36.200000,112.600000,36.400000,112.800000,36.700000,112.900000C37.100000,113.100000,37.200000,113.500000,37,113.900000C36.900000,114.100000,36.800000,114.400000,36.700000,114.600000C35.900000,115.600000,35.500000,116,34.500000,115.100000C34.100000,114.800000,33.700000,114.600000,33.300000,114.200000C32.900000,113.800000,32.500000,113.800000,32,114.200000C32.100000,114.300000,32.300000,114.400000,32.400000,114.500000C32.900000,114.700000,33,115.100000,32.800000,115.600000C32.700000,115.900000,32.500000,116.200000,32.300000,116.400000C31.500000,117.400000,31.300000,117.500000,30.200000,116.700000L30.100000,116.600000C29.300000,115.900000,28.500000,115.500000,27.400000,116C26.400000,116.400000,25.300000,116.100000,24.500000,115.100000C27.300000,113,30.100000,111,33,108.900000C32.200000,108.400000,31.500000,107.800000,30.700000,107.300000C29.300000,106.300000,27.900000,105.300000,26.500000,104.400000C26.300000,104.300000,26,104.200000,25.800000,104.300000C25,104.500000,24.200000,104.700000,23.500000,105C23.100000,105.100000,22.800000,105.100000,22.500000,104.900000C22.200000,104.700000,21.900000,104.500000,21.700000,104.300000C23.900000,101,26.200000,97.800000,28.400000,94.500000ZM28.500000,95.100000C26.400000,98.100000,24.300000,101.200000,22.200000,104.200000C22.700000,105,23.400000,104.700000,24.200000,104.500000C24.700000,104.300000,25.300000,104.200000,25.800000,104C26.100000,103.900000,26.400000,104,26.700000,104.200000C28.800000,105.700000,31,107.200000,33.100000,108.700000C33.200000,108.800000,33.400000,108.900000,33.500000,109C30.600000,111.100000,27.800000,113.200000,24.900000,115.300000C25.200000,115.500000,25.400000,115.600000,25.600000,115.700000C26.400000,116.100000,27.300000,115.900000,28.100000,115.600000C28.500000,115.400000,28.800000,115.500000,29.200000,115.700000C29.700000,116.100000,30.300000,116.500000,30.800000,116.800000C31,116.900000,31.400000,116.900000,31.400000,116.800000C31.800000,116.400000,32.100000,115.900000,32.300000,115.500000C32.400000,115.400000,32.200000,115,32.100000,114.900000C31.800000,114.700000,31.500000,114.500000,31.100000,114.200000C31.600000,114,32,113.800000,32.300000,113.600000C32.600000,113.400000,32.800000,113.500000,33.100000,113.700000C33.600000,114.100000,34.200000,114.500000,34.800000,114.900000C35.600000,115.400000,35.800000,115.400000,36.300000,114.600000C36.500000,114.400000,36.600000,114.100000,36.700000,113.800000C36.800000,113.500000,36.800000,113.300000,36.500000,113.100000C36.100000,112.900000,35.700000,112.600000,35.300000,112.400000C35.900000,112,36.300000,111.800000,36.800000,111.600000C37.100000,111.400000,37.300000,111.500000,37.600000,111.700000C38.900000,112.600000,40.100000,113.500000,41.400000,114.400000C42.400000,115.100000,43.500000,115.600000,44.800000,115.700000C46.600000,115.900000,47.800000,114.700000,47.500000,113C47.300000,112.100000,46.900000,111.200000,46.200000,110.600000C44.900000,109.500000,43.500000,108.600000,42.100000,107.500000C41.600000,107.100000,40.900000,106.900000,40.700000,106.400000C40.500000,105.900000,40.700000,105.200000,40.800000,104.600000C40.800000,104.600000,40.800000,104.600000,40.900000,104.400000C41.200000,104.600000,41.400000,104.900000,41.700000,105.100000C42.400000,105.600000,42.700000,105.600000,43.200000,104.900000C43.400000,104.700000,43.500000,104.400000,43.600000,104.200000C43.800000,103.900000,43.700000,103.600000,43.400000,103.400000C42.700000,102.900000,42,102.400000,41.300000,102C41.200000,101.900000,41,101.800000,41,101.700000C41,101.200000,41.100000,100.700000,41.100000,100C41.400000,100.200000,41.500000,100.400000,41.600000,100.500000C42.500000,101.100000,42.700000,101,43.300000,100.100000C43.400000,99.900000,43.500000,99.700000,43.600000,99.500000C43.700000,99.200000,43.700000,99,43.400000,98.800000C42.900000,98.500000,42.400000,98.100000,41.800000,97.700000C41.300000,97.400000,41.200000,97.100000,41.200000,96.600000C41.200000,95.500000,40.900000,94.400000,39.800000,93.800000C38.800000,97.200000,37.800000,100.600000,36.900000,104C36.800000,104,36.700000,103.900000,36.700000,103.900000C34.400000,102.300000,32.100000,100.700000,29.800000,99.100000C29.700000,99,29.600000,98.800000,29.500000,98.600000C29.400000,98,29.400000,97.400000,29.400000,96.700000C29.400000,96,29.400000,95.300000,28.500000,95.100000Z" fill="url(#ei5gf0rref235-fill)" stroke="none" stroke-width="1"/><path id="ei5gf0rref236" d="M28.500000,95.100000C29.400000,95.300000,29.400000,96.100000,29.500000,96.800000C29.500000,97.400000,29.600000,98.100000,29.600000,98.700000C29.600000,98.900000,29.700000,99.100000,29.900000,99.200000C32.200000,100.800000,34.500000,102.400000,36.800000,104C36.800000,104,36.900000,104,37,104.100000C38,100.700000,38.900000,97.300000,39.900000,93.900000C41.100000,94.500000,41.300000,95.600000,41.300000,96.700000C41.300000,97.200000,41.400000,97.600000,41.900000,97.800000C42.400000,98.100000,42.900000,98.500000,43.500000,98.900000C43.800000,99.100000,43.800000,99.300000,43.700000,99.600000C43.600000,99.800000,43.500000,100,43.400000,100.200000C42.800000,101.100000,42.500000,101.200000,41.700000,100.600000C41.600000,100.500000,41.400000,100.400000,41.200000,100.100000C41.100000,100.800000,41.100000,101.300000,41.100000,101.800000C41.100000,101.900000,41.300000,102,41.400000,102.100000C42.100000,102.600000,42.800000,103.100000,43.500000,103.500000C43.800000,103.700000,43.900000,104,43.700000,104.300000C43.600000,104.500000,43.500000,104.800000,43.300000,105C42.800000,105.700000,42.500000,105.800000,41.800000,105.200000C41.500000,105,41.200000,104.800000,41,104.500000C40.900000,104.600000,40.900000,104.600000,40.900000,104.700000C40.900000,105.300000,40.600000,106,40.800000,106.500000C41,107,41.700000,107.300000,42.200000,107.600000C43.600000,108.600000,45,109.600000,46.300000,110.700000C47,111.300000,47.500000,112.200000,47.600000,113.100000C47.900000,114.800000,46.700000,115.900000,44.900000,115.800000C43.600000,115.700000,42.500000,115.200000,41.500000,114.500000C40.200000,113.600000,38.900000,112.700000,37.700000,111.800000C37.400000,111.600000,37.200000,111.600000,36.900000,111.700000C36.500000,112,36,112.100000,35.400000,112.500000C35.800000,112.700000,36.200000,113,36.600000,113.200000C36.900000,113.400000,37,113.600000,36.800000,113.900000C36.700000,114.200000,36.600000,114.400000,36.400000,114.700000C35.900000,115.500000,35.600000,115.500000,34.900000,115C34.300000,114.600000,33.800000,114.200000,33.200000,113.800000C32.900000,113.600000,32.700000,113.600000,32.400000,113.700000C32.100000,113.900000,31.700000,114,31.200000,114.300000C31.600000,114.600000,32,114.700000,32.200000,115C32.300000,115.100000,32.500000,115.500000,32.400000,115.600000C32.100000,116.100000,31.800000,116.500000,31.500000,116.900000C31.400000,117,31,117,30.900000,116.900000C30.300000,116.600000,29.800000,116.200000,29.300000,115.800000C28.900000,115.500000,28.600000,115.500000,28.200000,115.700000C27.400000,116,26.500000,116.200000,25.700000,115.800000C25.500000,115.700000,25.200000,115.500000,25,115.400000C27.900000,113.300000,30.700000,111.200000,33.600000,109.100000C33.400000,109,33.300000,108.900000,33.200000,108.800000C31.100000,107.300000,28.900000,105.800000,26.800000,104.300000C26.500000,104.100000,26.300000,104,25.900000,104.100000C25.400000,104.300000,24.800000,104.400000,24.300000,104.600000C23.600000,104.800000,22.800000,105.100000,22.300000,104.300000C24.300000,101.100000,26.400000,98.100000,28.500000,95.100000Z" fill="url(#ei5gf0rref236-fill)" stroke="none" stroke-width="1"/></g></g></svg>