<?xml version="1.0" encoding="utf-8"?>
<!-- Generator: Adobe Illustrator 19.0.0, SVG Export Plug-In . SVG Version: 6.00 Build 0)  -->
<svg version="1.1" id="Layer_1" xmlns="http://www.w3.org/2000/svg" xmlns:xlink="http://www.w3.org/1999/xlink" x="0px" y="0px"
	 viewBox="0 0 2830 300" enable-background="new 0 0 2830 300" xml:space="preserve">
<g id="XMLID_2_">
	<path id="XMLID_3_" d="M1324.9,60.2c-0.1-0.1-0.6,0.2-0.4,0.4C1324.7,60.7,1325.1,60.4,1324.9,60.2z"/>
	<path id="XMLID_91_" d="M1324.9,62.9C1325.9,60.5,1323.8,61.6,1324.9,62.9L1324.9,62.9z"/>
	<path id="XMLID_92_" d="M1324.9,63.2c-0.4,0-0.3,0.5-0.4,0.8C1324.9,64,1324.9,63.5,1324.9,63.2z"/>
	<path id="XMLID_93_" d="M1322.7,174.4c0.1,0.1,0.6-0.2,0.4-0.4C1322.9,174,1322.5,174.2,1322.7,174.4z"/>
	<path id="XMLID_94_" d="M1296.9,176.7c-0.1-0.1-0.6,0.2-0.4,0.4C1296.7,177.2,1297.1,176.9,1296.9,176.7z"/>
	<path id="XMLID_95_" d="M1206.6,189.9c0.8-0.7,0.6-3.8,0-5.3c-0.4,1.5,0,3.8-1.1,4.5C1206.2,189.1,1206.2,189.7,1206.6,189.9z"/>
	<path id="XMLID_96_" d="M1205.8,203.8c0.2-0.8-0.2-2.1,0-2.8c0.8,0.2,0.9-0.7,0.4-0.8c-0.1,0.4-0.4,0.2-0.4,0
		c0.2-3,1.1-7.2,0.4-9.8c-0.3,2.4-0.5,4.8-0.4,7.6c-0.7,0.7,0,2.8-1.1,3c0.2,0,0.3,0,0.5,0.1c0.8,0.4,0,2.4,0.3,3.3
		C1205.6,204.2,1205.8,204,1205.8,203.8z"/>
	<path id="XMLID_97_" d="M1161.6,193.7c0.1-0.3-0.1-0.4-0.4-0.4C1161.1,193.7,1161.3,193.7,1161.6,193.7z"/>
	<path id="XMLID_98_" d="M1162.7,194.9c0.1-0.3-0.1-0.4-0.4-0.4C1162.2,194.8,1162.5,194.8,1162.7,194.9z"/>
	<path id="XMLID_108_" d="M1163.1,195.2c0.1-0.3-0.1-0.4-0.4-0.4C1162.6,195.2,1162.8,195.2,1163.1,195.2z"/>
	<path id="XMLID_109_" d="M1165.3,197.5c0.1-0.3-0.1-0.4-0.4-0.4C1164.9,197.4,1165.1,197.5,1165.3,197.5z"/>
	<path id="XMLID_110_" d="M1166.5,199c0.1-0.3-0.1-0.4-0.4-0.4C1166,199,1166.2,199,1166.5,199z"/>
	<path id="XMLID_112_" d="M1166.8,199.4c0.1-0.3-0.1-0.4-0.4-0.4C1166.4,199.3,1166.6,199.4,1166.8,199.4z"/>
	<path id="XMLID_113_" d="M1167.2,199.8c0.1-0.3-0.1-0.4-0.4-0.4C1166.8,199.7,1167,199.8,1167.2,199.8z"/>
	<path id="XMLID_114_" d="M1167.6,200.2c0.1-0.3-0.1-0.4-0.4-0.4C1167.2,200.1,1167.4,200.1,1167.6,200.2z"/>
	<path id="XMLID_115_" d="M1169.1,201.7c0.1-0.3-0.1-0.4-0.4-0.4C1168.7,201.6,1168.9,201.6,1169.1,201.7z"/>
	<path id="XMLID_116_" d="M1169.5,202c0.1-0.3-0.1-0.4-0.4-0.4C1169,202,1169.3,202,1169.5,202z"/>
	<path id="XMLID_117_" d="M1171.4,204.3c0.1-0.3-0.1-0.4-0.4-0.4C1170.9,204.3,1171.2,204.3,1171.4,204.3z"/>
	<path id="XMLID_118_" d="M1205.1,212.3v2.6c0-3,0.6-6.8,0.5-10.6c-1.1,1.5,0.7,5.9-1.4,6.4C1203.8,212,1205.1,211,1205.1,212.3z"/>
	<path id="XMLID_119_" d="M1205,216c-0.4-0.1-0.3-0.7-0.4-1.1C1203.6,214.8,1204.6,217.6,1205,216z"/>
	<path id="XMLID_120_" d="M1205.8,216c0.1,0.1,0.6-0.2,0.4-0.4C1206.1,215.6,1205.6,215.8,1205.8,216z"/>
	<path id="XMLID_169_" d="M1229.6,225.5c0.4-0.1,0.2-0.4,0-0.4C1229.2,225.2,1229.4,225.5,1229.6,225.5z"/>
	<path id="XMLID_170_" d="M1337.4,232.7c-0.6,0.3-0.8,1-0.8,1.9C1337.5,234.5,1337.5,233.6,1337.4,232.7z"/>
	<path id="XMLID_171_" d="M1339.7,245.9c0.1,0.1,0.6-0.2,0.4-0.4C1340,245.4,1339.5,245.7,1339.7,245.9z"/>
	<path id="XMLID_174_" d="M2827.1,203v-1h-3v-8h-3v-3.7l-6.1-4.3h-9.5h-7.8l-5.5,4.7v3.3h-3v8h-2v7h-1v6h-1l0,0h-3.3l-0.2,0.6
		l-1.6,0l0.6,15.4h-1.3l-1.9-61h-12.2v2h-2.6l-7-100.4l-4.5-1.6v-1h1v-1h-1l0,0h1v-1h-1v-1h1v-3h-1v2h-4.1l-5.1-16h-1.8v-5h2v-1h-2
		v-5h1v-1h-1v-6h1v-0.2v-0.3V25h-1v-4h0l-0.3-2.6l-0.3-5.1l-0.7-6l0.3,5.9v5.3V25h-1l0,0h1v5.3l-1,0.6V32h1v2.8v0.5V37l0,0v-1h-1v2
		h1v5h-1v1h1v5h-0.6l-0.5,2.2l-3.7,13.8h-3.5l-0.4,1h-1.2v0.2l1,0.3V67h-1v1h1.1l0,0.9l-1.5,0.5l0.5,0.4V70h-3.4l-1.6,118h-3.9v-2.3
		c-3-5.3-9.7-7.7-9.7-7.7h0.7v-1h-3v-2h-3v-1h-5v1h-2v2h-1v3h-2v4h1v2h-1v3h-4v-2h-3v-5h-1v-4h-2.3l-0.1-2.9l-14.6-8.3l-14,9.1v3.2
		h-3v3c0-1-1,0-1,0v6.2l-1.5,0.1l1,42.7h-1.5v-60.4l-1.3-2.6h-8.7v1.2c-21-0.2-35.3,2-35.3,2l0.9,34.8h-1.6v2h-1v3h-2v3h-1v5h-2v13
		h-3v2h-6v-4h-3l0,0h-1l0,0h-5v-1h-1v-1l0,0v1h-11l0,0h-1v4l0,0v1h-2v-1h-1v1h-1l0,0h-1v8h-1v-14h-6l0,0h-1v-1h-2v1h-1v-1h-2l0,0h-1
		v1h-1v1h-12v4h1v-1h1v1l0,0l0,0h-2v2h-6v1l0,0v1l0,0l0,0l0,0v1l0,0l0,0l0,0v1l0,0l0,0l0,0v1l0,0v1l0,0l0,0l0,0v1l0,0l0,0h-2v-3h-1
		v3h-1v10h1v5h-2v-9h-3v-5h-2v-7h-9v-3h-8v3h-5l0,0h1v1h-1v1h1l0,0h-1v1h1v1h-1l0,0h1v1l0,0l0,0l0,0v1l0,0l0,0l0,0v1l0,0v1l0,0l0,0
		l0,0v1h-2v3h-3v-4h-1v-20h-2v-8h-4v-4h-1v-2l-3.6-1.9l-18.9-0.3l-2.5,2v0.2h1v1h-1v1h-1v3h-1v3h-1.7l0.5,39h-2.9v-14h1v-12h-2v-4h1
		v-1h-7v1h-4v19h-3v2h-2v-21h-7v16h-3v3h-1.9l0,7.4l-3-6.4h-1.2l-2.9,5h-9v-7h-2v-24l0,0v-2h-1v-1h-4v1h-1l0,0h-1v-0.1l-0.7-1
		l0.7,27.1h0.1v-2h-2v2h-3v1h-3v-6h-11v5h-1v-16h-3v-1h-1v-3l0,0v2h-1v6h-1v2h-1v-2h-1v2h-10v5h-4v3h-2v4l0,0v2h-1v-14h-1v-5.2
		l-2.3-9.2l-0.6-7.8c0,0-0.4,7.9-0.4,8c0,0.1-2.1,9.3-2.1,9.3h-0.5v6l0,0v1.9l-0.6,0.1h-3.4v2h-1v-2h-1v-3h-1v2h-2v2l0,0v-3h-5v-1
		h-2v1h-3v2h-1v-2.4l-1.1-1l-0.9,0.9V229h-5v14h-2v-3h-6v-1l0,0v-13h-3.1l-0.7-2h-9.2v2h-9v6h-11.5h-0.5v-5l0,0v5h-2v1h-2v1h-2v-1
		l0,0v-3h-4v-14h-1v-8l0,0v-4h-1v-2.1V201h-1v-1h-1v-1h-1.1l-0.9-0.8v-2.2V194l0,0v-5h-1v-1.3v-0.4v-2l-0.4-0.2l-0.4-11.7l-0.4,9.7
		h-0.8v3h1v2h-1v0.9v0.1v5l0,0v2h-1v2l0,0v0.8l-0.5,0.2h-0.5v1h-1v1l0,0v1h-1v2h-1v3.3l-1,0.3v8.4l0,0v27h-2.4l-5.6,1.4v3.6h-1v-3
		h-5v-5l0,0v-45h-7.4l-0.1,36h-1.4v-1h-1v1c0,1-1,0-1,0v3h-1v2l0,0v6h-1v-3h-1v-4h-5v5h-2v-7h-2v-2h-2v1h-1v3h-1v1h-1v4h-1v-2h-5v-2
		h-16v-3h-4v-3h-2v-5h-5v-1h-2v1h-3v-1h-2v1l0,0v1h-2v1h-2v7h-1l-0.7-17.5l0.5-2.3l-1.6,1.8h-1.2v2h-0.6l-0.5-17.9l-1.2,18.9h-0.8
		v-1h-1.5l-6.5,6.1v8.9h-0.3l0.4-18h-4.8l-0.9,23h-2.4v2h-2v-5h-3v-6h-4v-5h-2.3l-0.6-19.6l-1.1,19.8V223l0,0v1h-1v5h-12v4h-1.8
		l-0.1-15.2c1.1-2.3-0.1-4-0.1-4v-9.5l-0.4,9.8h-3.2c-1.3,1-0.4,3.6-0.4,3.6v8.4h-7v-1h-2v1h-3v-1h-1l0,0h-1v1h-9v5h-1v-11h-1.6
		l-0.5-2h-3.9v13.8l-2-1.2V241h-2v2h-1v2h-1v-1h-1v-5h-0.8l-2.2-4.6v3.6h-3v-14h-1.5l-0.1,2h-0.4v-1h-3.5l-0.6-17.2l-0.5,17.2h-3.4
		v-1h-3v12h-1.6l0.1-31h-6.4v17.2l-2.4,2l-0.2-3.2l-3.1-1.2l0.3-41.5l-1.2,0l0.5-24.8l-1.1,0l0.1-15.6l-1.2,0l-2-20.9l-28.9-1.1
		l-10,1.8l-1.9,19.5h-0.6l0.1,1.6l-0.5-0.2L1997,154h-0.9v25h-2v24h-10v30h-1v-3h-6v-3h-2l0,0h-4v19h-12v-35h-3v-4h-4v-4h-11v3h-3v1
		h-4v4h-2.1l-0.2,5.7l-6.8-3.2l-0.8,8.1l-1.9-16.5l-2.6-0.2l-0.7-6.8l5.9-1.8l0.1-1.5l-6.6-0.1l-1.5-11.2l-9.2,5.2l-0.2,12.7
		l-1.2-0.2l0.5-20.3h-2.9v-3.9l-8-1.1h-7v-9h-1v-30.1l0.8-0.9h1.1l0.9-2h-2.8v-16.8V111h1v-1h-4v-1h-17.4l2-6.5l-0.4-0.2l-2.9,5.7
		h-0.3V71.7l-1.3-0.7h0.3v-1h-2v0.7c0,0,1-0.3,1.1-0.2s0.7,38.5,0.7,38.5h-0.9v2h1v7h-5v2h-3v9h1v5.3l-2.5,0.8l2.2,1.2l-1,38.7h-3.8
		v-2h-7v-1h-1v1h-1v-1h-1v1h-5v-1h-1v1h-2v-1l0,0v1h-3v-2h-1v2h-1v-2h-1v2h-1v-2h-8v1l0,0l0,0h-1l0,0h-1l0,0h-0.2l-0.1,1h-0.8v-1h-2
		v5h-4v6h-1v5h-1.4l-0.6,40h-2v-2h-3v-3h-4v-8h-2v-2h-8.7h-3l-0.4,0.7v4.3h-3v-1h-1v1h-1v5h-4v-3h-2.1l0.1-25.2l-31.6-0.7l-9.7,1.4
		l-0.1,13.5l-0.7,0.1l-0.8,31.8h-7.2v3h-9v8h-2v2h-3v-3h-1v-27h2v-18h-1v-22h2v-9h-2v-12h2v-6h-8v-1h-2l0,0h-2v1h-1v-1h-2v1h-1.2
		l-7.8,0.9V176h2v8h-1v5h-2v-2h-4v-2h-6v1.4l-2,0.5v2.1h-2v3h-2v2h-1v1h-1.1l-1.2,45h-3.7v-2h-7.1l1-56h-3.9v-3h-2v-2h-3l0,0h-2v-2
		h-6.8l-1.2,1.2v2.8h-1v2.3l-1,1v0.8h-4.1l-1.7,51h-5.3v-10h-14.2c-0.1-1-0.1,2-0.1,5.8c-0.5,0.1-1,0-1.3-0.1
		c-1.3-8.9-3.6-16.9-4.9-25.7c-48.3-0.9-98.2-0.1-147.1-0.4c-1.6,2.7-5.6,2.9-5.3,7.6c-3.4-0.8-3.6,1.7-5.7,2.4
		c0.3-2.9-0.4-5.5-0.4-7.5h-4.9c-1.4,0-0.3-2-1.5-2h-5.7c-1.1,1-0.7-0.7-0.8-1.4c-11.3-0.5-21.1,0.7-31.4,1.2
		c-2.4,0.9-3.2,3.3-5.3,4.6c-0.4,1.6-1.2,2.8-1.5,4.6c-0.1,2.1,0.7,3.4,0.4,5.7c-9-3.6-19.4-5.9-31.4-6.4c-1.5,0.1-1.7,1.4-2.6,2.1
		c0,6,0.6,11.6,0.4,17.6h-3.4c0.2-2-0.4-5.6,0.4-7.4c-1.6-1.7-4.2-2.3-7.2-2.6c-0.8-0.1-0.2,1.4-0.4,1.9c-0.7,0-0.8-0.4-1.5-0.4
		c-1,0.3,0.7,1.4-0.8,1.5c-1.8,0-0.1-1.7-0.4-2.6c-0.9-0.3-0.1-2.1-0.4-3c-1.3,2.7-2.5,5.6-3.8,8.3c-0.4-0.1-0.3-0.7-0.4-1.1
		c0.7-0.1,0.9-0.7,0.8-1.5c-1.1-0.4-0.7,0.8-0.8,1.5c0,0,0,0,0,0c-1,0.4,0,2,0,2.6c-1.6,2.4-2.5,5.6-3.8,8.3
		c-0.2,4.5,0.3,9.5,0,12.1c-0.8-0.1-0.4-1.4-1.1-1.5c-1.2,0.3-0.5-1.2-1.1-1.5c-0.6-2,1.6-1.2,1.1-3c-0.1-1.2-1.5-1-2.6-1.1
		c0.1-0.5,0.9-0.3,1.5-0.4c1.2-0.5-1.5-0.2-1.5-0.8c-0.4-2.1-1-4-0.8-6.8c-0.4-1.6-1.5-4.7,0.4-5.3c-0.1-0.4-0.7-0.3-1.1-0.4
		c0.3-0.7,1.1-0.3,0.4-1.1c0.3-0.3,0.4-0.9,0.4-1.5c-0.2-0.3-0.4-0.6-0.4-1.1c0.4-1.4-1.3-0.7-1.5-1.5c-0.6-1.7,0.3-2,0.4-3.8
		c-1.4,0-1.1-0.4-2.3,0c-0.6,1-0.9,2.6-0.4,3.8c-0.9,0.1-1.5-0.1-1.9-0.4c-0.8,1.7,0.8,5.2,0.4,6.4c0.3,1.3-0.7,0.6-1.1,0.4
		c0.4,2.4,0.2,3.6-1.8,4.2v-2.6c-3,0.3-3.5-1.1-4.6-2.3c-0.3-1.6,0.7-1.8,0.7-3c-0.7-1.4-1.6-2.5-2.7-3.4
		c0.2-10.1-0.5-21.1,0.4-30.6c-0.3-1.2,1.2-0.5,1.1-1.5c0-2.3,0.3-5.5-0.4-7.9c-0.3-1.3,1.4-0.6,1.5-1.5c-0.3-1.2-0.2-2.8-0.8-3.8
		c-0.5-0.5-0.8-0.1-1.9,0c0.1-1.2,1.9-0.6,1.9-1.9c0.6-1.5-1.6-0.1-1.5-1.1c-0.1-5.3-0.1-10.7-0.7-15.5c0.2-0.4,0.9-0.4,0.9-1.1
		v-4.9c0-1.7-0.9,0.3-0.9-0.8c0.4-5.7-0.4-11.4-0.4-17c0-2.6,0.6-5,0.4-7.6c-0.1-1.3-0.7-2.8-0.8-4.2c-0.7-8.3-0.1-16.3-1.5-23.4
		c1.7-2.5,0.3-6.2,1.5-8.7c0-1.4,0.5-1,1.5-0.8c-0.2-1.3,0.3-1.8,1.1-2.2c-0.3-1.6,0.6-2.3,0.4-3.3h2.3c-1.1-2-0.4-4.4,0.8-5.8
		c-0.1-0.9-1.3-1.4-1.5-2.7c-0.3-1.5,0.2-3.4,0.8-4.6c-0.6-1.3-0.9,0.8-1.9,0.4c0.2-1.7,1.3-2.5,2.3-3.4c-2.1-0.2,0.3-4-1.7-4.9
		c-1.6,0.4,0.7-1.9-1.3-0.8c0,0,0,0,0,0c0-0.1,0.1-0.2,0-0.2v-0.5c0,0,0,0,0-0.1c0.1,0.1,0.2,0.2,0.3,0.1c0,0,0,0,0,0
		c1.1-0.2,0.8-2.4-0.4-2.3c0.4-0.6,1.2-0.8,1.2-1.9c-1.4-0.8-1.7,0.2-2.6,0.8c-0.4,1.4,1.8,0.2,1.1,1.9c-0.9,0.6-2.7,0.4-3.4,1.1
		c-0.7-2-0.4-4.9-0.8-7.2c-0.7-0.8-1.4-0.6-0.8-1.9c-0.9-1.1-1.8-1.3-2.6-1.5c-1.1-0.5-2.3-1-3-1.9c0,0,0,0,0,0c0,0,0,0,0,0
		c0,0,0,0,0,0c0,0,0,0,0,0c-0.2,0.1-0.2,0.2-0.1,0.2c-0.1,0-0.2-0.1,0.1-0.3c-0.4-1.8,1.1-2.2,1.1-3v-3.8c2,1.7,0.6,5.1,2.7,7.2
		c2-1.3-0.6-3.4,0-5.7c-0.3-1.7,2.9,0.1,2.7-1.5c0.1-1.7-1.2-2.1-2.6-2.3c0.8-1.5-0.6-0.6-0.4-2.3c0.3-1.3-0.6-1.5-0.4-2.6
		c-0.2-1.6-1.6-2.2-1.5-4.2c1.2-0.5-0.4-1.4,0.5-1.9c2.1,0.3,3-0.5,5-0.4v2.3c1-0.4,0.5-2.6,1-3.8c-1.3-0.5-3,1.5-5.7,0.8
		c-0.4-1-0.9-1.7-0.8-3.3c0.6-0.7,2.2-1.2,1.9-2.2h1.5c0.4-1,1.4-1.5,1.9-2.4c0-1.3,2.3-0.3,2.3-1.6c0-0.8-1.6-0.2-2.3-0.4
		c1.1-0.8,3-0.8,3.4-2.3c-3.7-0.1-5.8,1.1-8.3,0.4c-1.1,0.3-0.9,1.8-1.5,2.6c-2.4-0.8-0.9,2.4-3,1.9c-0.8-2.5,1.8-1.7,1.5-3.8
		c-0.3-0.3-0.4-0.9-0.4-1.5c-1.2-0.4-1.9-1.3-3-0.8c-0.7,0.3-0.6,1.4-1.5,1.5c0.3,1.5,1.4,2.1,1.5,3.8c-1.2,0.1-1.3-1-2.6-0.8
		c-0.2-1-0.5-1.7-1.1-2.3c-0.2-2.1-0.9-3.6-0.8-6.1c1-1,3.7-2,2.3-4.2c-0.2-0.8-2.3-0.4-2.6,0c-1.7-0.5-0.7,1.5-2.1,1.1
		c0.4,1,0.6,2.2,1.6,2.6v5.3c0,1.7,1.4,2.2,1.4,4.2c-1.3-0.9-1.5-2.8-2.7-3.8c-0.9-1.5-2.5-2.3-3.4-3.8c-3.9-2.4-7.8-4.9-11-7.9
		c-0.9,0.7-0.3,3,0.7,3c0.1,0.9-1.7-0.2-1.1,1.1c0.9,1.8,0.9,4.4,3.4,4.5c0,0.9-0.7,1.2,0,1.9c0.9,0.9,2,1.6,3.8,1.5
		c-0.3,1.3,0.6,1.5,0.4,2.6c0.6,0.7,1.7,1,2.6,1.5c0,1.4,1.1,1.7,2.6,1.5c-0.5,0.6-1.2,1.5-0.4,2.3c0.2,0.4,0.9,0.4,0.8,1.1
		c0.1,0.5,1.1,0.5,1.1,0c0.5,0.1,0.3,0.9,0.4,1.5c1.1-0.4,1.6-0.4,1.5,1.1c1-0.1,2.1-0.2,2.6-0.8c1,0.7-1,1.8-1.1,2.6
		c-0.3,1.6,0.7,1.8,0.8,3c-1.1,0.1-0.7,1.8-1.5,2.3c0.6,1.2,0.1,1.7,0,3c0,1.1-0.1,2.1-1.5,1.9c0.2-0.4,0.9-0.4,0.8-1.1
		c-1.8-0.2-1,2.1-0.8,3c1.2,0.5,1.7,1.5,3.4,1.5c-0.1,0.9,0.1,1.5,0.4,1.9c-0.1,1.2,2.1,0.2,1.5,1.9c0.2,0.8,1.1,1.2,0.4,1.9
		c-0.5,0.7-1.1,1.5-2.6,1.1c-0.8,0.6-1.1,1.9-2.5,1.9c0.2,1.2,0.1,1.9-0.9,2.3v6.4c0,1.2,1.1,1.5-0.2,1.9c-0.2-0.5-0.2,0-0.7,0
		c0.1-0.7-0.3-1-0.3-0.6c-0.3,0-0.3,0-0.3-0.6c0.8-0.1,1,0.3,1.5,0.4c-0.1-1.8-3.5-0.3-3.4-2.2c0.3,0.1,0.4-0.1,0.4-0.4
		c0-0.6-0.3-1-0.8-1.1c-0.2,0.2-0.3,0.4-0.3,0.6c0-0.2,0.1-0.4,0.3-0.6c0.5,0.2,0.8,0.5,0.8,1.1c1.7,0-0.1-1.5-0.4-1.9
		c-2.5,0.5-0.3,1.8-1.1,3.4c0.8-0.1,1.1,0,1.1,0.3c0-0.3-0.2-0.5-1.1-0.3c-0.6,0.1-1-0.6-1.2,0c0.1,0.7-0.3,1.9,0.7,1.5v0.4
		c0,0,0.5,0.2,0.6,0.4h0c-0.1-0.2-0.6-0.3-0.6-0.4V64l0,0v-0.4c-1-0.1-0.4,2.4-0.7,3.4c0.3,1.2-0.3,1.4-0.7,1.9
		c0.1,1.8,2.4,1.4,1.9,3.8c-0.7,0.7-0.7-0.2-1.9,0c-0.7,1.4,1.9,1.3,0.8,1.9c-0.3,3,0,4.2-1.1,6.1c0.3,1.8,2,3,1.1,4.2
		c0.3,1,1.3-0.7,1.9,0.4c0.2,1.2,0.3,2.5,0.8,3.4c0.2,0.6,1.2,0.3,0.8,1.5c0.7,0.5,1.5,0.7,1.9,1.5c0.5,2.1-0.1,2.9,0,5.3
		c-0.2,1.4,0.8,1.5,0.8,2.6c-0.5,8.7-1.1,17.3-1.1,26.5c0.2,0.8-0.7,0.5-0.8,1.1c0.3,9.3,0.6,19.4-0.8,28c-0.2,1,1.1,2.4,0,3
		c0.2,0.4,0.9,0.4,0.8,1.1c-0.6,4.7,0,10.5-0.8,15.1c0.2,1.6-1-0.3-1.5,0.8c-1,0.3,1,0.7,0.4,1.9c-1,0.8-0.9,2.6-1.1,4.2
		c-0.3,1.4,1.8,0.4,1.5,1.9c-0.4,1.3-0.6,4.1-0.6,6.8c0.1,1.1,1.7,1.4,1.7,1.9v31c1,1.3-1.3,0.5-0.9,1.9c-0.9,0.1-0.7,1.2-1.4,1.5
		c-0.2,1.5,1.1,1.5,0.8,3c0.3,1.3-1.3,0.6-1.4,1.5c-0.7,0.3-1.1,1.1-2.1,0.8v4.5c-2-0.1-2-3.5-3.5-1.5c-0.8-0.4,0.6-2.2-0.8-2.6
		c-0.1-1.5,1.6-1.2,1.5-2.6c0.3-2.6-0.5-4-0.8-6.1c-0.5-1-1.1-1.9-1.9-2.6c1.2-0.9-0.5-2-1.9-1.5c-1,0.5-0.1,2.3,0,3
		c-1,1.1-2,2.3-2.6,3.8c0.6,4-0.4,8.8,0.4,13.2c0.4,1.1-0.8,0.7-1.5,0.8c0.1,0.9,1,1.8-0.8,1.5c0.9,1,0.6,0.9-0.4,1.5
		c-0.5,1.9,0.8,2,0.8,3.4c-0.1,2.1-2,2.4-2.3,4.4c-0.8-0.2-0.7,0.3-0.8,1.3h-3.8c0.9,4,2.5,8.1,3.8,12.3c0.5,1.2-1.2,0.2-0.8,1.4
		c0.2,0.8-0.3,1-0.4,1.5c-0.4,4.7,0.5,10.2-0.4,15.1c0.4,1.5,0.5,3.2,1.1,4.5c-1.3,0.2-1.5,1.5-3,1.5c-0.5,1.7,1,1.5,0.8,3
		c-1.9,0.2-3.2,1.1-3.4,3c-1.1-0.5-0.7-2.6-1.9-3c0.7-0.6,1.8-0.7,1.5-2.3c0.3-2-1.5-2-1.9-3.4c-0.3-1.6-0.1-2.4-0.4-4.5
		c-0.3-0.6-0.6,0.1-1.5-0.4c1.1-1.4-0.7-2.1,0-3c-1.1-1.7-2.9-2.7-4.5-3.8c-0.5-1.5,0.7-1.3,1.1-1.9c-0.3-0.3-0.6-1,0-1.1
		c-0.4-1.4-2.1-1.7-4.2-1.5c-0.5,2.5,0.7,3.4,0.8,5.3c-1.6-0.3-3.1-0.7-4.5-1.1c-0.7-1-1.3-2-2.3-2.6c-0.1-0.9,0.1-1.5,0.4-1.9
		c0.1-0.8-0.1-1.2-0.8-1.1c0.1-0.7,0.7-0.9,1.5-0.8c-0.1-0.9-1.8-0.2-1.5-1.5c1.8-0.2-0.5-0.1,0-1.1c-1.7,0.6-1,1.8-0.4,3
		c-1.2,0.2-1-1-1.9-1.1c-0.2,1.3,0.9,1.3,1.5,1.9c-0.2,0.5,0.4,2-0.4,1.9c1,0.5,0.9,2.1,1.5,3c0.8,1.4,2.3,2.2,3.8,3
		c0.2,1.6,1.3,2.2,1.5,3.8c-0.3,1.2-1.8,1.3-1.9,2.6c-2.3-0.1-3.3,1.3-5.3,1.5c-1,0.5,0.6,3.6-1.9,2.6c-1.5,0.2-0.4-2.1-0.8-3
		c-0.7-1.6-2-2.5-3-3.8c-5.4,0.3-10.1-0.4-15.1-0.4v-4.2c0-0.9-2.2-0.1-3.1-0.4c0.1-13.6,1.2-27.7,1.3-40.8c0,0-0.1-0.1-0.1-0.1
		c0,0-0.1-0.1-0.1-0.1c0.1,0.1,0,0.2,0,0.3v-0.8c1-1.2,0.2-3.2,0.4-4.5c-0.7,0.1-0.3-0.7-0.9-1.5c0.1-1.1-0.6-1.3-1-1.9
		c-0.2,0-0.4-0.3,0-0.4c-0.6-1.8-1.8-3-2.6-4.5c-0.7-0.8-1-2-2.6-1.9c-0.2-0.8,0.7-0.4,0.8-1c-3.1-1.3-7-0.7-10.6-0.7h-33.3
		c-0.9,0-0.1,3-0.4,4h-4.9c0.2,4-0.1,7-0.4,10h-8.7c0.1-9,1-17.5,1.1-26.6c0.4,1.2,2.1,0.6,3.5,0.7c0.1-0.4,0.6-0.7-0.4-0.8v0
		c0,0-0.3-0.1-0.2-0.4c-0.2-0.9-0.4-1.8-1.4-1.9c-0.2,0-0.4-0.1-0.3-0.4c-0.2,0-0.4,0-0.4-0.4c-0.2,0-0.4-0.3-0.4-0.3h0
		c0,0,0.2,0.3,0.4,0.3c0.1-0.3-0.3-0.4-0.5-0.4c0,0-0.1,0-0.1,0c0,0,0,0,0,0c0,0,0.2,0,0.2,0c0,0,0,0,0,0c-0.2,0-0.3-0.7-0.7-0.8
		c-0.1,0.3-0.3,0.4-0.6,0.4c0.3,0,0.5-0.1,0.6-0.4c-0.2,0-0.4-0.1-0.4-0.4c-0.2,0-0.4-0.1-0.4-0.4c-0.2,0-0.4-0.1-0.4-0.4
		c-0.2,0-0.4-0.1-0.4-0.4c0-0.6-0.3-1-0.8-1.1c0,0.4,0.1,0.6,0.3,0.8c-0.2-0.2-0.3-0.5-0.3-0.9c-0.2,0-0.4-0.4-0.4-0.4h-2.3
		c0,0-0.1,0.2-0.1,0.3c0-0.1,0-0.2,0.1-0.3h2.3c-0.2,0-0.3-0.6-0.8-0.7c0-0.3-0.2-0.3-0.4-0.3c-0.1,0.3,0.1,0.3,0.3,0.4c0,0,0,0,0,0
		c-0.2,0-0.4-0.1-0.3-0.4c-0.2-0.3-0.3-0.7-0.8-0.8c0,0.1-0.1,0.2-0.1,0.2c0.1-0.1,0.1-0.1,0.1-0.2c-0.2,0-0.4-0.1-0.4-0.4
		c-0.2,0-0.4-0.1-0.4-0.4c-0.2-0.3-0.3-0.7-0.8-0.8c-0.2,0-0.4-0.1-0.4-0.4c0.1-0.4-0.1-0.7-0.4-0.8c0,0.3,0,0.5,0.2,0.7
		c-0.2-0.1-0.2-0.3-0.2-0.7c-1.2-0.1-3.5-1-4.5,0c0,0.2-0.1,0.3,0,0.4c0-0.1,0-0.2,0-0.4c1-1,3.3-0.1,4.5,0c-0.5-0.9,0-0.7-0.4-1.9
		c-0.5,2.1-4.5,0.8-6.8,1.1c1.2-7,1.6-14.8,2.6-21.9c-1.7-1.9-4.1-2.9-6.4-4.2c0.5-6.1,1.5-11.6,1.9-17.8c2.4-0.3,3.7,0.6,6.1,0.4
		c1-0.8-1.2-1.6-1.1-2.6c-0.9-0.6-1.4-1.7-2.3-2.3c-1.5-1.5-3.1-3-4.9-4.2c0.5-1.9,0.8-4,0.8-6.4c-1.4-1.9-3.1-3.5-5.3-4.5
		c-1.7-1.6-3.9-2.7-6.1-3.8c-4.1-2.3-9-4-13.6-5.9c-9.9-2.9-20.5-4.6-32.1-6.6h-3c-1.1,1-1,0-1.9,0h-17.4c-1.1,0-1,0.5-1.9,0.4
		c-18.1,0.7-39.5,0.7-58.4,0.6l0.6,81.7c-0.9,0.1-1.9,0.4-2.8,0.2c0.2-1.6,0.5-3.2-1.2-3.1c-1.7,0-3.5-0.1-5.2,0.2
		c-0.9,0.1-1.8-0.3-2.6,0c-1.1,0.3-2.3,0.2-3.4,0.2c-0.8,0-1.4,0.6-2.2,0.5c-0.5-0.1-0.9,0.4-1.4,0.6c0,0.5,0,0.9,0,1.4
		c0.2,0.4,0.5,0.8,0.6,1.3c-1.1,0-2.2-0.1-3.3,0.2c0.1,0.5,0.2,0.9,0.5,1.4c-0.4,0.7-0.8,0.6,0.3,1.5c-0.4,0-0.9,0.1-1.3,0
		c0.5,0.4,0.9,0.8,1.5,1.2c-0.3,0.2-0.6,0.4-0.9,0.6c0.3,0.3,0.5,0.6,0.8,0.8c-0.2,0.1-0.4,0.2-0.6,0.4c0.5,0.6-0.1,1.3,0.3,2
		c-0.1,0.2-0.3,0.4-0.4,0.6c0.2,0.2,0.5,0.5,0.7,0.7c-0.2,0.2-0.4,0.4-0.6,0.6c0.2,0.2,0.4,0.5,0.7,0.7c-0.2,0.2-0.5,0.3-0.7,0.5
		c0.2,0.4,0.5,0.6,0.8,0.7c-0.3,0.2-0.6,0.4-0.9,0.5c0.2,0.3,0.3,0.6,0.5,0.9c-0.3,0-0.6-0.1-0.9-0.2c0.2,0.3,0.4,0.6,0.7,1
		c0.6,0.1,1.2,0.3,1.8,0.4c-0.1,0.2-0.1,0.4-0.2,0.6c-0.4-0.3-0.9-0.4-1.4-0.4c-0.1,0.3-0.1,0.5-0.2,0.8c0,0-12-0.1-14.4,0
		c0.3-0.6,0-1.2-0.5-1.7c-0.2,0-5.8,0-6.1,0c0.1,0.5,0.2,1,0.3,1.6c-0.4-0.3-0.7-1.1-1.4-0.9c-0.9,0.2-1.9-0.2-2.8-0.1
		c-4.8,0.5-5.3-0.2-6.4,1c0,0-4.8,0-6.9-0.1c-1.1,0.1-2.1,0.4-3.2,0.2c-1-0.2-2,0.1-2.9-0.3c-0.9-0.3-0.8,0.1-5.9,0.2
		c-7.3,0-5.3,0.2-7.2-0.7c0-0.4,0-0.8,0.1-1.2c-0.7-0.4-1.5-0.2-2.3-0.2c-0.3-0.4-0.2-1-0.3-1.4c-1.3-0.6-2.7,0.1-4,0
		c-1,0.1-1.9-0.2-2.8-0.4c-0.9,0.1-1.7,0.4-2.5,0.4c-0.7,0-1.2,0.6-1.8,0.7c0,0.2,0.3,9.4,0.2,9.6c0.1,0.2,0.4,0.4,0.3,0.7
		c-0.5,4-0.4,3-3.1,2.4c0.3,0.1,0.5,0.3,0.8,0.4c-0.3,0.5-0.8,1.6-1.6,0.9c-0.3,0.1-0.5,0.2-0.7,0.3c-0.3-0.1-0.5-0.3-0.8-0.4
		c0.4-2,0-2.2-0.1-8.8c-0.4-0.1-0.8-0.3-1.2-0.2c-1.3,0.3-2.6,0.1-3.8,0.2c-0.9,0.1-1.4-0.7-2-1.2c-0.8-0.1-1.9-0.3-2.3,0.5
		c-0.9,0.1-1.8,0-2.8,0.1c-0.2,0.2-0.3,0.5-0.4,0.8c-1.1,0-2.2,0-3.3,0c0.1,0.6,0.4,4.7,0.2,5.7c-3.3-1.2-0.8,0.3-4.5,0.4
		c-0.4,0-0.8,0.1-1-0.3c-0.3-2.5-0.8-31.2-1.1-32.4c-7.4-0.1-3.5-0.2-6.3-0.6c-1.2,0.2-2.3,0.5-3.5,0.5c-0.3-0.1-0.3-0.5-0.4-0.8
		c-0.5-0.1-1.1-0.2-1.6-0.1c-1.4,0.2-8.1,0.1-8.3,0.1c0,0.3,0,0.5,0,0.8c-0.3-0.1-0.7-0.1-0.9-0.3c-0.8-0.7-1.9,0.1-2.8,0.2
		c-0.2,0-4.5,1-6.5,0.9c-0.8,1.8,1.1,19.4,0.8,30.1c-0.5,0.1-0.9,0.2-1.3,0.2c-1.6-3.7-0.8-32.6-2.1-35.3c-2.2-0.1-4.5-0.1-6.7-0.1
		c-0.8-0.1-1.4,0.6-2.2,0.4c0-0.4,0-0.7,0-1.1c0.7-0.2,1.4-0.1,2-0.4c-0.5-3.2,0.1-3.9-0.7-4.8c-0.7,0.2-1.5,0.2-2.3,0.2
		c0-0.2,0-0.5,0-0.7c0.2,0,0.4,0,0.7,0c-0.9-1-0.7-0.4-0.6-2.2c-0.4-0.4-0.6-0.9-0.8-1.4c-0.5-0.4-0.9,0.1-1.2,0.4
		c-0.9,0.1-1.6-0.7-2.4-0.6c-0.6-0.1-1,0.3-1.5,0.5c-0.4-0.1-0.8-0.5-1.2-0.4c-1.2,0.2-2.3,0.7-3.5,0.5c-0.8-0.1-1.4,0.7-2,1
		c0,1-0.1,2.1-0.1,3.1c-0.9,0.1-1.7,0.3-2.6,0.5c-0.2,1.2,0.1,2.3,0.1,3.5c0,0.3-0.1,0.9,0.4,1c0.6,0.1,1.1,0.1,1.7,0.3
		c-0.1,0.1-0.2,0.3-0.3,0.4c0.1,0.1,0.3,0.3,0.4,0.4c-0.2,0.2-0.4,0.5-0.7,0.6c-0.5,0-0.9-0.3-1.3-0.3c-0.9-0.2-1.8-0.2-2.7-0.5
		c-0.4-0.2-0.8,0.1-1.2,0.1c-0.5,0-1,0-1.5,0c0.5,0.1,1.2-0.1,1.5,0.4c-2.2-0.2-4.5,0.3-6.7,0.3c-0.8,0-1.5,0.2-2.2,0.5
		c0.1-0.4,0.3-0.7,0.6-0.9c-0.7,0.3-1.5,0.4-2.3,0.5c0,0.2,0,0.4,0,0.6c-0.4-0.1-0.8-0.2-1.1-0.3c-0.7,0.9-1.8,0.6-2.7,1
		c0,0.7,0.3,1.4,0,2.1c-0.4,0.4-0.9,0.6-1.4,0.8c0,0.7,0.5,1.5-0.2,2.1c-0.6,0.5-1.3,0.7-2,0.7c0-0.8,0.1-1.7-0.5-2.4
		c0.1-0.3,0.3-0.5,0.4-0.8c-0.3-0.3-0.6-0.5-0.9-0.8c0.1-0.2,0.2-0.4,0.4-0.5c-0.2-0.2-0.3-0.5-0.4-0.7c0.5-0.7-0.1-1.6,0.3-2.3
		c-0.8-0.9-2-0.6-3.1-0.5c0-0.4,0-0.8,0-1.2c-1.1-0.9-2.6-0.4-3.8-0.1c-0.1-0.3-0.3-0.6-0.4-0.9c-0.9,0-1.9,0.2-2.8,0
		c-0.6-25.6-1.1-24.1-0.4-25.2c-1.1-0.4-11.9-2.7-13.1-2.6c-1.6,3.4-2.8,11.5-3.2,12.5c-2.5,27.3,2.7,18.9-5.4,21.5
		c0,0.8,0,1.6,0,2.5c-0.7,0.2-1.5,0.3-2.2,0.6c0,0.3,0.3,15.3,0.3,15.3c-0.6,0-1.1-0.1-1.7-0.2c0.1-0.3,0.3-0.5,0.4-0.8
		c-0.2-0.2-0.4-0.4-0.6-0.7c0.1-0.3,0.4-0.4,0.6-0.6c-0.2-0.3-0.5-0.6-0.7-0.8c0.1-0.2,0.3-0.5,0.5-0.7c-0.2-0.3-0.5-0.6-0.7-0.8
		c0.2-0.2,0.4-0.4,0.7-0.6c-0.2-0.3-0.5-0.5-0.7-0.8c0.2-0.2,0.3-0.4,0.5-0.7c-0.2-0.2-0.3-0.4-0.5-0.7c0.1-0.3,0.3-0.5,0.4-0.8
		c-0.1-0.2-0.3-0.4-0.4-0.7c0-0.3,0.3-0.6,0.5-0.8c-0.3-0.2-0.5-0.4-0.7-0.7c0.2-0.2,0.4-0.4,0.7-0.6c-0.2-0.3-0.4-0.5-0.6-0.8
		c0.2-0.3,0.4-0.5,0.6-0.7c-0.2-0.2-0.4-0.5-0.6-0.7c0.2-0.2,0.4-0.5,0.6-0.7c-0.2-0.2-0.4-0.5-0.6-0.7c0.2-0.2,0.4-0.5,0.5-0.7
		c-0.2-0.3-0.5-0.6-0.7-0.8c0.2-0.2,0.5-0.4,0.7-0.6c-0.2-0.2-0.5-0.4-0.7-0.6c0.1-0.3,0.3-0.6,0.5-0.8c-0.1-0.3-0.2-0.5-0.2-0.8
		c0.1-0.2,0.2-0.4,0.3-0.6c-0.2-0.3-0.4-0.6-0.5-0.8c0.2-0.2,0.4-0.4,0.6-0.6c-0.2-0.3-0.4-0.5-0.6-0.8c0.3-0.1,0.5-0.2,0.8-0.3
		c-0.2-0.5-0.6-0.9-1-1.2c0.2-0.2,0.5-0.4,0.7-0.6c-0.2-0.3-0.5-0.6-0.7-0.8c0.2-0.2,0.4-0.4,0.7-0.6c-0.7-1.3-0.4,0-0.1-2.4
		c-0.2,0.1-0.4,0.1-0.7,0.2c0.5-0.5,0.9-1.2,1.7-1.3c0.1-0.1,0.1-0.3,0.2-0.4c-0.7-0.1-1.2-0.6-1.6-1.2c0.1-0.2,0.3-0.4,0.4-0.7
		c-0.1-0.3-0.5-0.5-0.6-0.8c0.2-0.2,0.4-0.4,0.6-0.6c-0.2-0.2-0.4-0.4-0.6-0.7c0-0.4,0.4-0.4,0.7-0.7c-0.3-0.4-0.7-0.7-1-1
		c0.3-0.2,0.6-0.4,0.9-0.6c-0.3-0.2-0.5-0.5-0.7-0.7c0.2-0.3,0.5-0.5,0.6-0.8c-0.2-0.3-0.4-0.5-0.6-0.7c0.2-0.3,0.4-0.5,0.7-0.8
		c-0.2-0.3-0.5-0.6-0.7-0.8c0.2-0.3,0.4-0.5,0.6-0.8c-0.2-0.2-0.5-0.4-0.6-0.7c0-0.4,0.2-0.7,0.4-1.1c-0.5-0.1-1.1-0.2-1.6-0.2
		c0.1-1.1-0.3-2.3,0.4-3.3c-2.5-0.6-1.8-1-3.5-0.7c-0.5,0.6-1.3,0.3-2,0.4c-0.2-0.6-0.2-1.2-0.3-1.8c-0.6-0.5-1.5,0-2.2,0.1
		c-0.7-0.2-1.1-0.7-1.8-1c-0.4,0-0.8,0.1-1.2,0.2c-0.5,0-0.6,0.7-1,0.9c-0.2,0.1-2.7,2-5.1,1.3c-2.6-0.1-5.3-0.3-7.8,0.6
		c0,0.6,0,1.2,0,1.9c0.4,0,0.8-0.1,1.2,0.2c-2.5,0.2-3-0.8-3.9,0.7c0.1,1.2,0.2,2.5-0.5,3.5c-0.2,0.3-0.4,0.8-0.8,0.9
		c-0.5,0.1-1,0.4-1.2,0.9c0.1,1.3,0.2,2.6,0,3.8c-0.3,0.3-0.6,0.6-0.8,1c0.1,0.2,0.3,0.5,0.5,0.7c-0.5,0.8-0.5,1.7-0.5,2.5
		c0.3,0.1,0.6,0.3,1,0.4c-0.3,0.2-0.6,0.3-0.8,0.5c0,0.9-0.1,1.7,0.1,2.6c-1.5,0.1-3,0.2-4.5,0c0.1-1.2,0.2-5.6-0.7-6.7
		c-0.4-1.3-0.1-2.7-0.2-4c-0.3-0.5-0.9-0.7-1.4-0.8c-0.2-0.5-0.2-1.1-0.1-1.7c0.1-1-0.1-1.9-0.2-2.8c-0.5-0.1-0.9-0.2-1.4-0.3
		c0-1.5,0.1-3-0.3-4.5c-0.4-0.1-0.9-0.2-1.3-0.4c0-0.3,0-0.6,0.1-0.9c-0.8-0.3-1.6-0.6-2.4-0.5c-1.6,0.2-5-0.2-6.4,0.8
		c-0.2,0.4-0.3,0.8-0.6,1.1c-0.8,0.5-1.6-0.2-2.4-0.4c0.1-0.3,0.1-0.6,0.2-0.9c-1.1-0.5-2.4-0.3-3.6-0.4c-0.7-0.1-1.4,0.2-2.1,0.2
		c-0.8-0.5-1.7-0.8-2.4-1.4c0.1-0.1,0.3-0.3,0.4-0.4c-0.2-0.2-0.4-0.5-0.7-0.7c0.1-0.9-0.1-1.8-0.1-2.7c0-0.4-0.3-0.8-0.7-0.8
		c-0.5-0.1-1-0.3-1.4-0.5c0-1,0-1.9,0-2.9c-0.2-2.2-1.4-1.5-1.7-1.4c-0.5,0.2-1,0.1-1.5,0c-1.4-0.3-2.8-0.3-4.1-0.1
		c-0.8,0.5-1.7,0.2-2.5,0.4c-0.3,0.6-0.4,1.3-1.1,1.6c-0.1-0.2-0.2-0.3-0.3-0.5c-0.3-2.8-0.1-5.6-0.2-8.3c-1.9-0.7-6.7-0.5-8.6-1.3
		c-2-0.9-4.4-0.6-6.2,0.5c-3,3.2-2.3,3.9-2.6,6c-0.2,0.6-0.6,1.1-0.9,1.7c0.6,0,1.2,0.1,1.6,0.6c-1.5,0.8-3.1,1.6-4.8,1.9
		c-0.5,1.3-1.8,2.2-2.9,3c0.3,0.4,0,0.9-0.1,1.3c-0.3-0.3-0.5-0.6-0.7-0.9c-1,0.1-1.9,0.3-2.9,0.2c-0.7-0.1-0.9,0.7-1.5,0.8
		c-0.6,0.1-1,0.4-1.5,0.7c-0.8,0.1-1.4-0.4-2.1-0.6c-0.1,0.4-0.1,0.8-0.2,1.1c-1.3-0.5-2.2-1.7-3.4-2.4c-0.3-0.1-0.7,0-1,0
		c-0.3,4,0.3,9.9,0.1,12.6c-0.1,0.2-0.4,0.2-0.6,0.2c-0.1-0.3-0.2-0.6-0.3-0.8c-0.8,0.4-1.7,0.7-2.5,1.1c-0.1,1,0,1.9,0.1,2.8
		c-0.5,0.9-0.3,2-0.1,3c-1.1,0.5-2.4,0.5-3.6,0.9c-0.3-0.7-0.6-1.4-0.7-2.1c0.6,0,1.2,0,1.8-0.1c-0.2-0.6-1-0.5-1.5-0.7
		c-0.2-0.3-0.3-0.5-0.5-0.7c0.2-0.2,0.5-0.5,0.8-0.7c-0.2-0.3-0.4-0.5-0.6-0.8c0.4-0.4,0.4-1,0.3-1.5c0.6,0,1.2,0,1.8-0.2
		c-0.4-0.6-1.2-0.5-1.8-0.7c0.6-1.4,0.6-0.9,0-2.1c0.3-0.2,0.5-0.4,0.8-0.6c0-0.5,0.1-1.1-0.2-1.6c-0.7-0.5-1.2-1.3-2.1-1.5
		c-0.6-2.8-0.5,1.5-0.2-5.4c-0.7-0.2-1.4-0.5-2-0.8c-1.8,1.2-2,0.2-4.2,0.6c-2-0.4-1.5,0.1-7.2,0c-0.1-0.1-0.2-0.2-0.2-0.3
		c-0.9,0.1-1.8,0.1-2.7,0.1c0.1-1.6-0.3-3.3,0.3-4.9c0.4-0.9-0.4-1.8-0.3-2.7c0.1-4.5-0.2-3.5-0.4-10.1c-1.3,0-2.6,0-3.9,0
		c0-0.1,0.1-0.3,0.1-0.4c-0.5,0-0.9,0-1.4,0c-0.1-0.3-0.2-0.5-0.4-0.8c-0.1,0-0.3-0.1-0.4-0.1c0.4-0.4,0.4-0.8-0.1-1.1
		c-0.3,0.3-0.5,0.7-0.9,0.7c-0.8,0.2-1.6-0.3-2.3,0.2c-0.1-0.2-0.5-13.5-0.4-15.1c-0.2-0.1-0.3-0.3-0.4-0.4
		c-0.3,0.1-0.6,0.3-0.8,0.4c-0.2-1.2,0.1-2.5-0.2-3.6c-1.5-0.1-0.3,1.8-0.7,4.4c-0.1,1,0.2,1.9,0.2,2.9c0.2,4.3,0,3.3,0.1,10.4
		c-0.3,0-0.5,0.1-0.8,0.1c-0.1,0.3-0.1,0.7-0.3,1c-0.5,0.1-0.4-0.6-0.5-0.9c-2.4,0.4-1,1.2-3.7,0c-0.4,0.6-0.7,1.2-0.8,1.9
		c-1.3,1.3-2.3-0.8-5.2,0.5c0.2,0.1,0.5,0.3,0.7,0.4c-0.3,0.4-0.6,0.8-0.8,1.2c-0.2,0-0.4,0.1-0.6,0.1c-0.4,1.9,0.9,0.7-0.1,2.3
		c0.1,0.8,0.2,5.8,0.3,6.4c0.5,2.9-0.5,5.9,0.7,6.5c-0.5,1-0.3,2.2,0,3.2c-2.2,0.4-0.2-0.4-3,1.3c0,0.3-0.1,0.5-0.1,0.8
		c-10.6,0.2-4.9-0.2-9.3-0.3c-0.2-0.3-0.4-0.6-0.6-0.9c-0.3,0.4-0.7,0.7-1.2,0.9c-0.4,2.1,0.2,4.2,0,6.2c-0.1,0.8-0.4,1.6-0.2,2.4
		c-0.2,0.2-0.4,0.4-0.5,0.6c0.2,0.3,0.4,0.6,0.6,1c-0.3,0.2-0.5,0.3-0.7,0.5c0.3,0.2,0.6,0.5,0.9,0.7c-0.2,0.3-0.4,0.5-0.7,0.8
		c0.2,0.2,0.4,0.5,0.6,0.8c-0.5,0.1-1.1,0.2-1.5,0.5c-1.1,0.6,0.2,6-0.8,10.3c-0.6,0.1-1.2,0.1-1.8,0.2c0,0.9,0.5,17.5,0.3,19.2
		c-0.2,0.1-0.5,0.3-0.7,0.4c0,0.3-0.1,0.7-0.1,1c-0.7-0.1-1.4-0.1-2.1-0.2c-0.3-1.7-0.3-12-0.3-12.2c-0.6-0.2-1.2-0.2-1.9-0.3
		c-0.2-0.3-0.4-0.6-0.7-0.8c0.5-0.6,0.2-1.2,0-1.9c0,0-0.4-4.7,0-6.7c-0.5-0.4-1-1-1.7-0.8c-0.6,0.1-1.2-0.2-1.8-0.3
		c-0.4,0.1-0.7,0.3-1.1,0.3c-8.6,0.2-2.6,0.9-7-0.1c0.1-0.1,0.3-0.3,0.5-0.4c-0.6-0.6-0.4-1.6-0.4-2.4c0,0-0.3-24.3-0.3-24.3
		c0-0.8-0.3-1.6-0.2-2.4c-0.2-0.8,0.1-1.5-0.1-2.3c0.1-0.5,0.1-1-0.2-1.5c0.1,0,0.4,0,0.5-0.1c-0.5-1.6,0-3.2-0.3-4.8
		c-0.2-1,0.4-2.1-0.4-2.9c0.2-0.1,0.4-0.2,0.6-0.3c-0.2-0.2-0.4-0.4-0.5-0.6c0.8-1.1-0.1-2.4,0.3-3.5c-0.7-1.1-0.3-0.9,0.1-1.5
		c-0.2-0.2-0.4-0.3-0.6-0.5c0.1-0.3,0.2-0.6,0.3-0.9c-0.2-0.1-0.5-0.1-0.7-0.1c-0.2-0.4-0.4-0.8-0.5-1.2c0.6-0.3,1.2-0.6,1.7-0.9
		c0-0.1,0-0.4,0-0.5c-1.6-0.4-3.3-0.3-5-0.3c-0.4-0.2-0.8-0.5-1.2-0.3c-0.9,0.5-1.9,0.2-2.8,0.3c-1.1,0.3-2.1-0.2-3.2,0
		c0.1,0.2,0.3,0.4,0.4,0.7c-0.8-0.1-1.1-0.6-2.7,0.3c-0.2,0.3-0.4,0.6-0.7,0.9c0.9,0.4,1.8,0.4,2.7,0.2c0,0.3,0,0.5,0,0.8
		c-0.8,0-1.2,0.7-1.6,1.2c0.3,0.1,0.7,0.1,1,0.1c-0.3,0.2-0.6,0.4-0.9,0.7c-0.1,0.9,0,1.7-0.1,2.6c0.2,0.1,0.3,0.3,0.5,0.4
		c-0.2,0.4-0.4,0.9-0.6,1.3c0.3,0.1,0.5,0.2,0.8,0.3c-0.2,0.2-0.5,0.3-0.7,0.5c0.2,0.1,0.3,0.2,0.5,0.3c-0.2,0.2-0.3,0.4-0.4,0.7
		c0.2,0,0.6,0.1,0.8,0.2c-0.2,0.3-0.5,0.6-0.7,0.9c0.2,0.3,0.5,0.6,0.7,0.9c-0.2,0.3-0.5,0.6-0.7,0.8c0.2,0.2,0.4,0.5,0.6,0.7
		c-0.2,0.2-0.5,0.5-0.6,0.7c0.1,0.5,0.8,0.3,1.2,0.4c-0.2,0.6-1.1,0.5-1.2,1.2c0.5,0,0.9,0.1,1.4,0.1c-0.4,0.3-0.9,0.6-1.3,0.9
		c-0.3,0.5,0.4,0.7,0.7,1c-0.1,0.3-0.3,0.6-0.6,0.8c0.1,0.1,0.3,0.2,0.4,0.3c-0.1,0.3-0.3,0.6-0.5,0.9c0.5,0.7-0.1,1.5,0.4,2.1
		c-0.1,0.2-0.3,0.5-0.2,0.7c0.1,0.2,0.5,0.4,0.5,0.7c-0.1,0.3-0.3,0.5-0.4,0.7c0.1,0.2,0.2,0.5,0.3,0.7c-0.1,0.2-0.3,0.5-0.4,0.7
		c0.1,0.2,0.3,0.4,0.4,0.7c-0.1,0.3-0.3,0.5-0.4,0.8c0.3,0.5,0.2,1.1,0.1,1.7c0.1,0.2,0.3,0.3,0.4,0.5c-0.2,0.2-0.4,0.5-0.5,0.7
		c0.1,0.3,0.3,0.6,0.5,0.9c-0.2,0.2-0.3,0.3-0.5,0.5c0.2,0.5,0.2,1.1,0.1,1.7c0.3,0.1,0.6,0.2,0.9,0.3c-0.3,0.3-0.6,0.7-0.9,1
		c0.3,0.2,0.6,0.4,0.9,0.7c-0.3,0.2-0.5,0.4-0.8,0.6c0,0.1,0,0.3,0.1,0.4c0.3,0.1,0.6,0.1,0.9,0.2c-0.3,0.3-1.1,0.6-0.8,1.1
		c0.3,0.1,0.7,0.1,0.8,0.5c-0.3,0.2-0.6,0.5-0.9,0.7c0.2,0.2,0.4,0.4,0.7,0.6c-0.5,0.5-0.1,1.2-0.3,1.8c-0.2,0.6,0.2,1.2,0,1.8
		c0.1,0.8-0.3,1.6,0.2,2.3c-0.2,0.2-0.4,0.5-0.5,0.7c0.5,0.5,0.8,0.2,0,1.5c0.2,0.2,0.3,0.4,0.5,0.6c-0.1,0.2-0.4,0.4-0.3,0.7
		c0.1,1,0.3,2.1,0.1,3.1c0.1,4.5,0,6.6,0,6.6c-0.5,0-1,0-1.3-0.3c-0.5-0.4-1.2-0.6-1.5-1.1c0.2-0.2,0.5-0.4,0.7-0.6
		c-0.3-0.3-0.7-0.5-0.9-0.8c-0.2-0.5-0.1-1-0.1-1.5c-0.3-0.1-0.6-0.3-0.9-0.4c0-0.5,0-1-0.1-1.4c0.3-0.1,0.6-0.1,0.8-0.2
		c-0.3,0-0.5-0.1-0.8-0.1c0-0.6,0-2.2-0.6-2.3c-1.2-0.3-2.3-0.7-3.5-0.7c-0.1-1.2-0.7-30-0.7-30c0.1-0.9,0.1-1.8-0.3-2.5
		c-0.5-0.3-1.2-0.1-1.8-0.3c0.2-0.3,0.3-0.7,0.5-1c0.7-0.2,1.5-0.3,2.1-0.7c-0.8-0.9-4.4-0.2-6.5-1.1c-1.2-0.3-5.4,0.3-7.3,1.3
		c0,0.1,0,0.4,0,0.5c0.6,0.2,1.4,0.4,1.6,1c-0.5,0.2-1.2,0.3-1.5,0.8c0.2,0,0.6,0.1,0.8,0.2c-0.3,0.3-0.7,0.5-1,0.8
		c0.2,0.3,0.5,0.6,0.8,0.8c-0.3,0-0.6,0-0.9,0c0.4,0.8,0.5,3.8,0.5,4.1c0.2,0.1,0.4,0.2,0.5,0.4c-0.3,0.2-0.6,0.4-0.8,0.7
		c0.2,0.5,0.5,0.9,1,1.1c-0.3,0.2-0.6,0.5-0.8,0.7c0.2,0.3,0.4,0.5,0.6,0.8c-0.1,0.2-0.3,0.5-0.4,0.7c0.1,0.3,0.3,0.6,0.5,0.9
		c-0.2,0.2-0.3,0.4-0.5,0.7c0.3,0.1,0.6,0.3,0.9,0.5c-0.3,0.3-0.6,0.5-0.9,0.8c0.1,0,0.5,0.1,0.6,0.2c-0.2,0.7-0.3,1.5-0.2,2.2
		c-0.1,0.5-0.3,1,0.1,1.5c-0.1,0.3-0.3,0.5-0.4,0.8c0.3,0.2,0.7,0.4,1.1,0.6c-0.3,0.1-0.6,0.2-0.8,0.3c0.2,0.7,0.3,1.4-0.3,1.9
		c0.2,0.3,0.4,0.5,0.6,0.8c-0.3,0.3-0.6,0.6-0.8,0.9c0.2,0.3,0.4,0.5,0.6,0.8c-0.1,0.1-0.2,0.2-0.3,0.3c0.5,2.3,0.1,13.1,0.2,14
		c-1.2,0-2.3,0-3.5,0.2c-0.1,0.7-0.1,1.5,0.1,2.2c-0.2,0-0.5,0-0.7,0.1c0.1,0.5,0.2,1,0.2,1.6c-0.4,0-0.7,0.1-1.1,0.1
		c0.1,1.2-0.4,2.3-0.3,3.5c0.3,0.8-0.2,1.7,0.3,2.5c-0.5,0.1-1.1,0.4-1.5-0.1c-0.3-2.2,0.1-6.7-0.1-12.7c-0.3-0.3-0.8-0.4-1.2-0.5
		c0-0.7,0-1.4-0.1-2.1c-1,1.1-0.4,1.4-0.2,2.2c-1.6,0.4-7.3,0-15.8,0.2c-2-0.1-0.7,5.3-1.2,10.8c-0.8,0.3-1.7,0.4-2.5,0.6
		c0.2,0.3,0.4,0.6,0.6,0.9c-0.4,0.1-0.8,0.2-1.2,0.2c-1-0.2-1.8,0.4-2.8,0.4c-1.3,0-2.6-0.1-3.9-0.2c0.2-4.1-0.3-14.4-0.1-16.5
		c-0.1-0.1-0.3-0.3-0.4-0.4c0,0.5,0,1,0,1.5c-0.1,0-0.3,0-0.4,0c-0.1-6,0.3-3.8-0.6-5.9c0.5,0.2,1,0.4,1.5,0.5
		c-0.4-0.7-1-0.5-0.4-3.4c-0.3,0-0.5-0.1-0.8-0.1c-0.2-1,0-2.1,0-3.2c-1.7-0.6-1.1-0.8-4.1-1v0.4c0,0,1.6-0.2,2.2,0.5
		c-1.7,0.2-3.6,0-5.3,0.3c-0.2-0.1-0.5-0.5-0.8-0.4c-2.1,0-1.6,0.3-1.6,3.2c-0.2,0.3-0.8,0.4-1.1,0.6c-0.1,0.9-0.4,2,0.1,2.8
		c-0.3,0-0.5,0-0.7,0c-0.7,0.9-0.5,2-0.5,3.1c0.2,0.2,0.4,0.3,0.7,0.5c-0.4,0.3-0.6,0.8-0.7,1.2c0.2,0.2,0.5,0.3,0.7,0.5
		c-0.2,0.2-0.5,0.5-0.7,0.7c-0.1,3.2,0.2,14.3,0.2,18.9c-3.1,0-6.2,0-9.2,0c0,5.5,0.2,10.9,0.2,16.4c-0.6,0-1.2-0.1-1.9-0.1
		c-0.8,0.1-1.5,0.1-2.3,0.1c-0.6-0.6-0.3-1.4-0.3-2.2c0-0.2-1-35.7-0.4-37.6c0.4-1.1-0.4-2.1-0.3-3.2c-0.1-0.7,0.2-1.5-0.3-2
		c-0.4-0.4-0.7-0.9-1.1-1.3c-0.1,0-0.4,0-0.5,0c-0.1,1-0.3,2-0.5,3c-0.5,0-1.1,0-1.6,0c-0.2-0.2-0.3-0.5-0.5-0.7
		c-0.1,0-0.4,0.1-0.5,0.1c0,0.2-0.1,0.5-0.2,0.6c-0.8-0.2-1.6-0.2-2.4,0c-0.1-0.3-0.2-0.5-0.4-0.8c-0.4,0-0.8,0.1-1.1,0.1
		c-0.4-0.5-0.3-1.1-0.1-1.7c-0.2,0-0.4,0-0.6,0c0.1,0.4,0.2,0.9-0.1,1.3c-1.2,1.4-0.7,0.9-3.5,1.1c-0.3-0.3-0.6-0.7-1-0.7
		c0,0.2-0.1,0.6-0.2,0.8c-0.5-0.1-0.9-0.3-1.4-0.4c-0.4,0.2-0.7,0.4-1.1,0.6c-0.1,0.5,0.1,10.3,0.1,10.5c-0.7,0-1.3-0.5-1.9-0.2
		c-0.9,0.4-2,0.4-3,0c-1.1,0.5-3,0.6-3.9,0c-0.3,0.2-0.7,0.4-1.2,0.4c-0.8-0.1-1.8,0.1-2.5-0.4c-0.2,0.2-0.4,0.4-0.7,0.4
		c-0.8,0-1.6,0.1-2.4,0c-0.3-0.1-0.5-0.4-0.7-0.5c0,0.1-0.1,0.4-0.2,0.6c-1.5,0.1-2.9,0.1-4.4,0.1c-0.1-0.4-0.1-0.9-0.5-1
		c-1.4,1.5-0.3,7.5-0.5,13.4c-0.5,0-1.1,0-1.6,0c-0.2,0.2-0.3,0.3-0.5,0.5c-0.5,0-1.1,0-1.6,0c-0.2-1.8-0.1-28.5-0.6-31.4
		c0.1-1,0-1.9,0.1-2.9c-4.8-0.2-10.3,0.2-11.5-0.3c-0.8-0.2-1.5-0.5-2.3-0.6c-0.3,0.2-0.2,0.5-0.2,0.8c-1.2,0-2.3,0-3.5,0
		c0,0.5,0,1.1,0,1.6c0.1,0.1,0.3,0.3,0.4,0.3c-1.3,0.7-0.4,2.7-1.1,5c0.1,0.6,0.6,41.2,0.3,42.1c0.1,1.4,0.1,2.8,0,4.2
		c-15.2,0.2-9.2-0.6-14.3,1.3c0,0.3-0.1,0.7-0.1,1c-0.9,0.2-1.9,0-2.8,0.3c-0.8,0.2-1.6,0.1-2.4,0.1c-0.1-0.4,0-0.8-0.2-1.2
		c-0.3-0.2-0.7-0.2-1.1-0.2c-0.2-4.2,0.3-10.9-0.5-17.3c-0.2-0.3-3.1-4.9-3.5-4.7c-1.1,1.2-1.9,2.8-3,4c-1-8.8-4.7-89.6-4.4-95
		c1.6-0.1,3.3-0.2,4.8-0.9c1.2-1.4,0.8-2.5-0.5-3.8c0.5-0.6,1.1-1.1,1.7-1.7c-0.3-1.6,0.3-3.1,0.5-4.6c-0.2-0.2-0.5-2.4-1.2-2.9
		c-0.5-0.3-1-0.6-1.4-0.9c-0.3-0.6,0-1.5-0.7-1.9c-0.6-0.7-1.5-0.4-2.2-0.5c-1.5-1-0.9-2.8-1-5.7c-1.6-0.1-1.2-0.6-1.2-15.9
		c-0.1-11.2-0.5-6.9,1-11.2c0-0.1-1.1-1.6-1.3-1.8c-1-1-0.3,0-0.4-4.9c0.2-1.2-0.1-2.5-0.2-3.7c0-1.2,0.1-2.4,0.1-3.6
		c0,0-0.5-10.5-0.5-10.5c-0.4-3.5-0.7,1.9-0.8-10c-0.1-9.2,0.3-11.2-1.2-11c-0.2,1.9,0.1,17.3,0.1,17.5c-0.8,2.3-1,1.5-0.9,5.7
		c0,0.4-0.9,10.9-0.3,13.7c0.1,0.7,0,5.6-0.1,6.3c-0.2,0.9-1.5,1.3-1.3,2.3c-0.1,1,0.9,1.7,0.8,2.7c0,2.7-0.4,22.6,0.1,24.2
		c-3,0.9-0.5,2.6-1.1,5.8c-1,0.2-2.1,0.4-3.1,0.7c-0.9,0.6-0.4,1.8-0.8,2.7c-0.5,0.6-1.3,0.8-1.9,1.3c-0.3,1.3-0.3,2.6-0.1,3.9
		c0.2,0.9-0.1,2,0.5,2.7c0.2,0.4,0.7,0.7,0.6,1.2c-0.5,1.6-1.4,3,2.3,4.7c0.8,0.1,1.7,0.1,2.5,0.1c0.1,1.5,0,10.2,0.1,23.8
		c0,1.1-0.4,2.1-0.3,3.2c0.3,7.9-1,15.9-0.4,23c0.1,1.8-0.5,1.5-0.5,4.6c0.1,14.8-0.5,0.7-0.4,15.4c0,4.8-0.5-1.6-0.4,10.7
		c0.1,1.2-0.5,2.4-0.4,3.6c0.2,1.3-0.2,2.7,0,4c0.1,0.7,0,1.4-0.2,2.1c-0.5,1.3-0.1,4.9-0.3,7.2c-0.8,3.9-0.1,2.7-0.3,6.7
		c0,0.9-0.6,1.8-0.5,2.7c-0.1,2.3,0.7,3.9-2.8,3.3c-0.4-4.1,0.2-17.6-0.2-19.3c-0.2-0.6-0.9-0.9-1.1-1.5c-0.1-0.7,0-1.5,0-2.2
		c-0.4-0.1-0.9-0.2-1.3-0.4c-0.1-3.2,0.6-5.4-2.4-5.2c-1.4,0.1-3.6-0.5-3.8,2.1c-1.9,0-3.8-0.1-5.7,0.1c-1,0.5-0.8,1.6-0.8,2.5
		c-0.8,0-1.7,0-2.5,0c-0.1,5.7,0.2,5.9,0.1,8.5c-0.6,0-1.1-0.1-1.6-0.1c-0.4-5.1,0.3-1.1-0.4-6.3c-1.5-1-3.4-0.1-5-0.8
		c-0.6,0-1.3,0.4-1.9,0.3c-0.2-1.4,0.2-10-0.2-11.7c-2.8-0.5,1.5-1-8.3-0.9c-0.2,8.5,0.1,5.9-1.6,6.9c-0.8,0.2-1,1.2-1,1.9
		c0,0.4,0.1,7-0.2,8.3c-3,0.9-3.1-1.5-5,3.4c-1.1,0.3-2.4-0.2-3.4,0.6c-1.1,0.7-2.5,0.3-3.7,0.3c0-0.9,0.3-2-0.3-2.8
		c-0.4,0.1-0.8,0.2-1.2,0.4c0-0.7-0.1-1.3-0.2-2c-4.7-1.3-8-0.1-9.2,0c0,0.5,0,0.9,0,1.4c-0.6-0.1-1.1-0.1-1.7-0.2
		c0,2.5,0,4.9,0,7.4c-23.1-0.1-23.8,0.2-24.3-0.2c-0.4-0.7-0.6-0.9-0.4-8.6c0-0.9,0.9-1.6,0.5-2.5c-0.2-0.6,0-1.2-0.2-1.8
		c-1.1,0-2.2,0-3.3,0c-0.9,0-1.8,0.5-2.7,0.4c-1.6,0-3.1,0-4.7,0c1.2,0.2,5.3,0,6.6-0.1c-1.4,0.4-2.8,0.1-4.2,0.2
		c-1.1,0-2.3,0.2-3.4-0.3c0.3-0.1,0.5-0.1,0.8-0.2c-1.3-0.2-2.7-0.1-4.1-0.1c-0.1,0.2-0.2,0.4-0.3,0.5c0.3,1.9,0.1,3.8,0.1,5.7
		c-0.9-0.5-1.9-0.3-2.8-0.1c-0.6,0.2-1.1,0.7-1.6,1.1c-0.7,0.6-0.4,1.7-1,2.4c-0.5,0.6-0.6,1.5-1.2,2c-1.8,0.2-6.2,0.2-7.1,0.1
		c-0.4-2.1-0.5-1.8-3-2.5c-1.3-2.7-1.2-2.8-1.8-3.1c-5.7-1-5.5-1.2-6.5,0c-0.3,1.1,0.3,2.1,0.2,3.2c0,2.8,0,5.6,0,8.4
		c-0.4,0-0.7,0-1.1,0c0-0.4,0-0.8-0.1-1.2c-12.9,0-5.8,0.3-14.3,0c0-1.2,0.1-2.5-0.1-3.7c-0.1-0.9,0.1-1.9,0-2.8
		c-0.3-0.8-0.7-1.5-0.9-2.4c-1.7,0-3.4,0.1-5.1,0c-1-0.4-1.7-1.4-2-2.3c-3.1-0.8-3.7,0.4-4.7,0.5c-0.7-0.3-0.6-1.1-0.7-1.7
		c-0.4-0.1-0.7-0.1-1.1-0.2c-0.6-1.6-0.4-3.3-0.5-5c-0.9,0-1.7,0-2.6-0.1c-0.6-0.4-0.9-1-1.4-1.4c-1.5-0.5-3.1,0-4.7-0.2
		c-1.3-0.2-2.6,0-3.9,0.1c-0.2,0.6-0.6,1.1-0.9,1.7c-0.3,1.7,0,3.5-0.2,5.2c-0.2,3.5,1.3,6.4-3,5.6c0.1-5.3,0.9-3.2-11.6-3.8
		c-0.1-1.9,0.5-6.5-1.2-7.3c-1-0.2-2-0.1-3-0.2c-0.1-0.6-0.2-1.1-0.2-1.7c-1-0.3-1.9-0.7-2.7-1.4c-9.1-3.3-6.2,0.5-7,2.5
		c-0.4,0.7-1.2,0.7-1.8,0.8c-0.6,1.7-0.7,3.6-0.5,5.4c0.2,1.2-0.6,2.2-0.5,3.4c0.1,14.4,0.2,14.4-0.7,14.6c-0.9,0.3-1.9,0.4-2.8,0.1
		c-0.6-0.2-1.1,0.4-1.7,0.4c-4.5,0.1-6-0.5-6.2,1.5c-0.1,2.9,0.3,5.8,0,8.7c-0.9-0.3-1.6-1.3-1.5-2.3c0-14.3,0.7-41,0.4-42.8
		c0-0.7-0.4-1.4-0.4-2.1c0-0.8-0.2-1.6-0.3-2.4c-1.3-0.5-2.7,0-4-0.3c-0.8-0.4-0.9-1.4-1-2.3c-0.8-0.3-1.7-0.2-2.6-0.2
		c-1,0-2-0.9-3-0.4c-0.1,0.5-0.2,1.1-0.5,1.6c-0.4,0.4-0.9,0.5-1.4,0.8c-1.1,0.5-1.9,1.4-3.1,1.7c-1.4,0.7-1.2-0.5-1.4,3.3
		c-0.4,5.1,0.4,3.9,0.1,9.6c0,0.3,0.2,0.5,0.4,0.7c-0.5,0.7-0.4,0.9-0.4,4.6c0,0.3,0.2,0.5,0.3,0.8c-0.1,0.2-0.3,0.4-0.4,0.6
		c0.1,0.2,0.3,0.4,0.4,0.6c-0.6,2.5-0.5,5-0.5,7.5c0.2,0.1,0.5,0.2,0.7,0.3c-0.2,0.2-0.5,0.4-0.7,0.6c0.1,0.3,0.2,0.5,0.3,0.7
		c-0.9,1.4-0.3,5.7-0.5,6.5c-0.2,1.4-0.1,2.9-0.1,4.4c-2.1,0.1-4.2,0-6.3,0.1c-0.1,0.1-0.2,0.2-0.2,0.2c-0.1,0.8,0.2,1.7-0.4,2.4
		c-1.3-0.5-1.1-1-3.4-2c0-1.9,0-3.8,0-5.7c-0.2-1.5-0.2-2.9-0.1-4.4c0-0.1,0.3-15.5,0.1-18.2c-0.1-0.8-0.7-1.3-0.7-2.1
		c-0.2-1.2,0.1-2.4,0.1-3.6c0-0.8-0.1-1.6-0.1-2.4c-3.4-1.3-9.6,0.2-11.3-1c0-0.6-0.1-1.2,0-1.9c0.1-1-0.1-2-0.1-3
		c-3.7-0.4-2.6-1.4-7.1-0.7c0,0.5,0.1,1.1,0.2,1.6c-0.8,0.7,0,0.6-4.6,0.6c-0.1,1-0.1,2-0.1,3c-1.3,0.1-2.6-0.1-3.8,0.1
		c-0.5,0.4-0.4,1.3-0.6,1.9c-0.4,0.1-0.8,0.1-1.2,0.2c-0.1,0.5,0.2,0.8,0.6,1c-0.2,0.2-0.4,0.4-0.5,0.6c0,1.1,0.2,2.2,0.1,3.2
		c-0.6,0.8-1.9,0.4-5.1,0.6c0,1,0,1.9,0,2.9c-0.4,0.1-0.8,0.1-1.2,0.2c0,0.1,0,0.4,0,0.6c0.4,0.1,0.9,0.1,1.3,0.2c0,0.4,0,0.8,0,1.2
		c-1.1,0-2.1,0-3.2,0c0.4,7.9-0.2,6.1-0.6,7.3c0.2,2.3-0.4,10.9-0.1,14.3c-0.5,0.1-1,0.2-1.5-0.1c-0.1-0.6-0.4-1-0.9-1.3
		c0.3-12.5-0.2-11.4,0.3-12.1c-0.3-0.7-0.1-1.4-0.1-2.1c0.1-2.1-0.2-4.3,0.1-6.4c-1.8-0.5-3.6-0.5-5.4-0.5c0-0.6,0-1.1,0-1.7
		c-10,0-13.5-0.3-11.7,0.7c-0.9,1.4,0.1,1.1-0.4,4.4c0.2,0.2,0.4,0.5,0.6,0.7c-0.3,0-0.8,0-0.8,0.4c0.2,2.4-0.1,12.1,0.1,14.3
		c0.1,1.1-0.3,2.1-0.3,3.2l0,11c0.6,0,1.1,0,1.7,0.1c-1.2,0.5-2.6,0-3.9,0.1c-0.1-0.2-0.2-0.5-0.3-0.7c-3.9,1.7-4.1,0.2-5.8,0.3
		c-0.5,0-1.1,0.1-1.6-0.1c-1.7-1.2-2,1-5.8,0.1c0,0,0.1-4.1,0.2-9.2c-4.3-0.8-8.8-0.3-11.2-0.6c-0.7-3.8,0-15.6,0-15.7
		c0.2-4.3-0.4-5.4,0.2-6.5c-1.2,0-2.4-0.2-3.6-0.4c-1.3,0-2.6,0-3.9-0.3c-1.3,0.1-2.6,0-3.9,0.1c-2.1,0.4-4.2,0.2-6.3,0.2
		c0.4,1.6,0.1,9.8,0.1,10c-0.1,1,0.8,2.9-1,3.3c-1.4-0.1-2.7,0-4.1-0.2c-1.1-0.1-2.1,0.1-3.2,0.1c-0.2-2.8,0.5-17,0.5-18.5
		c0.1-0.5-0.4-0.8-0.8-0.8c-2.9-0.5-5.8,0.1-8.6-0.4c-1.9,0.3-3.8,0-5.6,0.2c0,0-0.6,41.2-0.6,41.2c0,0,0.2,0,0.2,0v0.2h-6
		c0,26,0,51.4,0,77h1012.7h1.8h598.2h6.2h1213v-97H2827.1z M1324.8,80.6c0,0,0.1,0.1,0.1,0.1v0C1324.9,80.6,1324.9,80.6,1324.8,80.6
		z M1325.1,80.3c0,0,0.1,0,0.2,0l0,0C1325.2,80.2,1325.2,80.2,1325.1,80.3z M1324.9,79.5c-0.1,0-0.2,0-0.4,0
		C1324.7,79.5,1324.8,79.5,1324.9,79.5z M1325,65.9c0-0.4-0.2-0.9-0.5-0.8c0,0.7-0.5,0.8-0.4,1.5c0.1,0,0.1,0.1,0.2,0.1
		c-0.1,0-0.1,0-0.2-0.1c-0.1-0.7,0.4-0.8,0.4-1.5C1324.9,65.1,1325,65.5,1325,65.9z M1324.1,65.5c0.1,0,0.2-0.1,0.3-0.2
		C1324.2,65.4,1324.1,65.5,1324.1,65.5z M1304.6,8.3c-0.2-0.1-0.4-0.3-0.5-0.5C1304.3,8,1304.4,8.2,1304.6,8.3z M1303.8,7.5
		c-0.1-0.1-0.3-0.2-0.5-0.2l0,0C1303.6,7.3,1303.7,7.4,1303.8,7.5z M1301.9,9c-0.1,0.2-0.2,0.5-0.1,1l0,0
		C1301.8,9.5,1301.8,9.2,1301.9,9z M1295.4,73.1c0,0-0.1,0-0.2,0C1295.3,73.1,1295.3,73.1,1295.4,73.1z M1295.3,73.4
		c-0.1,0-0.1,0-0.2,0C1295.2,73.5,1295.2,73.5,1295.3,73.4c0.1,0,0.1-0.1,0.2-0.1C1295.4,73.4,1295.3,73.4,1295.3,73.4z
		 M1231.1,230.4v0.3c-0.5,0.7-0.4,2.1,0,2.9v0.3C1230.4,233,1230.2,230.9,1231.1,230.4z M28.1,218.7c-0.7,0.2-1.3-0.1-2-0.1
		c-2-0.2-4.1-0.1-6.1-0.1c-0.3-1,0.1-12.5,0.2-12.8c0.3-0.4,0.6-0.1,6.8-0.2c0.4,0,0.8,0.1,1.1,0.2C28.3,209.1,28,212.9,28.1,218.7z
		 M921.1,208.4c1.1,0,2.2-0.2,3.3,0l0.1,0.2C923.4,208.5,922.2,208.5,921.1,208.4z M1169.5,202.8c0,0.1,0,0.1,0,0.2
		C1169.5,202.9,1169.5,202.9,1169.5,202.8c-0.2,0.1-0.3,0.2-0.2,0.2C1169.2,203,1169.3,202.9,1169.5,202.8z M1171.1,205L1171.1,205
		h-2.4c0.1-0.1,0.2,0,0.2,0H1171.1z M1155.3,192.2c-0.2,0-0.5,0-0.7,0C1154.9,192.2,1155.1,192.2,1155.3,192.2z M1153.9,193.2
		c0.1,0.1,0.3,0.2,0.4,0.2C1154.2,193.3,1154.1,193.2,1153.9,193.2z M1166.1,201C1166.1,201,1166.1,201,1166.1,201
		c0,1.2,1.3,1.2,1.5,2.2c0.4,0.5,1.5,0.6,1.4,1.2c-0.1-0.4-1-0.6-1.4-1C1167.4,202.3,1166,202.3,1166.1,201z M1223.7,217.6
		c-0.1,0-0.1,0.1-0.1,0.1C1223.6,217.7,1223.6,217.7,1223.7,217.6z M1223.6,218c0.1,0,0.2,0,0.2-0.1
		C1223.8,217.9,1223.7,218,1223.6,218z M1269.5,285.6c-0.1,0-0.2,0-0.2,0C1269.3,285.6,1269.4,285.6,1269.5,285.6z M1268.6,285.7
		c-0.1,0-0.2,0.1-0.3,0.2C1268.4,285.8,1268.5,285.7,1268.6,285.7z M1265.6,281c0.1,0.1,0.2,0.1,0.4,0.1l0,0
		C1265.8,281.1,1265.7,281,1265.6,281z M1268.8,286.4c0.3,0.3,0.6,0.7,0.8,1.1C1269.4,287,1269.1,286.6,1268.8,286.4z M1290.1,229.2
		c0.1-0.3,0.1-0.7,0.1-1.1C1290.2,228.5,1290.2,228.9,1290.1,229.2z M1289.4,226.6L1289.4,226.6c0.1,0.4,0,0.9,0,1.4
		C1289.4,227.5,1289.5,227,1289.4,226.6z M1289.4,229.5c0.1,0.3,0.2,0.5,0.4,0.6v0C1289.5,229.9,1289.4,229.7,1289.4,229.5z
		 M1291.3,238.4c0.1,0,0.2,0.1,0.2,0.1C1291.4,238.4,1291.4,238.4,1291.3,238.4L1291.3,238.4L1291.3,238.4c0.1-0.9,1.3-0.7,1.1-1.8
		C1292.5,237.6,1291.4,237.5,1291.3,238.4z M1291.6,240.6c0-0.4,0.2-1.1,0-1.5C1291.8,239.5,1291.6,240.1,1291.6,240.6z
		 M1290.9,235.8c-0.4,0.5-0.6,1-0.5,1.4C1290.3,236.7,1290.4,236.3,1290.9,235.8z M1291.3,238.4c0,0.3,0,0.5,0.2,0.6
		C1291.3,238.9,1291.2,238.7,1291.3,238.4z M1292.5,239c0-0.2-0.1-0.4-0.1-0.6l0,0C1292.4,238.6,1292.5,238.8,1292.5,239
		c0,0.2,0.1,0.4,0.2,0.5C1292.6,239.4,1292.6,239.2,1292.5,239z M1293.9,238.7c0,0.3-0.1,0.6-0.1,0.8c0,0.1,0,0.2,0,0.3
		c-0.2,0-0.3,0-0.4,0c0.1,0,0.3,0,0.4,0c0-0.1,0-0.2,0-0.3C1293.9,239.3,1293.9,239,1293.9,238.7c0-0.3,0-0.6,0-0.8
		C1294,238.2,1294,238.4,1293.9,238.7z M1299.2,175.2C1299.2,175.2,1299.2,175.2,1299.2,175.2
		C1299.2,175.2,1299.2,175.2,1299.2,175.2z M1299.1,62.3C1299.1,62.3,1299.1,62.4,1299.1,62.3c-0.4-0.1-0.9-0.3-1,0.1
		c0,0,0-0.1,0-0.1C1298.2,61.7,1298.8,62,1299.1,62.3z M1297.1,62.2C1297.1,62.2,1297.1,62.2,1297.1,62.2
		C1297.1,62.2,1297.1,62.2,1297.1,62.2z M1296.8,62.1c0,0-0.1-0.1-0.1-0.2C1296.8,62,1296.8,62,1296.8,62.1z M1296.9,62.3
		c-0.1,0.1-0.3,0.1-0.5,0.3C1296.5,62.4,1296.8,62.4,1296.9,62.3z M1296.9,63.2c1.5-0.6,0.8,1,1.5,1.1c0-0.7,0.4-0.9,1.1-0.8
		c0,0.1,0,0.1,0.1,0.2c0,0,0-0.1-0.1-0.2c-0.8-0.1-1.2,0.1-1.1,0.8C1297.7,64.2,1298.4,62.6,1296.9,63.2c0.1,0.2,0.2,0.4,0.3,0.6
		C1297.2,63.6,1297.1,63.4,1296.9,63.2C1296.9,63.2,1296.9,63.2,1296.9,63.2z M1301.5,65.8c0,0.7-0.2,1.4,0,1.9
		c-0.1,0-0.3,0.1-0.4,0.1c0.1,0,0.2,0,0.4-0.1C1301.4,67.3,1301.5,66.5,1301.5,65.8z M1300.7,68.4
		C1300.6,68.4,1300.6,68.4,1300.7,68.4C1300.6,68.4,1300.6,68.4,1300.7,68.4z M1299.9,65.7c0-0.2,0-0.4,0-0.5l0,0
		C1299.9,65.3,1299.9,65.5,1299.9,65.7z M1299.1,66.6c0.1,0.2,0.3,0.3,0.5,0.4C1299.4,66.9,1299.3,66.8,1299.1,66.6z M1295.8,65.9
		c0.1-0.3,0.2-0.4,0.2-0.4C1296,65.5,1295.9,65.6,1295.8,65.9c0,0.1,0,0.1,0,0.2C1295.8,66,1295.8,65.9,1295.8,65.9z M1295.8,66.6
		c0-0.1,0-0.2,0-0.3C1295.8,66.4,1295.8,66.5,1295.8,66.6c0,0.2,0,0.3,0.1,0.5C1295.8,66.9,1295.8,66.8,1295.8,66.6z M1295.9,67.3
		c0,0.1,0.1,0.1,0.1,0.1C1296,67.4,1295.9,67.4,1295.9,67.3z M1296.1,64.8C1296.2,64.8,1296.2,64.8,1296.1,64.8
		c0.1,0.2,0.2,0.2,0.3,0.2C1296.3,65,1296.1,65,1296.1,64.8z M1296.4,65c0.1-0.1,0-0.2-0.2-0.2C1296.7,64.8,1296.6,64.9,1296.4,65z
		 M1299.3,67.8c0.1,0.2,0.3,0.3,0.5,0.4C1299.6,68.1,1299.4,68,1299.3,67.8z M1302.1,67.2C1302.1,67.2,1302.1,67.2,1302.1,67.2
		C1302.1,67.2,1302.1,67.2,1302.1,67.2z M1302.2,64.4c-0.9-0.9-2.1,0.4-2.6-0.5C1300.1,64.7,1301.3,63.4,1302.2,64.4L1302.2,64.4z
		 M1304.5,51.9c-0.2-0.2,0.2-0.4,0.3-0.4C1304.7,51.5,1304.3,51.7,1304.5,51.9C1304.5,51.9,1304.5,51.9,1304.5,51.9
		C1304.5,51.9,1304.5,51.9,1304.5,51.9z M1320.1,67c0.8-0.2,0.1-1.9,0.3-2.7c0,0,0,0,0,0C1320.2,65.1,1320.9,66.8,1320.1,67z
		 M1318.1,67.4C1318.1,67.4,1318.1,67.4,1318.1,67.4c1.4,0,1.2-1.6,1.1-3c0.1-0.1,0.1-0.2,0.2-0.2c-0.1,0-0.1,0.1-0.2,0.2
		C1319.3,65.8,1319.5,67.4,1318.1,67.4z M1323.1,65.9v-0.2c0.3-0.3,0.5-0.9,0-1C1324.1,64.6,1323.1,66,1323.1,65.9z M1323.4,63.3
		c0.3,1-0.3,0.8-0.3,1.5c-0.1,0,0,0,0,0v0.4c-1,0.6-0.2,1.7-1.1,1.5c-0.8,0.1,0.3,1-0.6,1.5c0,0-0.1,0-0.1,0
		c0.8-0.5-0.5-1.4,0.3-1.5c1.2,0.2,0.3-1.7,1.1-1.9C1322.7,64,1323.7,64.3,1323.4,63.3z M1322.7,63.1c-0.1,0.2-0.1,0.4-0.1,0.9
		c-0.1,0-0.1-0.1-0.2-0.1C1322.5,63.5,1322.6,63.2,1322.7,63.1z M1322.9,63c0,0,0.1,0,0.1,0C1323,63,1322.9,63,1322.9,63z
		 M1323.1,61.5c0-0.2,0.1-0.3,0.3-0.3C1323.3,61.3,1323.1,61.4,1323.1,61.5z M1323,61C1323.1,61,1323.1,61,1323,61
		C1323.1,61,1323.1,61,1323,61z M1323.4,60.6C1323.4,60.6,1323.5,60.6,1323.4,60.6C1323.5,60.6,1323.4,60.6,1323.4,60.6
		C1323.4,60.6,1323.4,60.6,1323.4,60.6C1323.4,60.6,1323.4,60.6,1323.4,60.6z M1323.4,58.7c0,0.2,0,0.3,0,0.5
		C1323.5,59.1,1323.5,58.9,1323.4,58.7L1323.4,58.7z M1322.5,59.1c-0.1,0.1-0.2,0.2-0.2,0.4l0,0
		C1322.3,59.3,1322.4,59.2,1322.5,59.1z M1321.2,63.2c0.2,0.5-0.4,2,0.4,1.9l0,0C1320.7,65.2,1321.4,63.8,1321.2,63.2
		c-0.4-1.4,1.7-0.3,1.5-1.5c0,0,0,0,0,0C1322.9,62.9,1320.8,61.9,1321.2,63.2z M1318.7,68.5c0.5,0,1.2-0.5,2-0.5
		C1319.9,68.1,1319.2,68.6,1318.7,68.5z M1318.8,98C1318.8,98,1318.9,98,1318.8,98C1318.9,98.1,1318.9,98.1,1318.8,98
		C1318.9,98.1,1318.9,98.1,1318.8,98C1318.9,98,1318.8,98,1318.8,98z"/>
</g>
</svg>
