<?xml version="1.0" encoding="utf-8"?>
<!-- Generator: Adobe Illustrator 19.0.0, SVG Export Plug-In . SVG Version: 6.00 Build 0)  -->
<svg version="1.1" id="Layer_1" xmlns="http://www.w3.org/2000/svg" xmlns:xlink="http://www.w3.org/1999/xlink" x="0px" y="0px"
	 viewBox="0 0 150 150" style="enable-background:new 0 0 150 150;" xml:space="preserve">
<style type="text/css">
	.st0{fill:none;stroke:url(#XMLID_87_);stroke-miterlimit:10;}
	.st1{fill:url(#XMLID_88_);}
	.st2{fill:url(#XMLID_89_);}
	.st3{fill:url(#XMLID_90_);}
	.st4{fill:url(#XMLID_91_);}
	.st5{fill:#FFFFFF;}
	.st6{fill:url(#XMLID_92_);}
	.st7{fill:url(#XMLID_93_);}
	.st8{fill:url(#XMLID_94_);}
</style>
<linearGradient id="XMLID_87_" gradientUnits="userSpaceOnUse" x1="20.4662" y1="76.2625" x2="136.3183" y2="76.2625">
	<stop  offset="4.926108e-003" style="stop-color:#39B54A"/>
	<stop  offset="1" style="stop-color:#00AEEF"/>
</linearGradient>
<circle id="XMLID_149_" class="st0" cx="78.4" cy="76.3" r="57.4"/>
<g id="XMLID_4_">
	<linearGradient id="XMLID_88_" gradientUnits="userSpaceOnUse" x1="17.2033" y1="81.5616" x2="47.7654" y2="81.5616">
		<stop  offset="4.926108e-003" style="stop-color:#39B54A"/>
		<stop  offset="1" style="stop-color:#00AEEF"/>
	</linearGradient>
	<path id="XMLID_31_" class="st1" d="M25.1,38.6c1.2,3.3,0.3,7.2,5.3,6.7c-8.1,13.8-10.7,28-7.4,43.2c3.4,15.3,11.9,27,24.8,35.9
		c-12.2-4.6-26.1-20.9-29.3-37.2C15.1,70.5,18.8,54.9,25.1,38.6z"/>
	<linearGradient id="XMLID_89_" gradientUnits="userSpaceOnUse" x1="102.3076" y1="33.1898" x2="129.4843" y2="33.1898">
		<stop  offset="4.926108e-003" style="stop-color:#39B54A"/>
		<stop  offset="1" style="stop-color:#00AEEF"/>
	</linearGradient>
	<path id="XMLID_30_" class="st2" d="M102.3,23.9c3.7-3.8,7.6-5.3,12.2-3.3c4.8,2.1,6.1,6.2,5.7,11.2c3.6,0.9,6.1,2.5,6,6.6
		c0,0.6,1,1.2,1.6,1.8c2.1,1.9,2.3,3.9,0.1,6.5C121.3,36.7,113.1,28.9,102.3,23.9z"/>
	
		<linearGradient id="XMLID_90_" gradientUnits="userSpaceOnUse" x1="114.3752" y1="110.5257" x2="129.1646" y2="110.5257" gradientTransform="matrix(0.999 -4.423782e-002 4.423782e-002 0.999 0.3417 2.9969)">
		<stop  offset="4.926108e-003" style="stop-color:#39B54A"/>
		<stop  offset="1" style="stop-color:#00AEEF"/>
	</linearGradient>
	<path id="XMLID_29_" class="st3" d="M119.8,116.2c0.3-3.1,0.5-6.2,0.8-9.4c0.3-3.7,2.8-6.4,6.3-6.6c3.4-0.2,6.5,2,7.1,5.3
		c0.7,3.7-1.3,6.9-5,8C126,114.3,123,115.3,119.8,116.2z"/>
	<linearGradient id="XMLID_91_" gradientUnits="userSpaceOnUse" x1="53.2537" y1="18.8364" x2="71.8602" y2="18.8364">
		<stop  offset="4.926108e-003" style="stop-color:#39B54A"/>
		<stop  offset="1" style="stop-color:#00AEEF"/>
	</linearGradient>
	<path id="XMLID_28_" class="st4" d="M60.2,21.8c-2.6-1.4-4.8-2.5-7-3.6c5.2-3.3,13.2-3.1,18.6,0.7C67.6,19.9,63.6,20.9,60.2,21.8z"
		/>
</g>
<circle id="XMLID_1_" class="st5" cx="127.6" cy="106.9" r="2.7"/>
<g id="XMLID_22_">
	
		<linearGradient id="XMLID_92_" gradientUnits="userSpaceOnUse" x1="29.4592" y1="123.461" x2="55.7791" y2="123.461" gradientTransform="matrix(0.9995 -3.049144e-002 3.049144e-002 0.9995 -0.2239 -0.406)">
		<stop  offset="4.926108e-003" style="stop-color:#39B54A"/>
		<stop  offset="1" style="stop-color:#00AEEF"/>
	</linearGradient>
	<path id="XMLID_147_" class="st6" d="M39.3,111.2c-2.1,3.3-4.2,6.6-6.3,10c0.3,0.2,0.6,0.3,0.9,0.5c0.3,0.3,0.6,0.2,1,0.1
		c0.7-0.3,1.5-0.5,2.3-0.8c0.2-0.1,0.5,0,0.7,0.1c1.4,0.9,2.9,1.8,4.3,2.7c0.8,0.5,1.5,1,2.3,1.5c-2.7,2.2-5.4,4.4-8.2,6.6
		c0.8,1,1.9,1.2,2.9,0.8c1.1-0.5,1.9-0.1,2.7,0.5c0,0,0.1,0.1,0.1,0.1c1.1,0.7,1.3,0.7,2.1-0.4c0.2-0.3,0.3-0.6,0.4-0.9
		c0.2-0.5,0.1-0.8-0.4-1.1c-0.1-0.1-0.3-0.2-0.4-0.3c0.5-0.4,0.9-0.5,1.3-0.1c0.4,0.3,0.9,0.5,1.3,0.8c1.1,0.8,1.5,0.5,2.2-0.6
		c0.1-0.2,0.2-0.5,0.3-0.7c0.1-0.4,0.1-0.8-0.4-1c-0.3-0.1-0.5-0.2-0.8-0.4c0.2-0.3,0.3-0.3,0.4-0.4c0.5-0.4,0.9-0.3,1.4,0
		c1.2,0.8,2.5,1.6,3.7,2.4c1.2,0.8,2.5,1.2,4.1,1.1c1.8-0.2,2.8-1.8,2.2-3.4c-0.5-1.5-1.6-2.5-2.8-3.3c-1.3-0.8-2.6-1.6-3.9-2.5
		c-0.1-0.1-0.3-0.3-0.3-0.4c0-0.3,0-0.7,0-1c0,0,0.1-0.1,0.1-0.1c0.2,0.2,0.4,0.3,0.6,0.5c0.4,0.3,0.9,0.3,1.2-0.1
		c0.3-0.4,0.6-0.9,0.9-1.4c0.2-0.4,0-0.8-0.4-1c-0.6-0.4-1.2-0.8-1.8-1.1c-0.5-0.3-0.6-0.6-0.4-1.2c0.1,0.1,0.2,0.1,0.3,0.2
		c0.6,0.5,1,0.3,1.4-0.2c0.3-0.4,0.6-0.9,0.8-1.3c0.2-0.4,0-0.8-0.4-1c-0.6-0.3-1.2-0.7-1.7-1.1c-0.2-0.1-0.3-0.4-0.3-0.6
		c-0.1-0.5-0.1-1-0.3-1.5c-0.3-0.9-0.9-1.6-1.9-1.8c-0.8,3.4-1.6,6.8-2.5,10.3c-0.2-0.2-0.3-0.4-0.4-0.4c-1.7-1.1-3.5-2.3-5.3-3.3
		c-0.9-0.5-1.5-1.1-1.4-2.2c0-0.1,0-0.3,0-0.4C40.7,111.9,40.7,111.9,39.3,111.2C39.3,111.2,39.2,111.2,39.3,111.2z"/>
	
		<linearGradient id="XMLID_93_" gradientUnits="userSpaceOnUse" x1="29.4592" y1="123.461" x2="55.7791" y2="123.461" gradientTransform="matrix(0.9995 -3.049144e-002 3.049144e-002 0.9995 -0.2239 -0.406)">
		<stop  offset="4.926108e-003" style="stop-color:#39B54A"/>
		<stop  offset="1" style="stop-color:#00AEEF"/>
	</linearGradient>
	<path id="XMLID_144_" class="st7" d="M39.3,111.2C39.2,111.2,39.3,111.2,39.3,111.2c1.4,0.8,1.4,0.8,1.5,2.3c0,0.1,0,0.3,0,0.4
		c-0.1,1.1,0.5,1.7,1.4,2.2c1.8,1,3.5,2.2,5.3,3.3c0.1,0.1,0.3,0.3,0.4,0.4c0.9-3.6,1.7-6.9,2.5-10.3c1,0.2,1.6,0.9,1.9,1.8
		c0.2,0.5,0.2,1,0.3,1.5c0.1,0.2,0.2,0.5,0.3,0.6c0.6,0.4,1.1,0.8,1.7,1.1c0.4,0.2,0.6,0.6,0.4,1c-0.2,0.5-0.4,0.9-0.8,1.3
		c-0.4,0.5-0.8,0.7-1.4,0.2c-0.1-0.1-0.2-0.1-0.3-0.2c-0.2,0.5-0.1,0.9,0.4,1.2c0.6,0.3,1.2,0.7,1.8,1.1c0.4,0.2,0.6,0.6,0.4,1
		c-0.2,0.5-0.5,1-0.9,1.4c-0.3,0.4-0.7,0.5-1.2,0.1c-0.2-0.2-0.4-0.3-0.6-0.5c0,0-0.1,0.1-0.1,0.1c0,0.3-0.1,0.7,0,1
		c0,0.2,0.2,0.3,0.3,0.4c1.3,0.8,2.6,1.6,3.9,2.5c1.3,0.8,2.3,1.8,2.8,3.3c0.6,1.7-0.4,3.3-2.2,3.4c-1.5,0.2-2.8-0.3-4.1-1.1
		c-1.3-0.8-2.5-1.5-3.7-2.4c-0.5-0.3-0.9-0.4-1.4,0c-0.1,0.1-0.2,0.1-0.4,0.4c0.3,0.1,0.5,0.2,0.8,0.4c0.4,0.2,0.5,0.6,0.4,1
		c-0.1,0.2-0.1,0.5-0.3,0.7c-0.7,1-1.1,1.4-2.2,0.6c-0.4-0.3-0.9-0.5-1.3-0.8c-0.5-0.4-0.9-0.4-1.3,0.1c0.1,0.1,0.3,0.2,0.4,0.3
		c0.5,0.2,0.6,0.6,0.4,1.1c-0.1,0.3-0.2,0.6-0.4,0.9c-0.8,1.1-1,1.1-2.1,0.4c0,0-0.1-0.1-0.1-0.1c-0.8-0.6-1.6-1-2.7-0.5
		c-1,0.4-2.1,0.2-2.9-0.8c2.7-2.2,5.4-4.4,8.2-6.6c-0.8-0.5-1.6-1-2.3-1.5c-1.4-0.9-2.9-1.8-4.3-2.7c-0.2-0.1-0.5-0.2-0.7-0.1
		c-0.8,0.2-1.5,0.5-2.3,0.8c-0.4,0.1-0.7,0.2-1-0.1c-0.3-0.2-0.6-0.4-0.9-0.5C35.1,117.8,37.2,114.5,39.3,111.2z M39.4,111.7
		c-2,3.1-3.9,6.2-5.9,9.3c0.5,0.8,1.2,0.5,2,0.2c0.5-0.2,1.1-0.4,1.6-0.6c0.3-0.1,0.6-0.1,0.9,0.1c2.2,1.4,4.4,2.8,6.6,4.2
		c0.1,0.1,0.3,0.2,0.5,0.3c-2.8,2.2-5.5,4.4-8.3,6.7c0.3,0.2,0.5,0.3,0.8,0.4c0.9,0.3,1.7,0.1,2.5-0.2c0.4-0.2,0.7-0.2,1.1,0.1
		c0.5,0.4,1.1,0.7,1.7,1.1c0.2,0.1,0.6,0.1,0.6,0c0.3-0.4,0.6-0.9,0.9-1.4c0.1-0.1-0.1-0.5-0.2-0.6c-0.3-0.2-0.6-0.4-1.1-0.6
		c0.5-0.3,0.8-0.4,1.2-0.6c0.3-0.2,0.5-0.2,0.8,0c0.6,0.4,1.1,0.7,1.7,1.1c0.8,0.5,1,0.5,1.5-0.3c0.1-0.2,0.3-0.5,0.4-0.8
		c0.1-0.3,0-0.5-0.3-0.7c-0.4-0.2-0.8-0.4-1.3-0.7c0.5-0.4,1-0.6,1.4-0.9c0.3-0.2,0.5-0.1,0.8,0c1.3,0.8,2.6,1.7,3.9,2.5
		c1.1,0.7,2.2,1.1,3.4,1.2c1.8,0.1,3-1.1,2.6-2.8c-0.2-0.9-0.7-1.8-1.4-2.3c-1.4-1-2.8-1.9-4.2-2.9c-0.5-0.3-1.2-0.6-1.5-1.1
		c-0.3-0.5,0-1.2,0-1.8c0,0,0,0,0.1-0.2c0.3,0.2,0.6,0.4,0.9,0.6c0.7,0.5,1,0.4,1.5-0.3c0.1-0.2,0.3-0.5,0.4-0.7
		c0.1-0.3,0.1-0.6-0.3-0.8c-0.7-0.4-1.4-0.9-2.1-1.3c-0.1-0.1-0.3-0.2-0.3-0.3c0-0.5,0-1,0.1-1.7c0.3,0.2,0.4,0.3,0.5,0.4
		c0.9,0.6,1.2,0.5,1.7-0.4c0.1-0.2,0.2-0.4,0.3-0.6c0.1-0.3,0.1-0.5-0.2-0.7c-0.5-0.3-1-0.7-1.6-1c-0.5-0.2-0.6-0.6-0.7-1.1
		c-0.1-1.1-0.4-2.1-1.6-2.7c-0.8,3.4-1.6,6.8-2.5,10.2c-0.1,0-0.2-0.1-0.2-0.1c-2.4-1.5-4.7-3-7.1-4.5c-0.1-0.1-0.2-0.3-0.3-0.5
		c-0.1-0.6-0.2-1.2-0.2-1.9C40.3,112.6,40.3,111.8,39.4,111.7z"/>
	
		<linearGradient id="XMLID_94_" gradientUnits="userSpaceOnUse" x1="29.9792" y1="123.4554" x2="55.452" y2="123.4554" gradientTransform="matrix(0.9995 -3.049144e-002 3.049144e-002 0.9995 -0.2239 -0.406)">
		<stop  offset="4.926108e-003" style="stop-color:#39B54A"/>
		<stop  offset="1" style="stop-color:#00AEEF"/>
	</linearGradient>
	<path id="XMLID_143_" class="st8" d="M39.4,111.7c0.9,0.2,1,0.9,1,1.7c0.1,0.6,0.1,1.2,0.2,1.9c0,0.2,0.1,0.4,0.3,0.5
		c2.3,1.5,4.7,3,7.1,4.5c0,0,0.1,0,0.2,0.1c0.8-3.4,1.6-6.8,2.5-10.2c1.2,0.6,1.5,1.6,1.6,2.7c0,0.5,0.2,0.8,0.7,1.1
		c0.6,0.3,1.1,0.7,1.6,1c0.3,0.2,0.4,0.4,0.2,0.7c-0.1,0.2-0.2,0.4-0.3,0.6c-0.5,0.9-0.8,1-1.7,0.4c-0.1-0.1-0.3-0.2-0.5-0.4
		c0,0.7-0.1,1.2-0.1,1.7c0,0.1,0.2,0.2,0.3,0.3c0.7,0.5,1.4,0.9,2.1,1.3c0.3,0.2,0.4,0.5,0.3,0.8c-0.1,0.2-0.2,0.5-0.4,0.7
		c-0.5,0.7-0.7,0.8-1.5,0.3c-0.3-0.2-0.6-0.4-0.9-0.6c-0.1,0.1-0.1,0.1-0.1,0.2c0,0.6-0.2,1.3,0,1.8c0.3,0.5,1,0.7,1.5,1.1
		c1.4,0.9,2.8,1.9,4.2,2.9c0.7,0.6,1.2,1.4,1.4,2.3c0.4,1.6-0.8,2.8-2.6,2.8c-1.3,0-2.4-0.5-3.4-1.2c-1.3-0.8-2.6-1.7-3.9-2.5
		c-0.3-0.2-0.5-0.2-0.8,0c-0.4,0.3-0.9,0.5-1.4,0.9c0.4,0.2,0.8,0.5,1.3,0.7c0.3,0.1,0.4,0.4,0.3,0.7c-0.1,0.3-0.2,0.5-0.4,0.8
		c-0.5,0.8-0.7,0.8-1.5,0.3c-0.6-0.4-1.2-0.7-1.7-1.1c-0.3-0.2-0.5-0.2-0.8,0c-0.3,0.2-0.7,0.4-1.2,0.6c0.4,0.2,0.8,0.4,1.1,0.6
		c0.2,0.1,0.3,0.5,0.2,0.6c-0.2,0.5-0.5,1-0.9,1.4c-0.1,0.1-0.5,0.1-0.6,0c-0.6-0.3-1.1-0.7-1.7-1.1c-0.4-0.3-0.7-0.3-1.1-0.1
		c-0.8,0.3-1.6,0.5-2.5,0.2c-0.2-0.1-0.5-0.2-0.8-0.4c2.8-2.2,5.5-4.4,8.3-6.7c-0.2-0.1-0.3-0.2-0.5-0.3c-2.2-1.4-4.4-2.8-6.6-4.2
		c-0.3-0.2-0.6-0.2-0.9-0.1c-0.5,0.2-1.1,0.4-1.6,0.6c-0.7,0.3-1.4,0.6-2-0.2C35.4,117.9,37.4,114.8,39.4,111.7z"/>
</g>
</svg>
