<?xml version="1.0" encoding="utf-8"?>
<!-- Generator: Adobe Illustrator 22.1.0, SVG Export Plug-In . SVG Version: 6.00 Build 0)  -->
<svg version="1.1" id="Layer_1" xmlns="http://www.w3.org/2000/svg" xmlns:xlink="http://www.w3.org/1999/xlink" x="0px" y="0px"
	 viewBox="0 0 230 120" style="enable-background:new 0 0 230 120;" xml:space="preserve">
<style type="text/css">
	.st0{fill:url(#XMLID_2_);}
	.st1{fill:url(#XMLID_3_);}
	.st2{fill:url(#XMLID_4_);}
	.st3{fill:url(#XMLID_5_);}
	.st4{fill:url(#XMLID_6_);}
	.st5{fill:url(#XMLID_7_);}
	.st6{fill:url(#XMLID_8_);}
	.st7{fill:url(#XMLID_9_);}
	.st8{fill:url(#XMLID_10_);}
	.st9{fill:url(#XMLID_11_);}
	.st10{fill:url(#XMLID_12_);}
	.st11{fill:none;}
	.st12{clip-path:url(#SVGID_2_);}
	.st13{clip-path:url(#SVGID_4_);fill:none;stroke:url(#SVGID_5_);stroke-miterlimit:10;}
	.st14{fill:url(#XMLID_13_);}
	.st15{fill:url(#XMLID_14_);}
	.st16{fill:url(#XMLID_15_);}
	.st17{fill:url(#SVGID_6_);}
	.st18{fill:url(#XMLID_16_);}
	.st19{fill:url(#XMLID_17_);}
	.st20{fill:url(#XMLID_18_);}
</style>
<g id="XMLID_220_">
	
		<linearGradient id="XMLID_2_" gradientUnits="userSpaceOnUse" x1="90.6" y1="63.75" x2="107.8602" y2="63.75" gradientTransform="matrix(1 0 0 -1 0 122)">
		<stop  offset="0" style="stop-color:#00FFB9"/>
		<stop  offset="0.2198" style="stop-color:#01FCB7;stop-opacity:0.8901"/>
		<stop  offset="0.3735" style="stop-color:#06F3B2;stop-opacity:0.8133"/>
		<stop  offset="0.5071" style="stop-color:#0DE4A9;stop-opacity:0.7465"/>
		<stop  offset="0.6291" style="stop-color:#17CE9B;stop-opacity:0.6854"/>
		<stop  offset="0.7434" style="stop-color:#24B18B;stop-opacity:0.6283"/>
		<stop  offset="0.8518" style="stop-color:#348E76;stop-opacity:0.5741"/>
		<stop  offset="0.9537" style="stop-color:#47665E;stop-opacity:0.5231"/>
		<stop  offset="1" style="stop-color:#515151;stop-opacity:0.5"/>
	</linearGradient>
	<path id="XMLID_256_" class="st0" d="M101.7,67l-2.4-13.6h-0.1L96.7,67h-3.1l-3-17.5H93l2.2,14.4h0.2l2.5-14.4h2.7l2.6,14.4h0.1
		l2.1-14.4h2.4l-3,17.5H101.7z"/>
	
		<linearGradient id="XMLID_3_" gradientUnits="userSpaceOnUse" x1="109.2" y1="63.8" x2="119.7752" y2="63.8" gradientTransform="matrix(1 0 0 -1 0 122)">
		<stop  offset="0" style="stop-color:#00FFB9"/>
		<stop  offset="0.2198" style="stop-color:#01FCB7;stop-opacity:0.8901"/>
		<stop  offset="0.3735" style="stop-color:#06F3B2;stop-opacity:0.8133"/>
		<stop  offset="0.5071" style="stop-color:#0DE4A9;stop-opacity:0.7465"/>
		<stop  offset="0.6291" style="stop-color:#17CE9B;stop-opacity:0.6854"/>
		<stop  offset="0.7434" style="stop-color:#24B18B;stop-opacity:0.6283"/>
		<stop  offset="0.8518" style="stop-color:#348E76;stop-opacity:0.5741"/>
		<stop  offset="0.9537" style="stop-color:#47665E;stop-opacity:0.5231"/>
		<stop  offset="1" style="stop-color:#515151;stop-opacity:0.5"/>
	</linearGradient>
	<path id="XMLID_253_" class="st1" d="M110.9,66.5c-0.7-0.5-1.2-1.3-1.4-2.5c-0.2-1.2-0.3-3.1-0.3-5.8s0.1-4.6,0.3-5.8
		c0.2-1.2,0.7-2,1.4-2.5c0.7-0.5,1.9-0.7,3.6-0.7s2.9,0.2,3.6,0.7s1.2,1.3,1.4,2.5c0.2,1.2,0.3,3.1,0.3,5.8s-0.1,4.6-0.3,5.8
		c-0.2,1.2-0.7,2-1.4,2.5c-0.7,0.5-1.9,0.7-3.6,0.7S111.6,66.9,110.9,66.5z M116.5,64.7c0.4-0.2,0.6-0.8,0.7-1.7s0.2-2.5,0.2-4.8
		s-0.1-3.9-0.2-4.8c-0.1-0.9-0.4-1.5-0.7-1.7c-0.4-0.2-1-0.4-2-0.4s-1.6,0.1-2,0.4c-0.4,0.2-0.6,0.8-0.7,1.7s-0.2,2.5-0.2,4.8
		s0.1,3.9,0.2,4.8c0.1,0.9,0.4,1.4,0.7,1.7c0.4,0.2,1,0.4,2,0.4S116.1,65,116.5,64.7z"/>
	
		<linearGradient id="XMLID_4_" gradientUnits="userSpaceOnUse" x1="122.6671" y1="63.75" x2="132.6827" y2="63.75" gradientTransform="matrix(1 0 0 -1 0 122)">
		<stop  offset="0" style="stop-color:#00FFB9"/>
		<stop  offset="0.2198" style="stop-color:#01FCB7;stop-opacity:0.8901"/>
		<stop  offset="0.3735" style="stop-color:#06F3B2;stop-opacity:0.8133"/>
		<stop  offset="0.5071" style="stop-color:#0DE4A9;stop-opacity:0.7465"/>
		<stop  offset="0.6291" style="stop-color:#17CE9B;stop-opacity:0.6854"/>
		<stop  offset="0.7434" style="stop-color:#24B18B;stop-opacity:0.6283"/>
		<stop  offset="0.8518" style="stop-color:#348E76;stop-opacity:0.5741"/>
		<stop  offset="0.9537" style="stop-color:#47665E;stop-opacity:0.5231"/>
		<stop  offset="1" style="stop-color:#515151;stop-opacity:0.5"/>
	</linearGradient>
	<path id="XMLID_250_" class="st2" d="M130.2,67l-2-6.8H128h-2.9V67h-2.4V49.5h5.5c1.2,0,2.1,0.2,2.7,0.6c0.6,0.4,1,1,1.2,1.8
		c0.2,0.7,0.3,1.7,0.3,2.9c0,1.3-0.1,2.3-0.4,3.1c-0.3,0.8-0.8,1.4-1.6,1.8l2.3,7.2h-2.5V67z M129.1,57.8c0.3-0.2,0.6-0.6,0.7-1
		c0.1-0.4,0.2-1.1,0.2-2s0-1.5-0.1-2c-0.1-0.4-0.3-0.8-0.6-1s-0.9-0.3-1.6-0.3h-2.5v6.6h2.5C128.3,58.2,128.8,58,129.1,57.8z"/>
	
		<linearGradient id="XMLID_5_" gradientUnits="userSpaceOnUse" x1="135.1734" y1="63.75" x2="142.8504" y2="63.75" gradientTransform="matrix(1 0 0 -1 0 122)">
		<stop  offset="0" style="stop-color:#00FFB9"/>
		<stop  offset="0.2198" style="stop-color:#01FCB7;stop-opacity:0.8901"/>
		<stop  offset="0.3735" style="stop-color:#06F3B2;stop-opacity:0.8133"/>
		<stop  offset="0.5071" style="stop-color:#0DE4A9;stop-opacity:0.7465"/>
		<stop  offset="0.6291" style="stop-color:#17CE9B;stop-opacity:0.6854"/>
		<stop  offset="0.7434" style="stop-color:#24B18B;stop-opacity:0.6283"/>
		<stop  offset="0.8518" style="stop-color:#348E76;stop-opacity:0.5741"/>
		<stop  offset="0.9537" style="stop-color:#47665E;stop-opacity:0.5231"/>
		<stop  offset="1" style="stop-color:#515151;stop-opacity:0.5"/>
	</linearGradient>
	<path id="XMLID_248_" class="st3" d="M135.2,67V49.5h2.4v15.4h5.3V67H135.2z"/>
	
		<linearGradient id="XMLID_6_" gradientUnits="userSpaceOnUse" x1="144.8" y1="63.7" x2="154.5354" y2="63.7" gradientTransform="matrix(1 0 0 -1 0 122)">
		<stop  offset="0" style="stop-color:#00FFB9"/>
		<stop  offset="0.2198" style="stop-color:#01FCB7;stop-opacity:0.8901"/>
		<stop  offset="0.3735" style="stop-color:#06F3B2;stop-opacity:0.8133"/>
		<stop  offset="0.5071" style="stop-color:#0DE4A9;stop-opacity:0.7465"/>
		<stop  offset="0.6291" style="stop-color:#17CE9B;stop-opacity:0.6854"/>
		<stop  offset="0.7434" style="stop-color:#24B18B;stop-opacity:0.6283"/>
		<stop  offset="0.8518" style="stop-color:#348E76;stop-opacity:0.5741"/>
		<stop  offset="0.9537" style="stop-color:#47665E;stop-opacity:0.5231"/>
		<stop  offset="1" style="stop-color:#515151;stop-opacity:0.5"/>
	</linearGradient>
	<path id="XMLID_245_" class="st4" d="M144.8,49.5h4.3c1.7,0,3,0.2,3.7,0.7s1.2,1.2,1.4,2.4c0.2,1.1,0.3,3,0.3,5.7s-0.1,4.6-0.3,5.7
		s-0.7,1.9-1.4,2.4s-2,0.7-3.7,0.7h-4.3V49.5z M149.1,64.9c1,0,1.7-0.1,2.1-0.3c0.4-0.2,0.6-0.8,0.8-1.6c0.1-0.9,0.2-2.4,0.2-4.7
		s-0.1-3.8-0.2-4.7c-0.1-0.9-0.4-1.4-0.8-1.6c-0.4-0.2-1.1-0.3-2.1-0.3h-1.9V65L149.1,64.9L149.1,64.9z"/>
	
		<linearGradient id="XMLID_7_" gradientUnits="userSpaceOnUse" x1="161.024" y1="63.75" x2="170.8359" y2="63.75" gradientTransform="matrix(1 0 0 -1 0 122)">
		<stop  offset="0" style="stop-color:#00FFB9"/>
		<stop  offset="0.2198" style="stop-color:#01FCB7;stop-opacity:0.8901"/>
		<stop  offset="0.3735" style="stop-color:#06F3B2;stop-opacity:0.8133"/>
		<stop  offset="0.5071" style="stop-color:#0DE4A9;stop-opacity:0.7465"/>
		<stop  offset="0.6291" style="stop-color:#17CE9B;stop-opacity:0.6854"/>
		<stop  offset="0.7434" style="stop-color:#24B18B;stop-opacity:0.6283"/>
		<stop  offset="0.8518" style="stop-color:#348E76;stop-opacity:0.5741"/>
		<stop  offset="0.9537" style="stop-color:#47665E;stop-opacity:0.5231"/>
		<stop  offset="1" style="stop-color:#515151;stop-opacity:0.5"/>
	</linearGradient>
	<path id="XMLID_243_" class="st5" d="M164.7,67V51.6H161v-2.1h9.8v2.1h-3.7V67H164.7z"/>
	
		<linearGradient id="XMLID_8_" gradientUnits="userSpaceOnUse" x1="172.8188" y1="63.75" x2="182.8344" y2="63.75" gradientTransform="matrix(1 0 0 -1 0 122)">
		<stop  offset="0" style="stop-color:#00FFB9"/>
		<stop  offset="0.2198" style="stop-color:#01FCB7;stop-opacity:0.8901"/>
		<stop  offset="0.3735" style="stop-color:#06F3B2;stop-opacity:0.8133"/>
		<stop  offset="0.5071" style="stop-color:#0DE4A9;stop-opacity:0.7465"/>
		<stop  offset="0.6291" style="stop-color:#17CE9B;stop-opacity:0.6854"/>
		<stop  offset="0.7434" style="stop-color:#24B18B;stop-opacity:0.6283"/>
		<stop  offset="0.8518" style="stop-color:#348E76;stop-opacity:0.5741"/>
		<stop  offset="0.9537" style="stop-color:#47665E;stop-opacity:0.5231"/>
		<stop  offset="1" style="stop-color:#515151;stop-opacity:0.5"/>
	</linearGradient>
	<path id="XMLID_240_" class="st6" d="M180.3,67l-2-6.8h-0.2h-2.9V67h-2.4V49.5h5.5c1.2,0,2.1,0.2,2.7,0.6c0.6,0.4,1,1,1.2,1.8
		c0.2,0.7,0.3,1.7,0.3,2.9c0,1.3-0.1,2.3-0.4,3.1c-0.3,0.8-0.8,1.4-1.6,1.8l2.3,7.2h-2.5V67z M179.3,57.8c0.3-0.2,0.6-0.6,0.7-1
		c0.1-0.4,0.2-1.1,0.2-2s0-1.5-0.1-2c-0.1-0.4-0.3-0.8-0.6-1s-0.9-0.3-1.6-0.3h-2.5v6.6h2.5C178.4,58.2,179,58,179.3,57.8z"/>
	
		<linearGradient id="XMLID_9_" gradientUnits="userSpaceOnUse" x1="184.0539" y1="63.75" x2="195.9252" y2="63.75" gradientTransform="matrix(1 0 0 -1 0 122)">
		<stop  offset="0" style="stop-color:#00FFB9"/>
		<stop  offset="0.2198" style="stop-color:#01FCB7;stop-opacity:0.8901"/>
		<stop  offset="0.3735" style="stop-color:#06F3B2;stop-opacity:0.8133"/>
		<stop  offset="0.5071" style="stop-color:#0DE4A9;stop-opacity:0.7465"/>
		<stop  offset="0.6291" style="stop-color:#17CE9B;stop-opacity:0.6854"/>
		<stop  offset="0.7434" style="stop-color:#24B18B;stop-opacity:0.6283"/>
		<stop  offset="0.8518" style="stop-color:#348E76;stop-opacity:0.5741"/>
		<stop  offset="0.9537" style="stop-color:#47665E;stop-opacity:0.5231"/>
		<stop  offset="1" style="stop-color:#515151;stop-opacity:0.5"/>
	</linearGradient>
	<path id="XMLID_237_" class="st7" d="M193.5,67l-1.1-4.5h-4.9l-1,4.5h-2.4l4.3-17.5h3.3L196,67H193.5z M190,52.1h-0.2l-1.9,8.4h4
		L190,52.1z"/>
	
		<linearGradient id="XMLID_10_" gradientUnits="userSpaceOnUse" x1="195.6718" y1="63.75" x2="207.06" y2="63.75" gradientTransform="matrix(1 0 0 -1 0 122)">
		<stop  offset="0" style="stop-color:#00FFB9"/>
		<stop  offset="0.2198" style="stop-color:#01FCB7;stop-opacity:0.8901"/>
		<stop  offset="0.3735" style="stop-color:#06F3B2;stop-opacity:0.8133"/>
		<stop  offset="0.5071" style="stop-color:#0DE4A9;stop-opacity:0.7465"/>
		<stop  offset="0.6291" style="stop-color:#17CE9B;stop-opacity:0.6854"/>
		<stop  offset="0.7434" style="stop-color:#24B18B;stop-opacity:0.6283"/>
		<stop  offset="0.8518" style="stop-color:#348E76;stop-opacity:0.5741"/>
		<stop  offset="0.9537" style="stop-color:#47665E;stop-opacity:0.5231"/>
		<stop  offset="1" style="stop-color:#515151;stop-opacity:0.5"/>
	</linearGradient>
	<path id="XMLID_235_" class="st8" d="M199.7,67l-4.1-17.5h2.5l3.2,14.6h0.2l3.2-14.6h2.4L203,67H199.7z"/>
	
		<linearGradient id="XMLID_11_" gradientUnits="userSpaceOnUse" x1="208.9157" y1="63.75" x2="217.2536" y2="63.75" gradientTransform="matrix(1 0 0 -1 0 122)">
		<stop  offset="0" style="stop-color:#00FFB9"/>
		<stop  offset="0.2198" style="stop-color:#01FCB7;stop-opacity:0.8901"/>
		<stop  offset="0.3735" style="stop-color:#06F3B2;stop-opacity:0.8133"/>
		<stop  offset="0.5071" style="stop-color:#0DE4A9;stop-opacity:0.7465"/>
		<stop  offset="0.6291" style="stop-color:#17CE9B;stop-opacity:0.6854"/>
		<stop  offset="0.7434" style="stop-color:#24B18B;stop-opacity:0.6283"/>
		<stop  offset="0.8518" style="stop-color:#348E76;stop-opacity:0.5741"/>
		<stop  offset="0.9537" style="stop-color:#47665E;stop-opacity:0.5231"/>
		<stop  offset="1" style="stop-color:#515151;stop-opacity:0.5"/>
	</linearGradient>
	<path id="XMLID_223_" class="st9" d="M208.9,67V49.5h8.3v2.1h-5.9v5.5h5.2v2.1h-5.2v5.7h5.9V67H208.9z"/>
	
		<linearGradient id="XMLID_12_" gradientUnits="userSpaceOnUse" x1="219.8" y1="63.75" x2="227.5" y2="63.75" gradientTransform="matrix(1 0 0 -1 0 122)">
		<stop  offset="0" style="stop-color:#00FFB9"/>
		<stop  offset="0.2198" style="stop-color:#01FCB7"/>
		<stop  offset="0.3735" style="stop-color:#06F3B2"/>
		<stop  offset="0.5071" style="stop-color:#0DE4A9"/>
		<stop  offset="0.6291" style="stop-color:#17CE9B"/>
		<stop  offset="0.7434" style="stop-color:#24B18B"/>
		<stop  offset="0.8518" style="stop-color:#348E76"/>
		<stop  offset="1" style="stop-color:#47665E"/>
		<stop  offset="1" style="stop-color:#407466"/>
		<stop  offset="1" style="stop-color:#515151"/>
	</linearGradient>
	<path id="XMLID_221_" class="st10" d="M219.8,67V49.5h2.4v15.4h5.3V67H219.8z"/>
</g>
<path class="st11" d="M119.9,91.7c0,1.5-1.2,2.7-2.7,2.7s-2.7-1.2-2.7-2.7c0-1.5,1.2-2.7,2.7-2.7S119.9,90.2,119.9,91.7z"/>
<path class="st11" d="M119.9,91.7c0,1.5-1.2,2.7-2.7,2.7s-2.7-1.2-2.7-2.7c0-1.5,1.2-2.7,2.7-2.7S119.9,90.2,119.9,91.7z"/>
<g>
	<defs>
		<path id="SVGID_1_" d="M97.6,85.2c1.7,2.7,24.3,24.4,24.3,24.4s-28.5,28.7-30.2,28.7s-56.2-9.7-56.8-9.7c-0.6,0-62-20.2-62-20.2
			V57.4c0,0,30.4-68.6,34.1-71.1s76.4-16.6,86.4-15.2c10,1.4,15.8,8.1,15.8,8.1l10.6,26c0,0,3.3,28.6,2.1,29.3s-18,2.4-30.2,2.8
			c-12.2,0.3-19.5,1.6-19.5,6.4S97.6,85.2,97.6,85.2z"/>
	</defs>
	<clipPath id="SVGID_2_">
		<use xlink:href="#SVGID_1_"  style="overflow:visible;"/>
	</clipPath>
	<g id="XMLID_219_" class="st12">
		<g>
			<defs>
				<path id="SVGID_3_" d="M115.1,33.3c0,0,2.5-2.1,4.2-3.3c0.3-0.2,12.3-9.2,12-10.4S119.8-4.2,113.5-5c-6.2-0.8-58.4-1.9-59.2-1.6
					C53.5-6.4,20.8-2.4,20-1.2S1.3,12.3,0.7,14c-0.6,1.6-2.5,99.2-2.4,99.4c0.1,0.2,30.6,12,30.8,12s88.3,1.9,88.4,1.1
					s3.3-8.6,5.9-13.1s2.4-25.4,2.4-25.4l-17.6-3.4L115.1,33.3z"/>
			</defs>
			<clipPath id="SVGID_4_">
				<use xlink:href="#SVGID_3_"  style="overflow:visible;"/>
			</clipPath>
			<linearGradient id="SVGID_5_" gradientUnits="userSpaceOnUse" x1="9.5" y1="61.2" x2="125.9" y2="61.2">
				<stop  offset="0" style="stop-color:#00FFB9"/>
				<stop  offset="0.2198" style="stop-color:#01FCB7"/>
				<stop  offset="0.3735" style="stop-color:#06F3B2"/>
				<stop  offset="0.5071" style="stop-color:#0DE4A9"/>
				<stop  offset="0.6291" style="stop-color:#17CE9B"/>
				<stop  offset="0.7434" style="stop-color:#24B18B"/>
				<stop  offset="0.8518" style="stop-color:#348E76"/>
				<stop  offset="0.9537" style="stop-color:#47665E"/>
				<stop  offset="1" style="stop-color:#515151"/>
			</linearGradient>
			<path class="st13" d="M114.9,93.4c-2.5-1.3-3.5,2.9-2.4,0.5c0.6-1.3-0.5-2.7,0.3-3.9c0.4-0.6,3.2-8.3,3.5-8.9
				c0.2-0.3-2,5.1-1.8,4.8c-0.1,0.4,2.2-5.5,2.4-6c1-2.6,3.3-4.1,6.2-3.5c0.1,0,0.2,0.1,0.3,0.1c1.3-4.9,2-10,2-15.2
				c0-31.9-25.8-57.7-57.7-57.7S10,29.3,10,61.2s25.8,57.7,57.7,57.7c19.8,0,37.3-10,47.7-25.2C115.2,93.6,115,93.5,114.9,93.4z"/>
		</g>
	</g>
</g>
<g id="XMLID_265_">
	
		<linearGradient id="XMLID_13_" gradientUnits="userSpaceOnUse" x1="42.5" y1="118.097" x2="61.2" y2="118.097" gradientTransform="matrix(1 0 0 -1 0 122)">
		<stop  offset="0" style="stop-color:#00FFB9"/>
		<stop  offset="0.2198" style="stop-color:#01FCB7"/>
		<stop  offset="0.3735" style="stop-color:#06F3B2"/>
		<stop  offset="0.5071" style="stop-color:#0DE4A9"/>
		<stop  offset="0.6291" style="stop-color:#17CE9B"/>
		<stop  offset="0.7434" style="stop-color:#24B18B"/>
		<stop  offset="0.8518" style="stop-color:#348E76"/>
		<stop  offset="0.9537" style="stop-color:#47665E"/>
		<stop  offset="1" style="stop-color:#515151"/>
	</linearGradient>
	<path id="XMLID_266_" class="st14" d="M49.7,6.9c-2.6-1.4-5-2.9-7.2-4c5.2-3.3,13.2-2.3,18.7,1.5C56.9,4.9,53,5.7,49.7,6.9z"/>
	
		<linearGradient id="XMLID_14_" gradientUnits="userSpaceOnUse" x1="6.2532" y1="55.5" x2="36.9367" y2="55.5" gradientTransform="matrix(1 0 0 -1 0 122)">
		<stop  offset="0" style="stop-color:#00FFB9"/>
		<stop  offset="0.2198" style="stop-color:#01FCB7"/>
		<stop  offset="0.3735" style="stop-color:#06F3B2"/>
		<stop  offset="0.5071" style="stop-color:#0DE4A9"/>
		<stop  offset="0.6291" style="stop-color:#17CE9B"/>
		<stop  offset="0.7434" style="stop-color:#24B18B"/>
		<stop  offset="0.8518" style="stop-color:#348E76"/>
		<stop  offset="0.9537" style="stop-color:#47665E"/>
		<stop  offset="1" style="stop-color:#515151"/>
	</linearGradient>
	<path id="XMLID_269_" class="st15" d="M14.2,23.4c1.2,3.3,0.3,7.2,5.3,6.8C11.4,44,8.7,58.3,12,73.5c3.4,15.3,12,27.1,24.9,36.1
		c-12.2-4.6-26.2-21-29.4-37.3C4.2,55.4,7.8,39.8,14.2,23.4z"/>
	
		<linearGradient id="XMLID_15_" gradientUnits="userSpaceOnUse" x1="91.7" y1="17303.7168" x2="119.0576" y2="17303.7168" gradientTransform="matrix(1 0 0 1 0 -17286)">
		<stop  offset="0" style="stop-color:#00FFB9"/>
		<stop  offset="0.2198" style="stop-color:#01FCB7"/>
		<stop  offset="0.3735" style="stop-color:#06F3B2"/>
		<stop  offset="0.5071" style="stop-color:#0DE4A9"/>
		<stop  offset="0.6291" style="stop-color:#17CE9B"/>
		<stop  offset="0.7434" style="stop-color:#24B18B"/>
		<stop  offset="0.8518" style="stop-color:#348E76"/>
		<stop  offset="0.9537" style="stop-color:#47665E"/>
		<stop  offset="1" style="stop-color:#515151"/>
	</linearGradient>
	<path id="XMLID_268_" class="st16" d="M91.7,8.6c3.7-3.8,7.7-5.4,12.3-3.4c4.8,2.1,6.1,6.3,5.7,11.2c3.6,0.9,6.1,2.5,6,6.6
		c0,0.6,1,1.2,1.6,1.8c2.1,1.9,2.5,3.7,0.2,6.3C110.9,21.2,102.5,13.6,91.7,8.6z"/>
	<linearGradient id="SVGID_6_" gradientUnits="userSpaceOnUse" x1="109.3" y1="93.2437" x2="123.7383" y2="93.2437">
		<stop  offset="0" style="stop-color:#00FFB9"/>
		<stop  offset="0.2198" style="stop-color:#01FCB7"/>
		<stop  offset="0.3735" style="stop-color:#06F3B2"/>
		<stop  offset="0.5071" style="stop-color:#0DE4A9"/>
		<stop  offset="0.6291" style="stop-color:#17CE9B"/>
		<stop  offset="0.7434" style="stop-color:#24B18B"/>
		<stop  offset="0.8518" style="stop-color:#348E76"/>
		<stop  offset="0.9537" style="stop-color:#47665E"/>
		<stop  offset="1" style="stop-color:#515151"/>
	</linearGradient>
	<path class="st17" d="M123.6,90.5c-0.6-3.3-3.7-5.5-7.1-5.3c-3.6,0.2-6.1,2.9-6.4,6.6c-0.3,3.2-0.5,6.4-0.8,9.5
		c3.1-1,6.2-1.9,9.3-2.8C122.3,97.4,124.3,94.2,123.6,90.5z M117.2,94.3c-1.5,0-2.7-1.2-2.7-2.7c0-1.5,1.2-2.7,2.7-2.7
		s2.7,1.2,2.7,2.7C119.9,93.1,118.7,94.3,117.2,94.3z"/>
</g>
<g id="XMLID_258_">
	
		<linearGradient id="XMLID_16_" gradientUnits="userSpaceOnUse" x1="41.0235" y1="40.5373" x2="67.7122" y2="40.5373" gradientTransform="matrix(0.999 4.423647e-02 4.423647e-02 -0.999 -21.14 143.2738)">
		<stop  offset="0" style="stop-color:#00FFB9"/>
		<stop  offset="0.2198" style="stop-color:#01FCB7"/>
		<stop  offset="0.3735" style="stop-color:#06F3B2"/>
		<stop  offset="0.5071" style="stop-color:#0DE4A9"/>
		<stop  offset="0.6291" style="stop-color:#17CE9B"/>
		<stop  offset="0.7434" style="stop-color:#24B18B"/>
		<stop  offset="0.8518" style="stop-color:#348E76"/>
		<stop  offset="0.9537" style="stop-color:#47665E"/>
		<stop  offset="1" style="stop-color:#515151"/>
	</linearGradient>
	<path id="XMLID_263_" class="st18" d="M28.4,94.5c-2.3,3.2-4.5,6.5-6.8,9.7c0.3,0.2,0.6,0.3,0.8,0.6c0.3,0.3,0.6,0.3,1,0.1
		c0.8-0.3,1.5-0.5,2.3-0.7c0.2-0.1,0.5,0,0.7,0.1c1.4,1,2.8,1.9,4.2,2.9c0.7,0.5,1.5,1,2.3,1.6c-2.9,2.1-5.7,4.2-8.5,6.2
		c0.8,1,1.9,1.3,2.9,0.9c1.2-0.4,1.9,0,2.7,0.6l0.1,0.1c1.1,0.7,1.3,0.7,2.1-0.3c0.2-0.2,0.3-0.5,0.5-0.8c0.2-0.5,0.1-0.8-0.4-1.1
		c-0.1-0.1-0.3-0.2-0.4-0.3c0.5-0.4,0.9-0.4,1.3,0c0.4,0.3,0.8,0.6,1.2,0.9c1.1,0.9,1.5,0.5,2.2-0.5c0.1-0.2,0.2-0.4,0.3-0.7
		c0.2-0.4,0.1-0.8-0.3-1c-0.3-0.1-0.5-0.3-0.8-0.4c0.2-0.2,0.3-0.3,0.4-0.4c0.5-0.3,0.9-0.3,1.4,0.1c1.2,0.9,2.4,1.7,3.6,2.5
		c1.2,0.8,2.5,1.4,4,1.3c1.8-0.1,2.9-1.6,2.3-3.3c-0.5-1.5-1.5-2.6-2.7-3.4c-1.3-0.9-2.5-1.8-3.8-2.6c-0.1-0.1-0.3-0.3-0.3-0.4
		c0-0.3,0-0.7,0.1-1l0.1-0.1c0.2,0.2,0.4,0.4,0.6,0.5c0.4,0.4,0.9,0.3,1.2-0.1c0.4-0.4,0.7-0.9,0.9-1.4c0.2-0.4,0.1-0.8-0.3-1
		c-0.6-0.4-1.1-0.8-1.7-1.2c-0.5-0.3-0.6-0.7-0.4-1.2c0.1,0.1,0.2,0.1,0.3,0.2c0.6,0.5,1,0.3,1.4-0.1c0.3-0.4,0.6-0.8,0.8-1.3
		c0.2-0.4,0.1-0.8-0.3-1c-0.6-0.4-1.1-0.8-1.7-1.2c-0.2-0.1-0.3-0.4-0.3-0.6c-0.1-0.5-0.1-1-0.2-1.5c-0.3-0.9-0.8-1.6-1.8-1.9
		c-1,3.4-1.9,6.7-2.9,10.2c-0.2-0.2-0.3-0.4-0.4-0.5c-1.7-1.2-3.4-2.4-5.1-3.5c-0.9-0.6-1.5-1.2-1.3-2.3c0-0.1,0-0.3,0-0.4
		C29.8,95.4,29.8,95.4,28.4,94.5L28.4,94.5z"/>
	
		<linearGradient id="XMLID_17_" gradientUnits="userSpaceOnUse" x1="41.0235" y1="40.4209" x2="67.7122" y2="40.4209" gradientTransform="matrix(0.999 4.423647e-02 4.423647e-02 -0.999 -21.14 143.2738)">
		<stop  offset="0" style="stop-color:#00FFB9"/>
		<stop  offset="0.2198" style="stop-color:#01FCB7"/>
		<stop  offset="0.3735" style="stop-color:#06F3B2"/>
		<stop  offset="0.5071" style="stop-color:#0DE4A9"/>
		<stop  offset="0.6291" style="stop-color:#17CE9B"/>
		<stop  offset="0.7434" style="stop-color:#24B18B"/>
		<stop  offset="0.8518" style="stop-color:#348E76"/>
		<stop  offset="0.9537" style="stop-color:#47665E"/>
		<stop  offset="1" style="stop-color:#515151"/>
	</linearGradient>
	<path id="XMLID_260_" class="st19" d="M28.4,94.5L28.4,94.5c1.3,0.8,1.3,0.8,1.4,2.4c0,0.1,0,0.3,0,0.4c-0.1,1.1,0.5,1.7,1.3,2.3
		c1.7,1.1,3.4,2.4,5.1,3.5c0.1,0.1,0.2,0.3,0.4,0.5c1-3.5,2-6.9,2.9-10.2c1,0.3,1.5,1,1.8,1.9c0.1,0.5,0.1,1,0.2,1.5
		c0,0.2,0.2,0.5,0.3,0.6c0.5,0.4,1.1,0.8,1.7,1.2c0.4,0.3,0.5,0.6,0.3,1c-0.2,0.5-0.5,0.9-0.8,1.3c-0.4,0.4-0.8,0.6-1.4,0.1
		c-0.1-0.1-0.2-0.1-0.3-0.2c-0.2,0.5-0.1,0.9,0.4,1.2c0.6,0.4,1.1,0.8,1.7,1.2c0.4,0.3,0.5,0.6,0.3,1c-0.3,0.5-0.6,1-0.9,1.4
		c-0.3,0.4-0.8,0.4-1.2,0.1c-0.2-0.2-0.4-0.4-0.6-0.5l-0.1,0.1c0,0.3-0.1,0.7-0.1,1c0,0.2,0.2,0.3,0.3,0.4c1.3,0.9,2.5,1.7,3.8,2.6
		c1.2,0.9,2.2,1.9,2.7,3.4c0.5,1.7-0.6,3.2-2.3,3.3c-1.5,0.1-2.8-0.5-4-1.3s-2.4-1.6-3.6-2.5c-0.5-0.4-0.9-0.4-1.4-0.1
		c-0.1,0.1-0.2,0.1-0.4,0.4c0.3,0.1,0.5,0.3,0.8,0.4c0.4,0.2,0.5,0.6,0.3,1c-0.1,0.2-0.2,0.5-0.3,0.7c-0.8,1-1.2,1.4-2.2,0.5
		c-0.4-0.3-0.8-0.5-1.2-0.9s-0.8-0.4-1.3,0c0.1,0.1,0.3,0.2,0.4,0.3c0.5,0.2,0.6,0.6,0.4,1.1c-0.1,0.3-0.3,0.6-0.5,0.8
		c-0.8,1-1,1.1-2.1,0.3l-0.1-0.1c-0.8-0.7-1.6-1.1-2.7-0.6c-1,0.4-2.1,0.1-2.9-0.9c2.8-2.1,5.6-4.1,8.5-6.2
		c-0.8-0.5-1.5-1.1-2.3-1.6c-1.4-1-2.8-2-4.2-2.9c-0.2-0.1-0.5-0.2-0.7-0.1c-0.8,0.2-1.6,0.4-2.3,0.7c-0.4,0.1-0.7,0.1-1-0.1
		s-0.6-0.4-0.8-0.6C23.9,101,26.2,97.8,28.4,94.5z M28.5,95.1c-2.1,3-4.2,6.1-6.3,9.1c0.5,0.8,1.2,0.5,2,0.3
		c0.5-0.2,1.1-0.3,1.6-0.5c0.3-0.1,0.6,0,0.9,0.2c2.1,1.5,4.3,3,6.4,4.5c0.1,0.1,0.3,0.2,0.4,0.3c-2.9,2.1-5.7,4.2-8.6,6.3
		c0.3,0.2,0.5,0.3,0.7,0.4c0.8,0.4,1.7,0.2,2.5-0.1c0.4-0.2,0.7-0.1,1.1,0.1c0.5,0.4,1.1,0.8,1.6,1.1c0.2,0.1,0.6,0.1,0.6,0
		c0.4-0.4,0.7-0.9,0.9-1.3c0.1-0.1-0.1-0.5-0.2-0.6c-0.3-0.2-0.6-0.4-1-0.7c0.5-0.2,0.9-0.4,1.2-0.6s0.5-0.1,0.8,0.1
		c0.5,0.4,1.1,0.8,1.7,1.2c0.8,0.5,1,0.5,1.5-0.3c0.2-0.2,0.3-0.5,0.4-0.8c0.1-0.3,0.1-0.5-0.2-0.7c-0.4-0.2-0.8-0.5-1.2-0.7
		c0.6-0.4,1-0.6,1.5-0.8c0.3-0.2,0.5-0.1,0.8,0.1c1.3,0.9,2.5,1.8,3.8,2.7c1,0.7,2.1,1.2,3.4,1.3c1.8,0.2,3-1,2.7-2.7
		c-0.2-0.9-0.6-1.8-1.3-2.4c-1.3-1.1-2.7-2-4.1-3.1c-0.5-0.4-1.2-0.6-1.4-1.1s0-1.2,0.1-1.8c0,0,0,0,0.1-0.2
		c0.3,0.2,0.5,0.5,0.8,0.7c0.7,0.5,1,0.5,1.5-0.2c0.2-0.2,0.3-0.5,0.4-0.7c0.2-0.3,0.1-0.6-0.2-0.8c-0.7-0.5-1.4-1-2.1-1.4
		c-0.1-0.1-0.3-0.2-0.3-0.3c0-0.5,0.1-1,0.1-1.7c0.3,0.2,0.4,0.4,0.5,0.5c0.9,0.6,1.1,0.5,1.7-0.4c0.1-0.2,0.2-0.4,0.3-0.6
		c0.1-0.3,0.1-0.5-0.2-0.7c-0.5-0.3-1-0.7-1.6-1.1c-0.5-0.3-0.6-0.6-0.6-1.1c0-1.1-0.3-2.2-1.4-2.8c-1,3.4-2,6.8-2.9,10.2
		c-0.1,0-0.2-0.1-0.2-0.1c-2.3-1.6-4.6-3.2-6.9-4.8c-0.1-0.1-0.2-0.3-0.3-0.5c-0.1-0.6-0.1-1.2-0.1-1.9C29.4,96,29.4,95.3,28.5,95.1
		z"/>
	
		<linearGradient id="XMLID_18_" gradientUnits="userSpaceOnUse" x1="41.5412" y1="40.3075" x2="67.3845" y2="40.3075" gradientTransform="matrix(0.999 4.423647e-02 4.423647e-02 -0.999 -21.14 143.2738)">
		<stop  offset="0" style="stop-color:#00FFB9"/>
		<stop  offset="0.2198" style="stop-color:#01FCB7"/>
		<stop  offset="0.3735" style="stop-color:#06F3B2"/>
		<stop  offset="0.5071" style="stop-color:#0DE4A9"/>
		<stop  offset="0.6291" style="stop-color:#17CE9B"/>
		<stop  offset="0.7434" style="stop-color:#24B18B"/>
		<stop  offset="0.8518" style="stop-color:#348E76"/>
		<stop  offset="0.9537" style="stop-color:#47665E"/>
		<stop  offset="1" style="stop-color:#515151"/>
	</linearGradient>
	<path id="XMLID_259_" class="st20" d="M28.5,95.1c0.9,0.2,0.9,1,1,1.7c0,0.6,0.1,1.3,0.1,1.9c0,0.2,0.1,0.4,0.3,0.5
		c2.3,1.6,4.6,3.2,6.9,4.8c0,0,0.1,0,0.2,0.1c1-3.4,1.9-6.8,2.9-10.2c1.2,0.6,1.4,1.7,1.4,2.8c0,0.5,0.1,0.9,0.6,1.1
		c0.5,0.3,1,0.7,1.6,1.1c0.3,0.2,0.3,0.4,0.2,0.7c-0.1,0.2-0.2,0.4-0.3,0.6c-0.6,0.9-0.9,1-1.7,0.4c-0.1-0.1-0.3-0.2-0.5-0.5
		c-0.1,0.7-0.1,1.2-0.1,1.7c0,0.1,0.2,0.2,0.3,0.3c0.7,0.5,1.4,1,2.1,1.4c0.3,0.2,0.4,0.5,0.2,0.8c-0.1,0.2-0.2,0.5-0.4,0.7
		c-0.5,0.7-0.8,0.8-1.5,0.2c-0.3-0.2-0.6-0.4-0.8-0.7c-0.1,0.1-0.1,0.1-0.1,0.2c0,0.6-0.3,1.3-0.1,1.8s0.9,0.8,1.4,1.1
		c1.4,1,2.8,2,4.1,3.1c0.7,0.6,1.2,1.5,1.3,2.4c0.3,1.7-0.9,2.8-2.7,2.7c-1.3-0.1-2.4-0.6-3.4-1.3c-1.3-0.9-2.6-1.8-3.8-2.7
		c-0.3-0.2-0.5-0.2-0.8-0.1c-0.4,0.3-0.9,0.4-1.5,0.8c0.4,0.2,0.8,0.5,1.2,0.7c0.3,0.2,0.4,0.4,0.2,0.7c-0.1,0.3-0.2,0.5-0.4,0.8
		c-0.5,0.8-0.8,0.8-1.5,0.3c-0.6-0.4-1.1-0.8-1.7-1.2c-0.3-0.2-0.5-0.2-0.8-0.1c-0.3,0.2-0.7,0.3-1.2,0.6c0.4,0.3,0.8,0.4,1,0.7
		c0.1,0.1,0.3,0.5,0.2,0.6c-0.3,0.5-0.6,0.9-0.9,1.3c-0.1,0.1-0.5,0.1-0.6,0c-0.6-0.3-1.1-0.7-1.6-1.1c-0.4-0.3-0.7-0.3-1.1-0.1
		c-0.8,0.3-1.7,0.5-2.5,0.1c-0.2-0.1-0.5-0.3-0.7-0.4c2.9-2.1,5.7-4.2,8.6-6.3c-0.2-0.1-0.3-0.2-0.4-0.3c-2.1-1.5-4.3-3-6.4-4.5
		c-0.3-0.2-0.5-0.3-0.9-0.2c-0.5,0.2-1.1,0.3-1.6,0.5c-0.7,0.2-1.5,0.5-2-0.3C24.3,101.1,26.4,98.1,28.5,95.1z"/>
</g>
</svg>
